<svg width="1728" height="1839" viewBox="0 0 1728 1839" fill="none" xmlns="http://www.w3.org/2000/svg">
<path opacity="0.0144928" d="M1568.24 1539.65C1577.29 1544.45 1588.43 1542.69 1595.56 1535.32L1821.89 1301.24C1826.1 1296.88 1828.42 1291.04 1828.35 1284.97L1822.73 818.909C1822.67 814.142 1821.14 809.511 1818.33 805.656L1578.19 475.549C1573.1 468.559 1564.53 465.011 1555.99 466.363L1275.54 510.782C1267 512.134 1259.94 518.159 1257.27 526.378L1130.88 914.537C1129.41 919.07 1129.38 923.95 1130.79 928.501L1269.47 1373.49C1271.28 1379.28 1275.29 1384.12 1280.65 1386.96L1568.24 1539.65Z" stroke="url(#paint0_linear_89_275)" stroke-width="4"/>
<path opacity="0.0289855" d="M1517.08 1538.16C1525.86 1543.4 1537.04 1542.23 1544.53 1535.27L1781.45 1315.33C1785.9 1311.2 1788.53 1305.47 1788.78 1299.41L1807.61 837.976C1807.8 833.198 1806.51 828.478 1803.89 824.473L1582.81 485.496C1578.09 478.265 1569.73 474.284 1561.14 475.186L1280.43 504.69C1271.85 505.593 1264.49 511.227 1261.38 519.28L1115.6 896.815C1113.88 901.276 1113.59 906.162 1114.78 910.795L1229.13 1358.23C1230.64 1364.11 1234.4 1369.16 1239.61 1372.27L1517.08 1538.16Z" stroke="url(#paint1_linear_89_275)" stroke-width="4"/>
<path opacity="0.0434783" d="M1466.32 1535.12C1474.8 1540.79 1485.99 1540.2 1493.83 1533.68L1740.47 1328.33C1745.14 1324.44 1748.09 1318.85 1748.66 1312.8L1791.43 857.271C1791.88 852.496 1790.82 847.7 1788.41 843.555L1586.66 496.788C1582.32 489.336 1574.19 484.935 1565.58 485.386L1285.39 500.07C1276.78 500.521 1269.15 505.749 1265.62 513.613L1101.22 879.569C1099.25 883.944 1098.7 888.824 1099.65 893.526L1189.8 1342.09C1191 1348.05 1194.51 1353.29 1199.57 1356.67L1466.32 1535.12Z" stroke="url(#paint2_linear_89_275)" stroke-width="4"/>
<path opacity="0.057971" d="M1416.04 1530.56C1424.19 1536.64 1435.37 1536.64 1443.52 1530.56L1699.02 1340.22C1703.91 1336.58 1707.15 1331.15 1708.04 1325.13L1774.19 876.737C1774.89 871.977 1774.09 867.117 1771.88 862.841L1589.67 509.37C1585.72 501.717 1577.83 496.909 1569.22 496.909L1290.34 496.909C1281.73 496.909 1273.84 501.717 1269.9 509.37L1087.68 862.841C1085.48 867.117 1084.67 871.977 1085.37 876.737L1151.53 1325.13C1152.42 1331.15 1155.66 1336.58 1160.54 1340.22L1416.04 1530.56Z" stroke="url(#paint3_linear_89_275)" stroke-width="4"/>
<path opacity="0.0724638" d="M1366.32 1524.54C1374.13 1531 1385.25 1531.58 1393.7 1525.97L1657.16 1350.99C1662.24 1347.62 1665.77 1342.36 1666.98 1336.39L1755.89 896.313C1756.85 891.582 1756.29 886.671 1754.3 882.274L1591.77 523.184C1588.22 515.351 1580.6 510.149 1572.02 509.699L1295.2 495.192C1286.62 494.742 1278.5 499.119 1274.15 506.538L1074.97 846.672C1072.54 850.837 1071.47 855.663 1071.92 860.468L1114.35 1307.42C1114.92 1313.49 1117.89 1319.09 1122.58 1322.97L1366.32 1524.54Z" stroke="url(#paint4_linear_89_275)" stroke-width="4"/>
<path opacity="0.0869565" d="M1317.22 1517.08C1324.67 1523.91 1335.72 1525.07 1344.43 1519.94L1614.95 1360.63C1620.22 1357.53 1624.03 1352.47 1625.55 1346.55L1736.53 915.941C1737.73 911.253 1737.43 906.303 1735.66 901.796L1592.9 538.169C1589.76 530.176 1582.43 524.597 1573.9 523.7L1299.9 494.901C1291.36 494.004 1283.03 497.937 1278.3 505.103L1063.05 831.102C1060.39 835.143 1059.06 839.922 1059.27 844.759L1078.29 1289.03C1078.55 1295.13 1081.22 1300.88 1085.73 1305.01L1317.22 1517.08Z" stroke="url(#paint5_linear_89_275)" stroke-width="4"/>
<path opacity="0.101449" d="M1268.83 1508.24C1275.91 1515.42 1286.83 1517.15 1295.78 1512.51L1572.46 1369.13C1577.89 1366.32 1581.98 1361.45 1583.81 1355.62L1716.1 935.564C1717.56 930.931 1717.52 925.956 1715.97 921.35L1593.01 554.26C1590.29 546.13 1583.27 540.19 1574.8 538.849L1304.35 496.013C1295.88 494.672 1287.37 498.152 1282.26 505.043L1051.88 816.168C1048.99 820.071 1047.41 824.79 1047.37 829.647L1043.38 1270.02C1043.32 1276.14 1045.71 1282.03 1050 1286.38L1268.83 1508.24Z" stroke="url(#paint6_linear_89_275)" stroke-width="4"/>
<path opacity="0.115942" d="M1221.21 1498.08C1227.89 1505.59 1238.68 1507.88 1247.84 1503.74L1529.74 1376.49C1535.33 1373.96 1539.67 1369.32 1541.82 1363.58L1694.63 955.123C1696.34 950.559 1696.55 945.57 1695.24 940.877L1592.05 571.391C1589.74 563.145 1583.05 556.861 1574.68 555.08L1308.48 498.5C1300.11 496.72 1291.44 499.738 1285.98 506.335L1041.42 801.903C1038.32 805.658 1036.48 810.302 1036.19 815.166L1009.65 1250.46C1009.28 1256.58 1011.36 1262.59 1015.44 1267.17L1221.21 1498.08Z" stroke="url(#paint7_linear_89_275)" stroke-width="4"/>
<path opacity="0.130435" d="M1174.42 1486.65C1180.7 1494.46 1191.32 1497.3 1200.66 1493.68L1486.87 1382.7C1492.59 1380.48 1497.19 1376.06 1499.64 1370.44L1672.12 974.562C1674.07 970.079 1674.55 965.091 1673.47 960.321L1589.96 589.492C1588.08 581.152 1581.73 574.542 1573.47 572.329L1312.23 502.33C1303.97 500.118 1295.17 502.668 1289.37 508.951L1031.63 788.341C1028.32 791.935 1026.23 796.492 1025.68 801.35L977.119 1230.43C976.429 1236.53 978.204 1242.65 982.05 1247.43L1174.42 1486.65Z" stroke="url(#paint8_linear_89_275)" stroke-width="4"/>
<path opacity="0.144928" d="M1128.54 1474C1134.4 1482.09 1144.81 1485.47 1154.31 1482.37L1443.89 1387.76C1449.74 1385.85 1454.57 1381.69 1457.32 1376.19L1648.58 993.824C1650.78 989.436 1651.51 984.462 1650.68 979.628L1586.7 608.493C1585.25 600.081 1579.26 593.164 1571.14 590.526L1315.52 507.471C1307.41 504.833 1298.49 506.908 1292.38 512.861L1022.47 775.511C1018.96 778.933 1016.63 783.389 1015.82 788.228L945.806 1209.99C944.799 1216.05 946.261 1222.27 949.866 1227.24L1128.54 1474Z" stroke="url(#paint9_linear_89_275)" stroke-width="4"/>
<path opacity="0.15942" d="M1083.61 1460.2C1089.04 1468.55 1099.22 1472.46 1108.84 1469.88L1400.89 1391.69C1406.83 1390.1 1411.89 1386.19 1414.93 1380.84L1624.03 1012.86C1626.47 1008.58 1627.46 1003.63 1626.87 998.741L1582.24 628.32C1581.22 619.858 1575.6 612.653 1567.65 609.599L1318.3 513.882C1310.34 510.828 1301.34 512.424 1294.92 518.03L1013.89 763.441C1010.19 766.679 1007.62 771.021 1006.56 775.829L915.721 1189.21C914.4 1195.22 915.544 1201.51 918.898 1206.68L1083.61 1460.2Z" stroke="url(#paint10_linear_89_275)" stroke-width="4"/>
<path opacity="0.173913" d="M1039.69 1445.31C1044.68 1453.9 1054.61 1458.32 1064.32 1456.27L1357.9 1394.5C1363.94 1393.23 1369.21 1389.59 1372.53 1384.4L1598.5 1031.6C1601.16 1027.44 1602.42 1022.54 1602.07 1017.61L1576.53 648.898C1575.95 640.408 1570.72 632.937 1562.94 629.475L1320.48 521.524C1312.71 518.062 1303.66 519.176 1296.95 524.42L1005.86 752.155C1001.97 755.199 999.162 759.415 997.853 764.178L886.875 1168.17C885.241 1174.11 886.064 1180.47 889.158 1185.8L1039.69 1445.31Z" stroke="url(#paint11_linear_89_275)" stroke-width="4"/>
<path opacity="0.188406" d="M996.837 1429.4C1001.37 1438.2 1011.02 1443.12 1020.8 1441.61L1315 1396.19C1321.11 1395.24 1326.58 1391.89 1330.18 1386.87L1571.99 1050.01C1574.88 1045.98 1576.4 1041.13 1576.31 1036.18L1569.56 670.15C1569.4 661.655 1564.58 653.938 1557 650.081L1322.02 530.35C1314.45 526.493 1305.37 527.123 1298.4 531.99L998.319 741.677C994.255 744.516 991.218 748.592 989.659 753.298L859.271 1146.93C857.329 1152.79 857.827 1159.19 860.653 1164.68L996.837 1429.4Z" stroke="url(#paint12_linear_89_275)" stroke-width="4"/>
<path opacity="0.202899" d="M955.088 1412.54C959.153 1421.52 968.499 1426.92 978.316 1425.95L1272.25 1396.78C1278.4 1396.17 1284.05 1393.1 1287.92 1388.27L1544.55 1068.03C1547.66 1064.15 1549.43 1059.37 1549.59 1054.39L1561.29 692C1561.56 683.522 1557.14 675.581 1549.8 671.34L1322.86 540.315C1315.51 536.073 1306.42 536.22 1299.22 540.696L991.226 732.024C987.001 734.65 983.74 738.574 981.933 743.209L832.911 1125.57C830.665 1131.34 830.835 1137.76 833.384 1143.4L955.088 1412.54Z" stroke="url(#paint13_linear_89_275)" stroke-width="4"/>
<path opacity="0.217391" d="M914.487 1394.79C918.082 1403.95 927.098 1409.8 936.921 1409.36L1229.69 1396.29C1235.88 1396.01 1241.7 1393.25 1245.82 1388.62L1516.19 1085.62C1519.51 1081.9 1521.53 1077.19 1521.95 1072.21L1551.69 714.37C1552.4 705.93 1548.4 697.788 1541.3 693.175L1322.93 551.366C1315.83 546.754 1306.77 546.418 1299.34 550.492L984.536 723.216C980.159 725.618 976.682 729.379 974.63 733.931L807.792 1104.16C805.246 1109.81 805.088 1116.25 807.353 1122.02L914.487 1394.79Z" stroke="url(#paint14_linear_89_275)" stroke-width="4"/>
<path opacity="0.231884" d="M875.071 1376.24C878.19 1385.53 886.853 1391.83 896.653 1391.92L1187.39 1394.73C1193.59 1394.79 1199.56 1392.34 1203.94 1387.94L1486.94 1102.72C1490.47 1099.17 1492.74 1094.55 1493.41 1089.59L1540.77 737.181C1541.89 728.801 1538.33 720.48 1531.49 715.51L1322.2 563.453C1315.36 558.483 1306.35 557.667 1298.72 561.327L978.2 715.266C973.682 717.435 969.997 721.021 967.704 725.477L783.906 1082.77C781.066 1088.29 780.578 1094.72 782.554 1100.61L875.071 1376.24Z" stroke="url(#paint15_linear_89_275)" stroke-width="4"/>
<path opacity="0.246377" d="M836.872 1356.96C839.51 1366.36 847.799 1373.07 857.546 1373.7L1145.39 1392.15C1151.6 1392.55 1157.7 1390.41 1162.31 1386.24L1456.84 1119.3C1460.57 1115.92 1463.09 1111.42 1464.01 1106.47L1528.49 760.352C1530.04 752.055 1526.91 743.577 1520.35 738.266L1320.61 576.519C1314.05 571.207 1305.11 569.915 1297.32 573.152L972.168 708.185C967.523 710.115 963.638 713.514 961.109 717.862L761.241 1061.46C758.114 1066.83 757.298 1073.25 758.977 1079.24L836.872 1356.96Z" stroke="url(#paint16_linear_89_275)" stroke-width="4"/>
<path opacity="0.26087" d="M799.919 1337.01C802.073 1346.5 809.968 1353.61 819.633 1354.76L1103.76 1388.55C1109.94 1389.29 1116.16 1387.49 1121 1383.55L1425.93 1135.3C1429.85 1132.12 1432.6 1127.73 1433.78 1122.82L1514.86 783.807C1516.82 775.613 1514.14 767.003 1507.88 761.365L1318.12 590.507C1311.86 584.869 1303.02 583.106 1295.07 585.912L966.395 701.984C961.634 703.666 957.559 706.867 954.797 711.095L739.784 1040.31C736.378 1045.52 735.233 1051.9 736.611 1057.97L799.919 1337.01Z" stroke="url(#paint17_linear_89_275)" stroke-width="4"/>
<path opacity="0.275362" d="M764.235 1316.48C765.902 1326.04 773.384 1333.52 782.938 1335.19L1062.53 1383.98C1068.68 1385.05 1075 1383.58 1080.04 1379.9L1394.24 1150.7C1398.33 1147.71 1401.32 1143.45 1402.75 1138.59L1499.87 807.466C1502.24 799.395 1500.01 790.676 1494.06 784.729L1314.69 605.357C1308.74 599.41 1300.02 597.183 1291.95 599.55L960.831 696.669C955.967 698.095 951.711 701.089 948.723 705.184L719.515 1019.38C715.837 1024.42 714.366 1030.74 715.439 1036.89L764.235 1316.48Z" stroke="url(#paint18_linear_89_275)" stroke-width="4"/>
<path opacity="0.289855" d="M729.84 1295.45C731.021 1305.04 738.071 1312.87 747.486 1315.05L1021.77 1378.46C1027.86 1379.87 1034.26 1378.74 1039.5 1375.33L1361.8 1165.44C1366.07 1162.66 1369.29 1158.55 1370.97 1153.74L1483.52 831.25C1486.29 823.323 1484.52 814.52 1478.9 808.281L1310.28 621.01C1304.66 614.772 1296.09 612.089 1287.92 614.012L955.429 692.243C950.476 693.408 946.048 696.184 942.841 700.134L700.414 998.731C696.473 1003.58 694.678 1009.83 695.442 1016.04L729.84 1295.45Z" stroke="url(#paint19_linear_89_275)" stroke-width="4"/>
<path opacity="0.304348" d="M696.746 1273.98C697.441 1283.59 704.044 1291.74 713.293 1294.42L981.505 1372.03C987.521 1373.77 993.987 1372.98 999.41 1369.85L1328.67 1179.49C1333.09 1176.94 1336.54 1172.98 1338.46 1168.25L1465.83 855.082C1468.98 847.32 1467.67 838.455 1462.4 831.943L1304.86 637.403C1299.59 630.891 1291.19 627.762 1282.94 629.236L950.138 688.708C945.109 689.606 940.522 692.154 937.101 695.949L682.451 978.436C678.258 983.088 676.143 989.249 676.595 995.496L696.746 1273.98Z" stroke="url(#paint20_linear_89_275)" stroke-width="4"/>
<path opacity="0.318841" d="M664.967 1252.17C665.178 1261.76 671.319 1270.21 680.374 1273.37L941.789 1364.72C947.712 1366.79 954.224 1366.35 959.815 1363.5L1294.88 1192.83C1299.45 1190.5 1303.11 1186.71 1305.28 1182.06L1446.79 878.885C1450.33 871.307 1449.47 862.405 1444.56 855.638L1298.4 654.472C1293.49 647.706 1285.28 644.142 1276.98 645.164L944.914 686.062C939.822 686.689 935.087 689 931.46 692.628L665.601 958.551C661.165 962.988 658.734 969.046 658.872 975.319L664.967 1252.17Z" stroke="url(#paint21_linear_89_275)" stroke-width="4"/>
<path opacity="0.333333" d="M634.505 1230.07C634.235 1239.63 639.901 1248.35 648.736 1251.99L902.659 1356.57C908.471 1358.97 915.01 1358.88 920.755 1356.33L1260.47 1205.41C1265.18 1203.32 1269.05 1199.71 1271.46 1195.16L1426.43 902.585C1430.34 895.208 1429.94 886.294 1425.39 879.293L1290.87 672.154C1286.33 665.153 1278.35 661.165 1270.02 661.734L939.705 684.302C934.566 684.653 929.694 686.719 925.869 690.169L649.829 939.136C645.161 943.346 642.42 949.284 642.243 955.567L634.505 1230.07Z" stroke="url(#paint22_linear_89_275)" stroke-width="4"/>
<path opacity="0.347826" d="M605.363 1207.78C604.618 1217.27 609.796 1226.24 618.387 1230.34L864.156 1347.63C869.84 1350.34 876.387 1350.6 882.27 1348.36L1225.5 1217.22C1230.34 1215.37 1234.4 1211.95 1237.05 1207.51L1404.76 926.107C1409.03 918.95 1409.09 910.047 1404.92 902.832L1282.26 690.381C1278.1 683.166 1270.36 678.768 1262.03 678.883L934.469 683.421C929.297 683.492 924.3 685.305 920.285 688.567L635.102 920.248C630.214 924.219 627.168 930.021 626.675 936.299L605.363 1207.78Z" stroke="url(#paint23_linear_89_275)" stroke-width="4"/>
<path opacity="0.362319" d="M577.537 1185.37C576.323 1194.77 581.003 1203.96 589.324 1208.5L826.313 1337.93C831.851 1340.95 838.388 1341.57 844.393 1339.63L1190.01 1228.22C1194.96 1226.63 1199.22 1223.41 1202.1 1219.08L1381.81 949.378C1386.42 942.459 1386.93 933.591 1383.16 926.183L1272.55 709.089C1268.77 701.681 1261.29 696.886 1252.98 696.549L929.156 683.41C923.966 683.199 918.857 684.752 914.661 687.815L621.378 901.941C616.282 905.661 612.938 911.312 612.13 917.57L577.537 1185.37Z" stroke="url(#paint24_linear_89_275)" stroke-width="4"/>
<path opacity="0.376812" d="M551.019 1162.91C549.342 1172.2 553.515 1181.58 561.544 1186.55L789.164 1327.51C794.539 1330.84 801.046 1331.81 807.158 1330.2L1154.05 1238.39C1159.09 1237.06 1163.53 1234.05 1166.64 1229.86L1357.6 972.33C1362.54 965.665 1363.51 956.855 1360.13 949.276L1261.71 728.211C1258.33 720.632 1251.14 715.457 1242.88 714.67L923.722 684.258C918.528 683.763 913.321 685.049 908.954 687.904L608.618 884.267C603.326 887.727 599.692 893.211 598.569 899.433L551.019 1162.91Z" stroke="url(#paint25_linear_89_275)" stroke-width="4"/>
<path opacity="0.391304" d="M525.799 1140.48C523.668 1149.64 527.328 1159.17 535.04 1164.55L752.74 1316.43C757.935 1320.06 764.395 1321.38 770.595 1320.09L1117.66 1247.72C1122.79 1246.65 1127.4 1243.86 1130.73 1239.81L1332.16 994.893C1337.42 988.498 1338.84 979.77 1335.87 972.041L1249.75 747.682C1246.78 739.953 1239.89 734.414 1231.7 733.181L918.124 685.952C912.942 685.172 907.649 686.184 903.121 688.822L596.777 867.276C591.304 870.464 587.388 875.768 585.953 881.937L525.799 1140.48Z" stroke="url(#paint26_linear_89_275)" stroke-width="4"/>
<path opacity="0.405797" d="M501.86 1118.14C499.284 1127.15 502.425 1136.81 509.801 1142.58L717.069 1304.73C722.068 1308.64 728.46 1310.31 734.733 1309.35L1080.9 1256.18C1086.11 1255.38 1090.88 1252.82 1094.42 1248.93L1305.53 1017C1311.09 1010.89 1312.95 1002.27 1310.4 994.412L1236.65 767.435C1234.1 759.578 1227.53 753.693 1219.44 752.019L912.317 688.476C907.162 687.409 901.798 688.143 897.119 690.555L585.81 851.013C580.169 853.921 575.98 859.03 574.234 865.132L501.86 1118.14Z" stroke="url(#paint27_linear_89_275)" stroke-width="4"/>
<path opacity="0.42029" d="M479.18 1095.98C476.171 1104.8 478.789 1114.57 485.808 1120.71L682.174 1292.46C686.96 1296.64 693.266 1298.66 699.594 1298.03L1043.82 1263.76C1049.08 1263.24 1054 1260.92 1057.75 1257.19L1277.75 1038.59C1283.6 1032.78 1285.89 1024.29 1283.76 1016.33L1222.42 787.404C1220.28 779.442 1214.05 773.23 1206.08 771.122L906.259 691.811C901.147 690.459 895.725 690.909 890.907 693.086L575.666 835.522C569.871 838.141 565.419 843.041 563.366 849.06L479.18 1095.98Z" stroke="url(#paint28_linear_89_275)" stroke-width="4"/>
<path opacity="0.434783" d="M457.739 1074.05C454.308 1082.68 456.401 1092.52 463.044 1099.01L648.079 1279.65C652.638 1284.1 658.839 1286.46 665.204 1286.17L1006.46 1270.45C1011.77 1270.21 1016.83 1268.13 1020.78 1264.58L1248.86 1059.61C1254.97 1054.11 1257.69 1045.76 1255.98 1037.72L1207.05 807.525C1205.34 799.48 1199.46 792.96 1191.64 790.426L899.911 695.937C894.857 694.3 889.393 694.463 884.446 696.398L566.296 820.844C560.362 823.165 555.657 827.843 553.302 833.764L457.739 1074.05Z" stroke="url(#paint29_linear_89_275)" stroke-width="4"/>
<path opacity="0.449275" d="M437.508 1052.43C433.668 1060.84 435.234 1070.73 441.484 1077.54L614.801 1266.37C619.118 1271.07 625.196 1273.77 631.58 1273.82L968.889 1276.24C974.226 1276.28 979.41 1274.46 983.553 1271.1L1218.89 1079.99C1225.26 1074.81 1228.39 1066.64 1227.11 1058.53L1190.55 827.732C1189.27 819.628 1183.77 812.821 1176.11 809.869L893.232 700.833C888.252 698.914 882.759 698.786 877.695 700.472L557.646 807.015C551.588 809.031 546.642 813.475 543.989 819.282L437.508 1052.43Z" stroke="url(#paint30_linear_89_275)" stroke-width="4"/>
<path opacity="0.463768" d="M418.454 1031.18C414.219 1039.35 415.26 1049.26 421.101 1056.37L582.357 1252.66C586.418 1257.6 592.354 1260.63 598.74 1261.02L931.143 1281.13C936.496 1281.46 941.794 1279.9 946.121 1276.73L1187.91 1099.67C1194.51 1094.84 1198.05 1086.85 1197.19 1078.71L1172.94 847.963C1172.08 839.821 1166.96 832.748 1159.5 829.391L886.185 706.474C881.293 704.274 875.788 703.853 870.619 705.283L549.661 794.068C543.496 795.774 538.319 799.97 535.374 805.65L418.454 1031.18Z" stroke="url(#paint31_linear_89_275)" stroke-width="4"/>
<path opacity="0.478261" d="M400.545 1010.36C395.93 1018.27 396.448 1028.17 401.865 1035.56L550.76 1238.57C554.552 1243.74 560.328 1247.09 566.697 1247.82L893.279 1285.11C898.633 1285.72 904.032 1284.43 908.534 1281.47L1155.95 1118.62C1162.77 1114.13 1166.7 1106.36 1166.27 1098.21L1154.22 868.155C1153.79 860 1149.07 852.682 1141.81 848.93L878.733 712.834C873.946 710.358 868.442 709.641 863.181 710.809L542.287 782.035C536.029 783.424 530.634 787.362 527.404 792.899L400.545 1010.36Z" stroke="url(#paint32_linear_89_275)" stroke-width="4"/>
<path opacity="0.492754" d="M383.743 990.04C378.763 997.676 378.763 1007.53 383.743 1015.17L520.023 1224.15C523.532 1229.53 529.131 1233.2 535.465 1234.27L855.349 1288.18C860.689 1289.08 866.176 1288.07 870.843 1285.32L1123.07 1136.78C1130.09 1132.64 1134.4 1125.11 1134.4 1116.96L1134.4 888.247C1134.4 880.101 1130.09 872.563 1123.07 868.429L870.843 719.886C866.176 717.138 860.689 716.125 855.349 717.025L535.465 770.942C529.131 772.01 523.532 775.678 520.023 781.059L383.743 990.04Z" stroke="url(#paint33_linear_89_275)" stroke-width="4"/>
<path opacity="0.507246" d="M368.004 970.267C362.677 977.61 362.164 987.398 366.694 995.257L490.149 1209.45C493.363 1215.03 498.768 1219 505.05 1220.41L817.401 1290.35C822.713 1291.54 828.274 1290.81 833.096 1288.28L1089.33 1154.1C1096.53 1150.33 1101.2 1143.04 1101.63 1134.93L1113.51 908.181C1113.94 900.066 1110.05 892.33 1103.29 887.828L862.48 727.6C857.949 724.585 852.494 723.274 847.087 723.902L529.136 760.812C522.742 761.555 516.951 764.943 513.171 770.154L368.004 970.267Z" stroke="url(#paint34_linear_89_275)" stroke-width="4"/>
<path opacity="0.521739" d="M353.288 951.097C347.631 958.132 346.613 967.825 350.683 975.882L461.146 1194.52C464.055 1200.28 469.249 1204.55 475.46 1206.29L779.488 1291.62C784.755 1293.1 790.378 1292.65 795.345 1290.36L1054.78 1170.55C1062.14 1167.15 1067.17 1160.13 1068.01 1152.07L1091.58 927.898C1092.42 919.838 1088.97 911.927 1082.48 907.073L853.616 735.946C849.234 732.669 843.828 731.062 838.368 731.413L523.242 751.666C516.805 752.08 510.837 755.178 506.794 760.206L353.288 951.097Z" stroke="url(#paint35_linear_89_275)" stroke-width="4"/>
<path opacity="0.536232" d="M339.548 932.583C333.579 939.294 332.063 948.866 335.666 957.093L433.016 1179.41C435.609 1185.33 440.575 1189.89 446.697 1191.96L741.658 1292C746.867 1293.76 752.536 1293.61 757.638 1291.55L1019.49 1186.09C1026.98 1183.07 1032.35 1176.33 1033.61 1168.35L1068.61 947.342C1069.88 939.359 1066.86 931.298 1060.66 926.11L844.221 744.891C840.004 741.36 834.661 739.457 829.161 739.528L517.723 743.52C511.259 743.603 505.128 746.402 500.832 751.233L339.548 932.583Z" stroke="url(#paint36_linear_89_275)" stroke-width="4"/>
<path opacity="0.550725" d="M326.733 914.771C320.471 921.146 318.468 930.57 321.595 938.94L405.756 1164.16C408.024 1170.23 412.746 1175.06 418.762 1177.47L703.96 1291.5C709.095 1293.55 714.797 1293.69 720.023 1291.88L983.5 1200.68C991.118 1198.04 996.799 1191.61 998.475 1183.72L1044.66 966.462C1046.33 958.577 1043.76 950.391 1037.87 944.884L834.266 754.402C830.229 750.624 824.965 748.427 819.439 748.214L512.517 736.386C506.043 736.136 499.764 738.629 495.224 743.251L326.733 914.771Z" stroke="url(#paint37_linear_89_275)" stroke-width="4"/>
<path opacity="0.565217" d="M314.792 897.707C308.256 903.731 305.778 912.982 308.425 921.468L379.363 1148.84C381.297 1155.03 385.761 1160.13 391.653 1162.85L666.442 1290.13C671.487 1292.47 677.208 1292.9 682.545 1291.35L946.888 1214.29C954.605 1212.04 960.588 1205.93 962.668 1198.16L1019.73 985.203C1021.81 977.439 1019.69 969.153 1014.13 963.346L823.728 764.443C819.883 760.427 814.714 757.939 809.177 757.441L507.563 730.273C501.096 729.691 494.684 731.869 489.91 736.27L314.792 897.707Z" stroke="url(#paint38_linear_89_275)" stroke-width="4"/>
<path opacity="0.57971" d="M303.673 881.431C296.884 887.094 293.943 896.148 296.106 904.72L353.833 1133.47C355.426 1139.78 359.616 1145.12 365.367 1148.17L629.152 1287.92C634.092 1290.54 639.816 1291.27 645.255 1289.97L909.714 1226.9C917.51 1225.04 923.776 1219.26 926.253 1211.64L993.874 1003.52C996.351 995.897 994.681 987.535 989.467 981.448L812.585 774.981C808.947 770.735 803.888 767.96 798.353 767.173L502.801 725.188C496.358 724.272 489.829 726.129 484.833 730.298L303.673 881.431Z" stroke="url(#paint39_linear_89_275)" stroke-width="4"/>
<path opacity="0.594203" d="M293.32 865.98C286.299 871.272 282.908 880.104 284.585 888.735L329.156 1118.12C330.4 1124.52 334.303 1130.09 339.895 1133.45L592.133 1284.88C596.954 1287.77 602.667 1288.8 608.194 1287.77L872.04 1238.49C879.895 1237.02 886.426 1231.59 889.289 1224.13L967.123 1021.36C969.986 1013.9 968.773 1005.49 963.917 999.144L800.814 785.977C797.397 781.512 792.463 778.453 786.945 777.378L498.17 721.131C491.768 719.884 485.138 721.413 479.93 725.339L293.32 865.98Z" stroke="url(#paint40_linear_89_275)" stroke-width="4"/>
<path opacity="0.608696" d="M283.676 851.39C276.443 856.301 272.62 864.889 273.81 873.55L305.32 1102.82C306.21 1109.3 309.813 1115.09 315.23 1118.75L555.431 1281.03C560.117 1284.2 565.805 1285.52 571.408 1284.76L833.931 1249.04C841.825 1247.97 848.601 1242.88 851.842 1235.6L939.514 1038.69C942.754 1031.41 941.997 1022.98 937.513 1016.39L788.397 797.395C785.215 792.721 780.422 789.383 774.934 788.019L493.609 718.101C487.265 716.525 480.55 717.722 475.142 721.394L283.676 851.39Z" stroke="url(#paint41_linear_89_275)" stroke-width="4"/>
<path opacity="0.623188" d="M274.684 837.69C267.26 842.212 263.02 850.533 263.725 859.198L282.311 1087.63C282.843 1094.16 286.134 1100.15 291.359 1104.1L519.089 1276.4C523.625 1279.83 529.272 1281.46 534.939 1280.97L795.454 1258.53C803.366 1257.85 810.368 1253.13 813.973 1246.06L911.088 1055.46C914.694 1048.38 914.393 1039.95 910.294 1033.15L775.319 809.196C772.383 804.324 767.746 800.713 762.303 799.061L489.059 716.095C482.79 714.191 476.006 715.051 470.411 718.46L274.684 837.69Z" stroke="url(#paint42_linear_89_275)" stroke-width="4"/>
<path opacity="0.637681" d="M266.282 824.906C258.689 829.032 254.051 837.067 254.273 845.706L260.115 1072.57C260.284 1079.14 263.251 1085.32 268.268 1089.55L483.146 1271C487.518 1274.69 493.109 1276.62 498.828 1276.41L756.672 1266.96C764.584 1266.67 771.79 1262.33 775.748 1255.47L881.888 1071.63C885.846 1064.78 886 1056.37 882.296 1049.37L761.564 821.342C758.887 816.285 754.42 812.407 749.037 810.467L484.459 715.101C478.281 712.874 471.446 713.395 465.677 716.531L266.282 824.906Z" stroke="url(#paint43_linear_89_275)" stroke-width="4"/>
<path opacity="0.652174" d="M258.412 813.061C250.672 816.786 245.654 824.514 245.398 833.1L238.712 1057.71C238.516 1064.29 241.149 1070.64 245.943 1075.14L447.643 1264.88C451.837 1268.83 457.357 1271.05 463.114 1271.13L717.653 1274.31C725.543 1274.41 732.933 1270.46 737.23 1263.84L851.958 1087.17C856.255 1080.56 856.86 1072.2 853.561 1065.03L747.122 833.793C744.714 828.563 740.433 824.426 735.123 822.2L479.752 715.11C473.682 712.564 466.813 712.741 460.882 715.596L258.412 813.061Z" stroke="url(#paint44_linear_89_275)" stroke-width="4"/>
<path opacity="0.666667" d="M251.012 802.173C243.148 805.494 237.769 812.897 237.041 821.402L218.083 1043.07C217.521 1049.64 219.809 1056.14 224.365 1060.91L412.618 1258.06C416.619 1262.25 422.053 1264.77 427.836 1265.13L678.462 1280.59C686.311 1281.07 693.863 1277.51 698.486 1271.15L821.344 1102.05C825.966 1095.69 827.018 1087.41 824.132 1080.09L731.982 846.51C729.855 841.121 725.774 836.733 720.553 834.222L474.882 716.105C468.936 713.246 462.048 713.078 455.97 715.645L251.012 802.173Z" stroke="url(#paint45_linear_89_275)" stroke-width="4"/>
<path opacity="0.681159" d="M244.02 792.26C236.053 795.171 230.335 802.232 229.143 810.631L198.205 1028.69C197.276 1035.24 199.21 1041.87 203.514 1046.89L378.104 1250.57C381.899 1255 387.233 1257.82 393.028 1258.46L639.163 1285.8C646.951 1286.66 654.644 1283.5 659.576 1277.41L790.092 1116.24C795.024 1110.15 796.515 1101.97 794.05 1094.53L716.135 859.454C714.301 853.92 710.433 849.289 705.315 846.498L469.791 718.069C463.985 714.903 457.097 714.389 450.885 716.659L244.02 792.26Z" stroke="url(#paint46_linear_89_275)" stroke-width="4"/>
<path opacity="0.695652" d="M237.375 783.33C229.326 785.831 223.291 792.535 221.644 800.8L179.052 1014.62C177.757 1021.12 179.33 1027.87 183.368 1033.12L344.137 1242.44C347.712 1247.1 352.93 1250.21 358.724 1251.14L599.82 1289.94C607.529 1291.18 615.341 1288.42 620.566 1282.62L758.251 1129.7C763.476 1123.9 765.4 1115.84 763.361 1108.31L699.578 872.585C698.045 866.92 694.405 862.056 689.403 858.987L464.425 720.979C458.774 717.513 451.902 716.653 445.572 718.621L237.375 783.33Z" stroke="url(#paint47_linear_89_275)" stroke-width="4"/>
<path opacity="0.710145" d="M231.013 775.392C222.906 777.483 216.575 783.813 214.484 791.921L160.6 1000.89C158.94 1007.32 160.145 1014.16 163.904 1019.64L310.747 1233.72C314.088 1238.59 319.176 1241.99 324.956 1243.21L560.496 1293.02C568.107 1294.63 576.016 1292.28 581.517 1286.78L725.871 1142.42C731.372 1136.92 733.719 1129.01 732.11 1121.4L682.307 885.863C681.084 880.084 677.685 874.996 672.814 871.654L458.731 724.812C453.251 721.053 446.413 719.848 439.978 721.507L231.013 775.392Z" stroke="url(#paint48_linear_89_275)" stroke-width="4"/>
<path opacity="0.724638" d="M224.875 768.45C216.731 770.13 210.128 776.076 207.605 783.999L142.82 987.522C140.8 993.869 141.631 1000.78 145.098 1006.47L277.963 1224.44C281.059 1229.52 286.002 1233.2 291.754 1234.71L521.254 1295.05C528.75 1297.02 536.734 1295.09 542.493 1289.9L693.001 1154.38C698.76 1149.2 701.521 1141.46 700.344 1133.8L664.32 899.249C663.417 893.371 660.272 888.07 655.545 884.461L452.66 729.539C447.365 725.497 440.578 723.948 434.054 725.294L224.875 768.45Z" stroke="url(#paint49_linear_89_275)" stroke-width="4"/>
<path opacity="0.73913" d="M218.898 762.504C210.739 763.775 203.888 769.323 200.948 777.04L125.685 974.559C123.307 980.799 123.759 987.765 126.923 993.646L245.814 1214.63C248.652 1219.9 253.434 1223.86 259.146 1225.67L482.156 1296.06C489.518 1298.39 497.555 1296.86 503.554 1292L659.692 1165.56C665.692 1160.71 668.854 1153.16 668.112 1145.48L645.621 912.705C645.045 906.743 642.166 901.242 637.597 897.37L446.161 735.132C441.067 730.814 434.347 728.924 427.749 729.952L218.898 762.504Z" stroke="url(#paint50_linear_89_275)" stroke-width="4"/>
<path opacity="0.753623" d="M213.021 757.549C204.869 758.415 197.793 763.556 194.45 771.042L109.161 962.028C106.431 968.141 106.5 975.139 109.35 981.197L214.322 1204.34C216.89 1209.8 221.498 1214.03 227.155 1216.12L443.26 1296.06C450.471 1298.73 458.538 1297.62 464.758 1293.1L625.995 1175.95C632.215 1171.43 635.766 1164.1 635.458 1156.42L626.209 926.189C625.967 920.163 623.367 914.473 618.97 910.345L439.188 741.555C434.308 736.973 427.673 734.745 421.016 735.452L213.021 757.549Z" stroke="url(#paint51_linear_89_275)" stroke-width="4"/>
<path opacity="0.768116" d="M207.186 753.579C199.06 754.044 191.786 758.768 188.056 766.002L93.2173 949.956C90.1419 955.921 89.8254 962.932 92.3508 969.15L183.51 1193.6C185.796 1199.23 190.216 1203.73 195.805 1206.11L404.623 1295.07C411.667 1298.08 419.743 1297.37 426.164 1293.2L591.961 1185.53C598.383 1181.36 602.308 1174.27 602.432 1166.62L606.092 939.666C606.19 933.592 603.881 927.726 599.669 923.348L431.697 748.776C427.044 743.94 420.51 741.377 413.81 741.76L207.186 753.579Z" stroke="url(#paint52_linear_89_275)" stroke-width="4"/>
<path opacity="0.782609" d="M201.332 750.584C193.255 750.652 185.806 754.953 181.708 761.914L77.8212 938.367C74.4076 944.165 73.704 951.167 75.8958 957.528L153.399 1182.47C155.392 1188.26 159.61 1193.01 165.118 1195.68L366.302 1293.13C373.164 1296.45 381.226 1296.16 387.829 1292.35L557.642 1194.31C564.245 1190.49 568.529 1183.66 569.082 1176.05L585.278 953.098C585.721 946.994 583.714 940.965 579.699 936.345L423.645 756.755C419.232 751.676 412.816 748.784 406.088 748.842L201.332 750.584Z" stroke="url(#paint53_linear_89_275)" stroke-width="4"/>
<path opacity="0.797101" d="M195.404 748.548C187.396 748.227 179.797 752.098 175.35 758.766L62.9388 927.284C59.1956 932.896 58.1045 939.867 59.9542 946.354L124.005 1170.98C125.696 1176.91 129.697 1181.91 135.111 1184.86L328.351 1290.26C335.015 1293.89 343.043 1294 349.806 1290.56L523.089 1202.26C529.852 1198.82 534.479 1192.26 535.456 1184.73L563.775 966.447C564.568 960.332 562.873 954.154 559.07 949.301L414.994 765.452C410.833 760.143 404.552 756.928 397.812 756.658L195.404 748.548Z" stroke="url(#paint54_linear_89_275)" stroke-width="4"/>
<path opacity="0.811594" d="M189.344 747.454C181.424 746.751 173.702 750.189 168.925 756.545L48.5337 916.729C44.4706 922.135 42.9926 929.055 44.4928 935.649L95.3427 1159.17C96.7212 1165.23 100.493 1170.47 105.799 1173.71L290.82 1286.48C297.272 1290.42 305.244 1290.93 312.146 1287.86L488.352 1209.41C495.254 1206.33 500.207 1200.06 501.601 1192.64L541.594 979.677C542.741 973.57 541.368 967.258 537.788 962.18L405.706 774.827C401.809 769.3 395.677 765.768 388.941 765.17L189.344 747.454Z" stroke="url(#paint55_linear_89_275)" stroke-width="4"/>
<path opacity="0.826087" d="M183.098 747.282C175.285 746.205 167.465 749.207 162.379 755.235L34.5702 906.719C30.1979 911.901 28.335 918.748 29.479 925.431L67.4239 1147.09C68.4807 1153.26 72.0095 1158.74 77.195 1162.25L253.759 1281.85C259.985 1286.07 267.88 1286.98 274.9 1284.28L453.48 1215.73C460.501 1213.04 465.76 1207.08 467.565 1199.78L518.748 992.754C520.252 986.674 519.21 980.244 515.865 974.949L395.745 784.835C392.124 779.103 386.157 775.261 379.441 774.335L183.098 747.282Z" stroke="url(#paint56_linear_89_275)" stroke-width="4"/>
<path opacity="0.84058" d="M176.613 748.007C168.926 746.567 161.034 749.131 155.662 754.815L21.0127 897.27C16.3431 902.21 14.0982 908.963 14.8805 915.716L40.259 1134.78C40.9857 1141.05 44.2588 1146.75 49.311 1150.54L217.214 1276.4C223.202 1280.89 230.999 1282.18 238.117 1279.87L418.525 1221.25C425.642 1218.94 431.189 1213.31 433.395 1206.16L495.253 1005.64C497.115 999.61 496.414 993.077 493.315 987.576L385.083 795.43C381.746 789.507 375.961 785.363 369.279 784.111L176.613 748.007Z" stroke="url(#paint57_linear_89_275)" stroke-width="4"/>
<path opacity="0.855072" d="M169.839 749.604C162.296 747.81 154.357 749.938 148.722 755.263L7.82409 888.397C2.87011 893.078 0.247387 899.715 0.663287 906.518L13.8551 1122.29C14.2435 1128.65 17.2486 1134.56 22.1548 1138.61L181.229 1270.16C186.967 1274.91 194.647 1276.58 201.839 1274.65L383.533 1225.97C390.725 1224.04 396.54 1218.75 399.136 1211.77L471.125 1018.31C473.346 1012.35 472.993 1005.73 470.153 1000.03L373.689 806.566C370.648 800.466 365.058 796.03 358.427 794.453L169.839 749.604Z" stroke="url(#paint58_linear_89_275)" stroke-width="4"/>
<path opacity="0.869565" d="M162.729 752.042C155.347 749.907 147.386 751.599 141.511 756.552L-5.03238 880.11C-10.2568 884.515 -13.2519 891.015 -13.206 897.849L-11.7831 1109.67C-11.74 1116.09 -9.01511 1122.2 -4.26745 1126.52L145.845 1263.18C151.322 1268.17 158.866 1270.21 166.111 1268.67L348.554 1229.89C355.8 1228.35 361.86 1223.42 364.835 1216.64L446.383 1030.73C448.962 1024.85 448.966 1018.16 446.394 1012.28L361.54 818.194C358.803 811.932 353.423 807.213 346.858 805.313L162.729 752.042Z" stroke="url(#paint59_linear_89_275)" stroke-width="4"/>
<path opacity="0.884058" d="M155.234 755.29C148.03 752.825 140.072 754.085 133.982 758.656L-17.595 872.419C-23.075 876.532 -26.436 882.874 -26.7626 889.718L-36.6544 1096.94C-36.9632 1103.41 -34.5304 1109.71 -29.9535 1114.3L111.1 1255.51C116.306 1260.72 123.694 1263.13 130.971 1261.98L313.633 1233.04C320.909 1231.89 327.193 1227.32 330.534 1220.76L421.045 1042.86C423.982 1037.09 424.349 1030.35 422.056 1024.29L348.612 830.265C346.187 823.857 341.03 818.864 334.548 816.646L155.234 755.29Z" stroke="url(#paint60_linear_89_275)" stroke-width="4"/>
<path opacity="0.898551" d="M147.313 759.312C140.301 756.531 132.371 757.364 126.091 761.543L-29.9009 865.331C-35.6205 869.137 -39.3395 875.3 -40.0403 882.134L-60.7591 1084.17C-61.4257 1090.68 -59.2961 1097.15 -54.9021 1101.99L77.0278 1247.19C81.9543 1252.62 89.1692 1255.37 96.455 1254.6L278.814 1235.43C286.1 1234.67 292.585 1230.48 296.276 1224.15L395.133 1054.69C398.426 1049.04 399.162 1042.27 397.159 1036.05L334.886 842.728C332.78 836.189 327.861 830.934 321.475 828.4L147.313 759.312Z" stroke="url(#paint61_linear_89_275)" stroke-width="4"/>
<path opacity="0.913043" d="M138.922 764.072C132.118 760.988 124.24 761.401 117.795 765.179L-41.9882 858.851C-47.9306 862.334 -51.9988 868.298 -53.0742 875.102L-84.1013 1071.4C-85.1307 1077.91 -83.3153 1084.55 -79.116 1089.64L43.6603 1238.27C48.2988 1243.89 55.3231 1246.98 62.5967 1246.6L244.139 1237.08C251.413 1236.7 258.076 1232.9 262.102 1226.83L368.669 1066.17C372.314 1060.68 373.425 1053.88 371.721 1047.51L320.345 855.532C318.564 848.877 313.895 843.372 307.621 840.528L138.922 764.072Z" stroke="url(#paint62_linear_89_275)" stroke-width="4"/>
<path opacity="0.927536" d="M130.025 769.53C123.442 766.159 115.64 766.159 109.057 769.53L-53.892 852.979C-60.0394 856.128 -64.4467 861.872 -65.896 868.624L-106.684 1058.66C-108.081 1065.17 -106.59 1071.96 -102.597 1077.29L11.0276 1228.81C15.3712 1234.6 22.1885 1238.01 29.4284 1238.01L209.654 1238.01C216.894 1238.01 223.711 1234.6 228.054 1228.81L341.679 1077.29C345.672 1071.96 347.163 1065.17 345.766 1058.66L304.978 868.624C303.529 861.872 299.121 856.128 292.974 852.979L130.025 769.53Z" stroke="url(#paint63_linear_89_275)" stroke-width="4"/>
<path opacity="0.942029" d="M120.586 775.646C114.237 772.003 106.533 771.599 99.8384 774.559L-65.6506 847.718C-71.9844 850.518 -76.7193 856.023 -78.5409 862.705L-128.518 1046.01C-130.285 1052.49 -129.129 1059.42 -125.354 1064.98L-20.8465 1218.84C-16.8039 1224.79 -10.2091 1228.51 -3.02414 1228.89L175.395 1238.24C182.579 1238.61 189.527 1235.61 194.169 1230.11L314.186 1088.02C318.522 1082.88 320.397 1076.11 319.316 1069.48L288.774 881.955C287.661 875.12 283.527 869.15 277.521 865.703L120.586 775.646Z" stroke="url(#paint64_linear_89_275)" stroke-width="4"/>
<path opacity="0.956522" d="M110.571 782.376C104.468 778.477 96.885 777.68 90.1047 780.225L-77.3003 843.065C-83.801 845.505 -88.8514 850.752 -91.0423 857.341L-149.612 1033.48C-151.753 1039.92 -150.941 1046.97 -147.394 1052.76L-51.9404 1208.43C-48.2038 1214.52 -41.8462 1218.53 -34.7371 1219.28L141.4 1237.79C148.509 1238.54 155.561 1235.94 160.483 1230.76L286.217 1098.33C290.89 1093.41 293.15 1086.68 292.395 1079.93L271.726 895.469C270.953 888.569 267.104 882.387 261.253 878.648L110.571 782.376Z" stroke="url(#paint65_linear_89_275)" stroke-width="4"/>
<path opacity="0.971014" d="M99.952 789.676C94.1056 785.538 86.6648 784.359 79.8256 786.489L-88.8759 839.016C-95.5234 841.085 -100.876 846.055 -103.432 852.531L-169.979 1021.11C-172.495 1027.49 -172.037 1034.65 -168.729 1040.66L-82.235 1197.63C-78.8083 1203.85 -72.7016 1208.13 -65.6887 1209.24L107.706 1236.71C114.719 1237.82 121.851 1235.63 127.032 1230.77L257.8 1108.21C262.801 1103.53 265.451 1096.85 265.027 1090.01L253.832 909.116C253.402 902.167 249.848 895.787 244.165 891.764L99.952 789.676Z" stroke="url(#paint66_linear_89_275)" stroke-width="4"/>
<path opacity="0.985507" d="M88.7025 797.501C83.1223 793.14 75.8442 791.593 68.9727 793.307L-100.412 835.564C-107.185 837.254 -112.825 841.928 -115.741 848.27L-189.633 1008.95C-192.527 1015.24 -192.431 1022.51 -189.372 1028.72L-111.715 1186.49C-108.601 1192.81 -102.758 1197.36 -95.8613 1198.83L74.3465 1235.01C81.2431 1236.47 88.4311 1234.69 93.8486 1230.18L228.962 1117.64C234.283 1113.21 237.324 1106.61 237.24 1099.69L235.092 922.842C235.007 915.862 231.757 909.298 226.256 904.999L88.7025 797.501Z" stroke="url(#paint67_linear_89_275)" stroke-width="4"/>
<path d="M76.7975 805.803C71.4921 801.237 64.3964 799.336 57.5189 800.637L-111.945 832.702C-118.822 834.003 -124.733 838.365 -128.004 844.553L-208.594 997.037C-211.864 1003.23 -212.139 1010.57 -209.34 1016.98L-140.37 1175.06C-137.571 1181.48 -132.003 1186.27 -125.242 1188.08L41.3515 1232.72C48.1125 1234.53 55.3305 1233.17 60.9622 1229.01L199.732 1126.59C205.363 1122.44 208.796 1115.94 209.058 1108.95L215.507 936.597C215.768 929.602 212.831 922.869 207.525 918.303L76.7975 805.803Z" stroke="url(#paint68_linear_89_275)" stroke-width="4"/>
<defs>
<linearGradient id="paint0_linear_89_275" x1="1583.91" y1="1550.24" x2="1400.03" y2="389.222" gradientUnits="userSpaceOnUse">
<stop stop-color="#FF1CF7"/>
<stop offset="1" stop-color="#00F0FF"/>
</linearGradient>
<linearGradient id="paint1_linear_89_275" x1="1532.15" y1="1549.5" x2="1410.36" y2="390.766" gradientUnits="userSpaceOnUse">
<stop stop-color="#FF1CF7"/>
<stop offset="1" stop-color="#00F0FF"/>
</linearGradient>
<linearGradient id="paint2_linear_89_275" x1="1480.75" y1="1547.17" x2="1420.31" y2="394.015" gradientUnits="userSpaceOnUse">
<stop stop-color="#FF1CF7"/>
<stop offset="1" stop-color="#00F0FF"/>
</linearGradient>
<linearGradient id="paint3_linear_89_275" x1="1429.78" y1="1543.29" x2="1429.78" y2="398.93" gradientUnits="userSpaceOnUse">
<stop stop-color="#FF1CF7"/>
<stop offset="1" stop-color="#00F0FF"/>
</linearGradient>
<linearGradient id="paint4_linear_89_275" x1="1379.34" y1="1537.9" x2="1438.69" y2="405.471" gradientUnits="userSpaceOnUse">
<stop stop-color="#FF1CF7"/>
<stop offset="1" stop-color="#00F0FF"/>
</linearGradient>
<linearGradient id="paint5_linear_89_275" x1="1329.51" y1="1531.05" x2="1446.96" y2="413.59" gradientUnits="userSpaceOnUse">
<stop stop-color="#FF1CF7"/>
<stop offset="1" stop-color="#00F0FF"/>
</linearGradient>
<linearGradient id="paint6_linear_89_275" x1="1280.34" y1="1522.77" x2="1454.49" y2="423.237" gradientUnits="userSpaceOnUse">
<stop stop-color="#FF1CF7"/>
<stop offset="1" stop-color="#00F0FF"/>
</linearGradient>
<linearGradient id="paint7_linear_89_275" x1="1231.93" y1="1513.12" x2="1461.23" y2="434.358" gradientUnits="userSpaceOnUse">
<stop stop-color="#FF1CF7"/>
<stop offset="1" stop-color="#00F0FF"/>
</linearGradient>
<linearGradient id="paint8_linear_89_275" x1="1184.33" y1="1502.15" x2="1467.08" y2="446.893" gradientUnits="userSpaceOnUse">
<stop stop-color="#FF1CF7"/>
<stop offset="1" stop-color="#00F0FF"/>
</linearGradient>
<linearGradient id="paint9_linear_89_275" x1="1137.61" y1="1489.93" x2="1472" y2="460.781" gradientUnits="userSpaceOnUse">
<stop stop-color="#FF1CF7"/>
<stop offset="1" stop-color="#00F0FF"/>
</linearGradient>
<linearGradient id="paint10_linear_89_275" x1="1091.82" y1="1476.51" x2="1475.9" y2="475.957" gradientUnits="userSpaceOnUse">
<stop stop-color="#FF1CF7"/>
<stop offset="1" stop-color="#00F0FF"/>
</linearGradient>
<linearGradient id="paint11_linear_89_275" x1="1047.04" y1="1461.95" x2="1478.73" y2="492.351" gradientUnits="userSpaceOnUse">
<stop stop-color="#FF1CF7"/>
<stop offset="1" stop-color="#00F0FF"/>
</linearGradient>
<linearGradient id="paint12_linear_89_275" x1="1003.3" y1="1446.33" x2="1480.44" y2="509.894" gradientUnits="userSpaceOnUse">
<stop stop-color="#FF1CF7"/>
<stop offset="1" stop-color="#00F0FF"/>
</linearGradient>
<linearGradient id="paint13_linear_89_275" x1="960.659" y1="1429.71" x2="1480.97" y2="528.511" gradientUnits="userSpaceOnUse">
<stop stop-color="#FF1CF7"/>
<stop offset="1" stop-color="#00F0FF"/>
</linearGradient>
<linearGradient id="paint14_linear_89_275" x1="919.158" y1="1412.16" x2="1480.27" y2="548.127" gradientUnits="userSpaceOnUse">
<stop stop-color="#FF1CF7"/>
<stop offset="1" stop-color="#00F0FF"/>
</linearGradient>
<linearGradient id="paint15_linear_89_275" x1="878.838" y1="1393.75" x2="1478.3" y2="568.663" gradientUnits="userSpaceOnUse">
<stop stop-color="#FF1CF7"/>
<stop offset="1" stop-color="#00F0FF"/>
</linearGradient>
<linearGradient id="paint16_linear_89_275" x1="839.732" y1="1374.56" x2="1475.02" y2="590.04" gradientUnits="userSpaceOnUse">
<stop stop-color="#FF1CF7"/>
<stop offset="1" stop-color="#00F0FF"/>
</linearGradient>
<linearGradient id="paint17_linear_89_275" x1="801.873" y1="1354.66" x2="1470.41" y2="612.177" gradientUnits="userSpaceOnUse">
<stop stop-color="#FF1CF7"/>
<stop offset="1" stop-color="#00F0FF"/>
</linearGradient>
<linearGradient id="paint18_linear_89_275" x1="765.285" y1="1334.13" x2="1464.43" y2="634.992" gradientUnits="userSpaceOnUse">
<stop stop-color="#FF1CF7"/>
<stop offset="1" stop-color="#00F0FF"/>
</linearGradient>
<linearGradient id="paint19_linear_89_275" x1="729.992" y1="1313.05" x2="1457.06" y2="658.401" gradientUnits="userSpaceOnUse">
<stop stop-color="#FF1CF7"/>
<stop offset="1" stop-color="#00F0FF"/>
</linearGradient>
<linearGradient id="paint20_linear_89_275" x1="696.009" y1="1291.5" x2="1448.28" y2="682.323" gradientUnits="userSpaceOnUse">
<stop stop-color="#FF1CF7"/>
<stop offset="1" stop-color="#00F0FF"/>
</linearGradient>
<linearGradient id="paint21_linear_89_275" x1="663.349" y1="1269.54" x2="1438.07" y2="706.672" gradientUnits="userSpaceOnUse">
<stop stop-color="#FF1CF7"/>
<stop offset="1" stop-color="#00F0FF"/>
</linearGradient>
<linearGradient id="paint22_linear_89_275" x1="632.019" y1="1247.27" x2="1426.44" y2="731.365" gradientUnits="userSpaceOnUse">
<stop stop-color="#FF1CF7"/>
<stop offset="1" stop-color="#00F0FF"/>
</linearGradient>
<linearGradient id="paint23_linear_89_275" x1="602.025" y1="1224.75" x2="1413.37" y2="756.319" gradientUnits="userSpaceOnUse">
<stop stop-color="#FF1CF7"/>
<stop offset="1" stop-color="#00F0FF"/>
</linearGradient>
<linearGradient id="paint24_linear_89_275" x1="573.364" y1="1202.07" x2="1398.87" y2="781.451" gradientUnits="userSpaceOnUse">
<stop stop-color="#FF1CF7"/>
<stop offset="1" stop-color="#00F0FF"/>
</linearGradient>
<linearGradient id="paint25_linear_89_275" x1="546.03" y1="1179.29" x2="1382.94" y2="806.679" gradientUnits="userSpaceOnUse">
<stop stop-color="#FF1CF7"/>
<stop offset="1" stop-color="#00F0FF"/>
</linearGradient>
<linearGradient id="paint26_linear_89_275" x1="520.015" y1="1156.51" x2="1365.59" y2="831.922" gradientUnits="userSpaceOnUse">
<stop stop-color="#FF1CF7"/>
<stop offset="1" stop-color="#00F0FF"/>
</linearGradient>
<linearGradient id="paint27_linear_89_275" x1="495.305" y1="1133.78" x2="1346.85" y2="857.1" gradientUnits="userSpaceOnUse">
<stop stop-color="#FF1CF7"/>
<stop offset="1" stop-color="#00F0FF"/>
</linearGradient>
<linearGradient id="paint28_linear_89_275" x1="471.881" y1="1111.19" x2="1326.71" y2="882.137" gradientUnits="userSpaceOnUse">
<stop stop-color="#FF1CF7"/>
<stop offset="1" stop-color="#00F0FF"/>
</linearGradient>
<linearGradient id="paint29_linear_89_275" x1="449.722" y1="1088.8" x2="1305.22" y2="906.955" gradientUnits="userSpaceOnUse">
<stop stop-color="#FF1CF7"/>
<stop offset="1" stop-color="#00F0FF"/>
</linearGradient>
<linearGradient id="paint30_linear_89_275" x1="428.802" y1="1066.68" x2="1282.4" y2="931.481" gradientUnits="userSpaceOnUse">
<stop stop-color="#FF1CF7"/>
<stop offset="1" stop-color="#00F0FF"/>
</linearGradient>
<linearGradient id="paint31_linear_89_275" x1="409.09" y1="1044.9" x2="1258.28" y2="955.643" gradientUnits="userSpaceOnUse">
<stop stop-color="#FF1CF7"/>
<stop offset="1" stop-color="#00F0FF"/>
</linearGradient>
<linearGradient id="paint32_linear_89_275" x1="390.556" y1="1023.52" x2="1232.89" y2="979.373" gradientUnits="userSpaceOnUse">
<stop stop-color="#FF1CF7"/>
<stop offset="1" stop-color="#00F0FF"/>
</linearGradient>
<linearGradient id="paint33_linear_89_275" x1="373.162" y1="1002.6" x2="1206.27" y2="1002.6" gradientUnits="userSpaceOnUse">
<stop stop-color="#FF1CF7"/>
<stop offset="1" stop-color="#00F0FF"/>
</linearGradient>
<linearGradient id="paint34_linear_89_275" x1="356.867" y1="982.213" x2="1178.48" y2="1025.27" gradientUnits="userSpaceOnUse">
<stop stop-color="#FF1CF7"/>
<stop offset="1" stop-color="#00F0FF"/>
</linearGradient>
<linearGradient id="paint35_linear_89_275" x1="341.631" y1="962.401" x2="1149.54" y2="1047.32" gradientUnits="userSpaceOnUse">
<stop stop-color="#FF1CF7"/>
<stop offset="1" stop-color="#00F0FF"/>
</linearGradient>
<linearGradient id="paint36_linear_89_275" x1="327.408" y1="943.223" x2="1119.52" y2="1068.68" gradientUnits="userSpaceOnUse">
<stop stop-color="#FF1CF7"/>
<stop offset="1" stop-color="#00F0FF"/>
</linearGradient>
<linearGradient id="paint37_linear_89_275" x1="314.149" y1="924.727" x2="1088.46" y2="1089.31" gradientUnits="userSpaceOnUse">
<stop stop-color="#FF1CF7"/>
<stop offset="1" stop-color="#00F0FF"/>
</linearGradient>
<linearGradient id="paint38_linear_89_275" x1="301.803" y1="906.96" x2="1056.42" y2="1109.16" gradientUnits="userSpaceOnUse">
<stop stop-color="#FF1CF7"/>
<stop offset="1" stop-color="#00F0FF"/>
</linearGradient>
<linearGradient id="paint39_linear_89_275" x1="290.32" y1="889.966" x2="1023.45" y2="1128.18" gradientUnits="userSpaceOnUse">
<stop stop-color="#FF1CF7"/>
<stop offset="1" stop-color="#00F0FF"/>
</linearGradient>
<linearGradient id="paint40_linear_89_275" x1="279.643" y1="873.784" x2="989.619" y2="1146.32" gradientUnits="userSpaceOnUse">
<stop stop-color="#FF1CF7"/>
<stop offset="1" stop-color="#00F0FF"/>
</linearGradient>
<linearGradient id="paint41_linear_89_275" x1="269.716" y1="858.451" x2="954.978" y2="1163.55" gradientUnits="userSpaceOnUse">
<stop stop-color="#FF1CF7"/>
<stop offset="1" stop-color="#00F0FF"/>
</linearGradient>
<linearGradient id="paint42_linear_89_275" x1="260.482" y1="843.999" x2="919.593" y2="1179.83" gradientUnits="userSpaceOnUse">
<stop stop-color="#FF1CF7"/>
<stop offset="1" stop-color="#00F0FF"/>
</linearGradient>
<linearGradient id="paint43_linear_89_275" x1="251.88" y1="830.457" x2="883.526" y2="1195.14" gradientUnits="userSpaceOnUse">
<stop stop-color="#FF1CF7"/>
<stop offset="1" stop-color="#00F0FF"/>
</linearGradient>
<linearGradient id="paint44_linear_89_275" x1="243.851" y1="817.85" x2="846.845" y2="1209.44" gradientUnits="userSpaceOnUse">
<stop stop-color="#FF1CF7"/>
<stop offset="1" stop-color="#00F0FF"/>
</linearGradient>
<linearGradient id="paint45_linear_89_275" x1="236.334" y1="806.199" x2="809.614" y2="1222.71" gradientUnits="userSpaceOnUse">
<stop stop-color="#FF1CF7"/>
<stop offset="1" stop-color="#00F0FF"/>
</linearGradient>
<linearGradient id="paint46_linear_89_275" x1="229.267" y1="795.522" x2="771.899" y2="1234.94" gradientUnits="userSpaceOnUse">
<stop stop-color="#FF1CF7"/>
<stop offset="1" stop-color="#00F0FF"/>
</linearGradient>
<linearGradient id="paint47_linear_89_275" x1="222.586" y1="785.832" x2="733.768" y2="1246.1" gradientUnits="userSpaceOnUse">
<stop stop-color="#FF1CF7"/>
<stop offset="1" stop-color="#00F0FF"/>
</linearGradient>
<linearGradient id="paint48_linear_89_275" x1="216.231" y1="777.139" x2="695.287" y2="1256.19" gradientUnits="userSpaceOnUse">
<stop stop-color="#FF1CF7"/>
<stop offset="1" stop-color="#00F0FF"/>
</linearGradient>
<linearGradient id="paint49_linear_89_275" x1="210.138" y1="769.448" x2="656.524" y2="1265.21" gradientUnits="userSpaceOnUse">
<stop stop-color="#FF1CF7"/>
<stop offset="1" stop-color="#00F0FF"/>
</linearGradient>
<linearGradient id="paint50_linear_89_275" x1="204.247" y1="762.763" x2="617.546" y2="1273.14" gradientUnits="userSpaceOnUse">
<stop stop-color="#FF1CF7"/>
<stop offset="1" stop-color="#00F0FF"/>
</linearGradient>
<linearGradient id="paint51_linear_89_275" x1="198.494" y1="757.081" x2="578.417" y2="1280" gradientUnits="userSpaceOnUse">
<stop stop-color="#FF1CF7"/>
<stop offset="1" stop-color="#00F0FF"/>
</linearGradient>
<linearGradient id="paint52_linear_89_275" x1="192.82" y1="752.398" x2="539.203" y2="1285.78" gradientUnits="userSpaceOnUse">
<stop stop-color="#FF1CF7"/>
<stop offset="1" stop-color="#00F0FF"/>
</linearGradient>
<linearGradient id="paint53_linear_89_275" x1="187.164" y1="748.704" x2="499.971" y2="1290.5" gradientUnits="userSpaceOnUse">
<stop stop-color="#FF1CF7"/>
<stop offset="1" stop-color="#00F0FF"/>
</linearGradient>
<linearGradient id="paint54_linear_89_275" x1="181.469" y1="745.988" x2="460.781" y2="1294.17" gradientUnits="userSpaceOnUse">
<stop stop-color="#FF1CF7"/>
<stop offset="1" stop-color="#00F0FF"/>
</linearGradient>
<linearGradient id="paint55_linear_89_275" x1="175.676" y1="744.233" x2="421.696" y2="1296.8" gradientUnits="userSpaceOnUse">
<stop stop-color="#FF1CF7"/>
<stop offset="1" stop-color="#00F0FF"/>
</linearGradient>
<linearGradient id="paint56_linear_89_275" x1="169.73" y1="743.421" x2="382.775" y2="1298.42" gradientUnits="userSpaceOnUse">
<stop stop-color="#FF1CF7"/>
<stop offset="1" stop-color="#00F0FF"/>
</linearGradient>
<linearGradient id="paint57_linear_89_275" x1="163.577" y1="743.53" x2="344.077" y2="1299.05" gradientUnits="userSpaceOnUse">
<stop stop-color="#FF1CF7"/>
<stop offset="1" stop-color="#00F0FF"/>
</linearGradient>
<linearGradient id="paint58_linear_89_275" x1="157.164" y1="744.534" x2="305.658" y2="1298.72" gradientUnits="userSpaceOnUse">
<stop stop-color="#FF1CF7"/>
<stop offset="1" stop-color="#00F0FF"/>
</linearGradient>
<linearGradient id="paint59_linear_89_275" x1="150.443" y1="746.406" x2="267.572" y2="1297.46" gradientUnits="userSpaceOnUse">
<stop stop-color="#FF1CF7"/>
<stop offset="1" stop-color="#00F0FF"/>
</linearGradient>
<linearGradient id="paint60_linear_89_275" x1="143.364" y1="749.114" x2="229.87" y2="1295.29" gradientUnits="userSpaceOnUse">
<stop stop-color="#FF1CF7"/>
<stop offset="1" stop-color="#00F0FF"/>
</linearGradient>
<linearGradient id="paint61_linear_89_275" x1="135.882" y1="752.626" x2="192.6" y2="1292.27" gradientUnits="userSpaceOnUse">
<stop stop-color="#FF1CF7"/>
<stop offset="1" stop-color="#00F0FF"/>
</linearGradient>
<linearGradient id="paint62_linear_89_275" x1="127.954" y1="756.905" x2="155.809" y2="1288.41" gradientUnits="userSpaceOnUse">
<stop stop-color="#FF1CF7"/>
<stop offset="1" stop-color="#00F0FF"/>
</linearGradient>
<linearGradient id="paint63_linear_89_275" x1="119.541" y1="761.914" x2="119.541" y2="1283.78" gradientUnits="userSpaceOnUse">
<stop stop-color="#FF1CF7"/>
<stop offset="1" stop-color="#00F0FF"/>
</linearGradient>
<linearGradient id="paint64_linear_89_275" x1="110.605" y1="767.612" x2="83.8354" y2="1278.4" gradientUnits="userSpaceOnUse">
<stop stop-color="#FF1CF7"/>
<stop offset="1" stop-color="#00F0FF"/>
</linearGradient>
<linearGradient id="paint65_linear_89_275" x1="101.11" y1="773.958" x2="48.7291" y2="1272.33" gradientUnits="userSpaceOnUse">
<stop stop-color="#FF1CF7"/>
<stop offset="1" stop-color="#00F0FF"/>
</linearGradient>
<linearGradient id="paint66_linear_89_275" x1="91.0253" y1="780.907" x2="14.2571" y2="1265.6" gradientUnits="userSpaceOnUse">
<stop stop-color="#FF1CF7"/>
<stop offset="1" stop-color="#00F0FF"/>
</linearGradient>
<linearGradient id="paint67_linear_89_275" x1="80.3234" y1="788.415" x2="-19.5496" y2="1258.28" gradientUnits="userSpaceOnUse">
<stop stop-color="#FF1CF7"/>
<stop offset="1" stop-color="#00F0FF"/>
</linearGradient>
<linearGradient id="paint68_linear_89_275" x1="68.9766" y1="796.434" x2="-52.6651" y2="1250.41" gradientUnits="userSpaceOnUse">
<stop stop-color="#FF1CF7"/>
<stop offset="1" stop-color="#00F0FF"/>
</linearGradient>
</defs>
</svg>
