<svg width="402" height="296" viewBox="0 0 402 296" fill="none" xmlns="http://www.w3.org/2000/svg">
<path opacity="0.0144928" d="M281.485 240.948C290.497 245.591 301.278 244.115 308.215 237.288L326.735 219.061C331.038 214.827 333.366 208.994 333.198 202.872L331.707 148.52C331.573 143.618 329.844 138.825 326.777 134.848L300.292 100.504C295.001 93.6442 286.42 90.0771 277.985 91.232L258.706 93.8719C250.271 95.0268 243.363 100.715 240.749 108.657L227.665 148.419C226.15 153.023 226.197 158.047 227.799 162.748L245.562 214.871C247.563 220.743 251.838 225.671 257.427 228.551L281.485 240.948Z" stroke="url(#paint0_linear_1132_483)" stroke-width="4"/>
<path opacity="0.0289855" d="M273.954 240.069C282.66 245.1 293.425 244.174 300.7 237.767L320.071 220.709C324.626 216.697 327.291 210.973 327.464 204.828L328.969 151.333C329.108 146.394 327.628 141.484 324.751 137.336L300.432 102.278C295.518 95.1936 287.169 91.2242 278.713 91.9519L259.39 93.6149C250.934 94.3426 243.745 99.6493 240.689 107.42L225.564 145.872C223.774 150.422 223.541 155.48 224.899 160.289L239.61 212.389C241.3 218.374 245.324 223.522 250.775 226.673L273.954 240.069Z" stroke="url(#paint1_linear_1132_483)" stroke-width="4"/>
<path opacity="0.0434783" d="M266.501 238.988C274.886 244.391 285.611 244.006 293.202 238.031L313.342 222.176C318.137 218.402 321.132 212.806 321.649 206.657L326.062 154.154C326.479 149.196 325.257 144.183 322.582 139.875L300.441 104.223C295.914 96.9325 287.816 92.5751 279.359 92.8781L260.06 93.5696C251.603 93.8726 244.152 98.7872 240.663 106.364L223.598 143.421C221.536 147.899 221.018 152.975 222.123 157.878L233.826 209.804C235.197 215.885 238.957 221.239 244.253 224.652L266.501 238.988Z" stroke="url(#paint2_linear_1132_483)" stroke-width="4"/>
<path opacity="0.057971" d="M259.136 237.709C267.186 243.467 277.849 243.616 285.732 238.082L306.558 223.462C311.579 219.937 314.899 214.488 315.761 208.356L322.987 156.973C323.684 152.013 322.729 146.913 320.267 142.457L300.307 106.327C296.177 98.8516 288.348 94.121 279.91 94.0024L260.703 93.7325C252.264 93.6139 244.572 98.1264 240.661 105.489L221.761 141.072C219.429 145.462 218.624 150.536 219.469 155.518L228.216 207.126C229.259 213.284 232.742 218.829 237.869 222.497L259.136 237.709Z" stroke="url(#paint3_linear_1132_483)" stroke-width="4"/>
<path opacity="0.0724638" d="M251.869 236.238C259.57 242.334 270.151 243.01 278.303 237.926L299.73 224.565C304.962 221.302 308.599 216.018 309.807 209.924L319.744 159.781C320.724 154.836 320.043 149.667 317.805 145.075L300.023 108.584C296.299 100.942 288.755 95.8536 280.354 95.3172L261.307 94.1008C252.907 93.5643 244.991 97.6657 240.672 104.794L220.044 138.831C217.448 143.115 216.354 148.171 216.931 153.215L222.781 204.366C223.493 210.583 226.685 216.303 231.628 220.216L251.869 236.238Z" stroke="url(#paint4_linear_1132_483)" stroke-width="4"/>
<path opacity="0.0869565" d="M244.711 234.582C252.052 241.001 262.53 242.194 270.93 237.568L292.869 225.485C298.298 222.496 302.242 217.396 303.794 211.36L316.338 162.569C317.6 157.658 317.198 152.437 315.195 147.722L299.58 110.983C296.271 103.196 289.027 97.7645 280.682 96.8144L261.863 94.6713C253.519 93.7212 245.401 97.403 240.686 104.276L218.442 136.704C215.587 140.866 214.203 145.884 214.507 150.974L217.528 201.536C217.901 207.792 220.793 213.67 225.537 217.818L244.711 234.582Z" stroke="url(#paint5_linear_1132_483)" stroke-width="4"/>
<path opacity="0.101449" d="M237.674 232.748C244.643 239.472 254.998 241.174 263.622 237.013L285.986 226.223C291.595 223.517 295.835 218.62 297.728 212.662L312.769 165.328C314.313 160.469 314.196 155.213 312.435 150.39L298.972 113.513C296.084 105.601 289.154 99.8436 280.885 98.4845L262.359 95.4395C254.089 94.0803 245.789 97.335 240.694 103.935L216.945 134.696C213.839 138.718 212.168 143.68 212.195 148.798L212.457 198.647C212.49 204.921 215.07 210.94 219.602 215.312L237.674 232.748Z" stroke="url(#paint6_linear_1132_483)" stroke-width="4"/>
<path opacity="0.115942" d="M230.766 230.744C237.352 237.756 247.566 239.959 256.392 236.269L279.091 226.78C284.863 224.367 289.388 219.689 291.618 213.83L309.042 168.049C310.865 163.26 311.035 157.989 309.525 153.073L298.191 116.166C295.73 108.15 289.128 102.081 280.952 100.318L262.783 96.4008C254.607 94.6379 246.145 97.4583 240.685 103.766L215.546 132.809C212.198 136.678 210.242 141.564 209.989 146.692L207.57 195.708C207.26 201.981 209.521 208.122 213.828 212.708L230.766 230.744Z" stroke="url(#paint7_linear_1132_483)" stroke-width="4"/>
<path opacity="0.130435" d="M223.997 228.576C230.189 235.861 240.244 238.556 249.25 235.342L272.194 227.157C278.113 225.045 282.91 220.603 285.47 214.864L305.16 170.725C307.257 166.024 307.717 160.755 306.465 155.762L297.232 118.93C295.202 110.83 288.941 104.467 280.875 102.306L263.127 97.5503C255.061 95.3891 246.457 97.7692 240.649 103.769L214.237 131.05C210.657 134.748 208.42 139.541 207.886 144.66L202.868 192.731C202.216 198.981 204.15 205.226 208.22 210.015L223.997 228.576Z" stroke="url(#paint8_linear_1132_483)" stroke-width="4"/>
<path opacity="0.144928" d="M217.375 226.254C223.165 233.796 233.042 236.973 242.206 234.241L265.305 227.355C271.353 225.552 276.407 221.363 279.29 215.762L301.127 173.346C303.493 168.751 304.242 163.504 303.254 158.45L296.088 121.794C294.493 113.632 288.585 106.991 280.647 104.437L263.378 98.8821C255.44 96.3286 246.716 98.2628 240.577 103.937L213.009 129.42C209.208 132.933 206.697 137.614 205.882 142.707L198.353 189.726C197.359 195.934 198.959 202.264 202.78 207.241L217.375 226.254Z" stroke="url(#paint9_linear_1132_483)" stroke-width="4"/>
<path opacity="0.15942" d="M210.912 223.786C216.29 231.568 225.971 235.22 235.27 232.974L258.436 227.378C264.594 225.89 269.89 221.968 273.087 216.525L296.949 175.907C299.576 171.435 300.613 166.229 299.893 161.129L294.757 124.748C293.599 116.544 288.054 109.641 280.262 106.702L263.528 100.39C255.736 97.4508 246.913 98.9342 240.462 104.268L211.855 127.922C207.845 131.237 205.068 135.787 203.973 140.837L194.023 186.703C192.69 192.848 193.952 199.244 197.513 204.398L210.912 223.786Z" stroke="url(#paint10_linear_1132_483)" stroke-width="4"/>
<path opacity="0.173913" d="M204.614 221.183C209.571 229.188 219.039 233.306 228.449 231.549L251.595 227.228C257.845 226.061 263.366 222.419 266.866 217.153L292.629 178.4C295.509 174.068 296.832 168.92 296.383 163.793L293.232 127.78C292.513 119.555 287.343 112.408 279.713 109.09L263.566 102.068C255.936 98.7494 247.036 99.778 240.292 104.757L210.765 126.558C206.56 129.662 203.526 134.066 202.153 139.053L189.878 183.672C188.21 189.735 189.13 196.178 192.422 201.495L204.614 221.183Z" stroke="url(#paint11_linear_1132_483)" stroke-width="4"/>
<path opacity="0.188406" d="M198.489 218.455C203.016 226.666 212.253 231.24 221.753 229.976L244.792 226.909C251.115 226.068 256.844 222.719 260.636 217.647L288.175 180.818C291.297 176.642 292.901 171.572 292.726 166.432L291.512 130.88C291.232 122.654 286.446 115.279 278.996 111.59L263.484 103.908C256.033 100.218 247.078 100.788 240.061 105.4L209.731 125.331C205.347 128.212 202.065 132.452 200.42 137.36L185.917 180.644C183.92 186.605 184.495 193.076 187.509 198.541L198.489 218.455Z" stroke="url(#paint12_linear_1132_483)" stroke-width="4"/>
<path opacity="0.202899" d="M192.544 215.612C196.633 224.012 205.621 229.034 215.187 228.264L238.037 226.425C244.414 225.912 250.332 222.868 254.404 218.006L283.59 183.157C286.945 179.152 288.824 174.175 288.923 169.04L289.594 134.035C289.751 125.83 285.359 118.244 278.106 114.191L263.272 105.902C256.018 101.849 247.03 101.959 239.76 106.19L208.746 124.24C204.196 126.888 200.679 130.949 198.768 135.761L182.138 177.627C179.819 183.468 180.049 189.947 182.775 195.547L192.544 215.612Z" stroke="url(#paint13_linear_1132_483)" stroke-width="4"/>
<path opacity="0.217391" d="M186.786 212.665C190.43 221.237 199.15 226.697 208.759 226.423L231.339 225.781C237.75 225.598 243.838 222.869 248.175 218.233L278.881 185.41C282.456 181.589 284.604 176.724 284.976 171.609L287.475 137.235C288.069 129.071 284.08 121.292 277.039 116.884L262.921 108.044C255.881 103.636 246.883 103.283 239.382 107.123L207.802 123.287C203.103 125.693 199.362 129.561 197.191 134.261L178.539 174.631C175.905 180.334 175.79 186.803 178.221 192.522L186.786 212.665Z" stroke="url(#paint14_linear_1132_483)" stroke-width="4"/>
<path opacity="0.231884" d="M181.219 209.626C184.411 218.352 192.844 224.239 202.472 224.463L224.705 224.98C231.132 225.129 237.371 222.724 241.958 218.328L274.054 187.572C277.835 183.948 280.245 179.21 280.888 174.131L285.155 140.468C286.182 132.365 282.603 124.41 275.793 119.656L262.424 110.323C255.614 105.569 246.629 104.754 238.92 108.192L206.889 122.472C202.057 124.627 198.106 128.289 195.683 132.861L175.116 171.665C172.177 177.212 171.718 183.653 173.849 189.477L181.219 209.626Z" stroke="url(#paint15_linear_1132_483)" stroke-width="4"/>
<path opacity="0.246377" d="M175.85 206.507C178.582 215.368 186.71 221.671 196.332 222.393L218.146 224.028C224.568 224.509 230.938 222.435 235.761 218.292L269.114 189.639C273.089 186.224 275.751 181.627 276.664 176.6L282.633 143.723C284.089 135.702 280.929 127.589 274.366 122.498L261.773 112.731C255.21 107.641 246.263 106.364 238.366 109.39L206.001 121.795C201.052 123.692 196.905 127.136 194.239 131.566L171.868 168.738C168.633 174.112 167.833 180.506 169.657 186.42L175.85 206.507Z" stroke="url(#paint16_linear_1132_483)" stroke-width="4"/>
<path opacity="0.26087" d="M170.683 203.319C172.949 212.296 180.751 219.005 190.343 220.223L211.668 222.931C218.067 223.743 224.547 222.007 229.589 218.129L264.069 191.606C268.223 188.41 271.127 183.969 272.305 179.008L279.909 146.988C281.79 139.068 279.056 130.816 272.756 125.4L260.96 115.259C254.661 109.843 245.776 108.105 237.716 110.712L205.13 121.254C200.081 122.888 195.754 126.104 192.854 130.379L168.789 165.857C165.271 171.044 164.134 177.374 165.645 183.363L170.683 203.319Z" stroke="url(#paint17_linear_1132_483)" stroke-width="4"/>
<path opacity="0.275362" d="M165.719 200.076C167.513 209.149 174.971 216.249 184.508 217.962L205.279 221.694C211.635 222.835 218.205 221.442 223.449 217.839L258.923 193.469C263.243 190.501 266.378 186.229 267.816 181.348L276.984 150.252C279.283 142.453 276.981 134.08 270.963 128.351L259.98 117.895C253.961 112.165 245.162 109.969 236.962 112.151L204.267 120.85C199.136 122.215 194.642 125.194 191.52 129.302L165.877 163.031C162.086 168.017 160.616 174.266 161.812 180.313L165.719 200.076Z" stroke="url(#paint18_linear_1132_483)" stroke-width="4"/>
<path opacity="0.289855" d="M160.962 196.789C162.279 205.939 169.372 213.416 178.827 215.622L198.986 220.324C205.28 221.792 211.919 220.744 217.348 217.427L253.683 195.225C258.153 192.494 261.508 188.401 263.202 183.614L273.859 153.505C276.57 145.846 274.706 137.372 268.985 131.341L258.824 120.63C253.103 114.599 244.414 111.949 236.098 113.699L203.406 120.58C198.208 121.674 193.564 124.408 190.23 128.336L163.125 160.268C159.075 165.039 157.278 171.19 158.155 177.281L160.962 196.789Z" stroke="url(#paint19_linear_1132_483)" stroke-width="4"/>
<path opacity="0.304348" d="M156.415 193.472C157.25 202.677 163.959 210.516 173.306 213.21L192.797 218.826C199.011 220.617 205.699 219.918 211.295 216.894L248.356 196.87C252.962 194.381 256.526 190.48 258.469 185.8L270.538 156.734C273.652 149.234 272.232 140.679 266.825 134.36L257.492 123.453C252.084 117.134 243.531 114.035 235.123 115.35L202.541 120.444C197.294 121.264 192.514 123.745 188.979 127.485L160.532 157.575C156.236 162.119 154.118 168.157 154.673 174.276L156.415 193.472Z" stroke="url(#paint20_linear_1132_483)" stroke-width="4"/>
<path opacity="0.318841" d="M152.076 190.137C152.426 199.376 158.73 207.559 167.942 210.735L186.717 217.209C192.832 219.317 199.548 218.969 205.295 216.245L242.948 198.401C247.674 196.161 251.435 192.46 253.621 187.898L267.023 159.93C270.531 152.608 269.56 143.991 264.481 137.398L255.974 126.353C250.896 119.76 242.504 116.22 234.03 117.095L201.662 120.438C196.383 120.984 191.483 123.207 187.759 126.748L158.091 154.959C153.562 159.265 151.13 165.175 151.362 171.307L152.076 190.137Z" stroke="url(#paint21_linear_1132_483)" stroke-width="4"/>
<path opacity="0.333333" d="M147.946 186.797C147.808 196.047 153.686 204.557 162.737 208.209L180.753 215.479C186.75 217.899 193.474 217.901 199.354 215.483L237.465 199.815C242.297 197.829 246.243 194.337 248.665 189.904L263.316 163.083C267.209 155.957 266.689 147.299 261.957 140.448L254.269 129.319C249.537 122.468 241.331 118.494 232.815 118.928L200.765 120.562C195.468 120.833 190.464 122.794 186.563 126.128L155.796 152.428C151.049 156.486 148.31 162.253 148.219 168.383L147.946 186.797Z" stroke="url(#paint22_linear_1132_483)" stroke-width="4"/>
<path opacity="0.347826" d="M144.023 183.465C143.397 192.703 148.83 201.518 157.691 205.638L174.91 213.643C180.772 216.369 187.484 216.719 193.479 214.613L231.915 201.111C236.839 199.381 240.958 196.106 243.607 191.813L259.424 166.183C263.691 159.269 263.626 150.592 259.254 143.5L252.374 132.339C248.003 125.247 240.008 120.849 231.475 120.841L199.842 120.813C194.544 120.809 189.451 122.504 185.384 125.625L153.643 149.988C148.692 153.788 145.655 159.399 145.241 165.511L144.023 183.465Z" stroke="url(#paint23_linear_1132_483)" stroke-width="4"/>
<path opacity="0.362319" d="M140.305 180.152C139.189 189.355 144.159 198.454 152.802 203.03L169.192 211.709C174.902 214.732 181.582 215.43 187.675 213.639L226.302 202.285C231.304 200.815 235.584 197.762 238.453 193.619L255.35 169.218C259.978 162.534 260.37 153.86 256.374 146.545L250.286 135.4C246.29 128.085 238.532 123.275 230.008 122.826L198.887 121.188C193.603 120.91 188.434 122.337 184.215 125.238L151.625 147.645C146.485 151.18 143.158 156.621 142.421 162.701L140.305 180.152Z" stroke="url(#paint24_linear_1132_483)" stroke-width="4"/>
<path opacity="0.376812" d="M136.789 176.873C135.185 186.016 139.673 195.373 148.071 200.395L163.605 209.684C169.145 212.997 175.775 214.039 181.949 212.566L220.635 203.336C225.7 202.127 230.129 199.303 233.21 195.318L251.099 172.18C256.076 165.743 256.925 157.094 253.319 149.575L248.004 138.493C244.397 130.974 236.9 125.763 228.41 124.876L197.893 121.685C192.638 121.135 187.408 122.292 183.047 124.967L149.737 145.406C144.421 148.667 140.813 153.927 139.755 159.96L136.789 176.873Z" stroke="url(#paint25_linear_1132_483)" stroke-width="4"/>
<path opacity="0.391304" d="M133.471 173.638C131.382 182.696 135.371 192.286 143.495 197.739L158.153 207.577C163.508 211.171 170.068 212.552 176.305 211.399L214.92 204.261C220.036 203.316 224.602 200.726 227.887 196.907L246.678 175.062C251.99 168.886 253.297 160.284 250.093 152.582L245.527 141.604C242.324 133.901 235.112 128.306 226.681 126.983L196.856 122.3C191.643 121.482 186.367 122.366 181.876 124.812L147.971 143.276C142.495 146.258 138.616 151.324 137.24 157.295L133.471 173.638Z" stroke="url(#paint26_linear_1132_483)" stroke-width="4"/>
<path opacity="0.405797" d="M130.346 170.459C127.776 179.407 131.249 189.202 139.073 195.07L152.839 205.395C157.992 209.26 164.464 210.976 170.749 210.144L209.164 205.06C214.317 204.378 219.01 202.026 222.49 198.382L242.094 177.852C247.726 171.954 249.489 163.422 246.7 155.558L242.857 144.721C240.068 136.857 233.165 130.894 224.819 129.139L195.769 123.03C190.612 121.946 185.302 122.559 180.692 124.77L146.322 141.26C140.699 143.958 136.559 148.819 134.867 154.713L130.346 170.459Z" stroke="url(#paint27_linear_1132_483)" stroke-width="4"/>
<path opacity="0.42029" d="M127.408 167.347C124.364 176.16 127.307 186.129 134.804 192.394L147.667 203.146C152.603 207.272 158.97 209.317 165.286 208.807L203.374 205.731C208.552 205.313 213.36 203.203 217.027 199.74L237.353 180.544C243.29 174.937 245.505 166.5 243.142 158.496L239.994 147.833C237.631 139.83 231.06 133.517 222.824 131.336L194.626 123.872C189.538 122.525 184.208 122.866 179.49 124.841L144.782 139.364C139.027 141.772 134.636 146.419 132.631 152.222L127.408 167.347Z" stroke="url(#paint28_linear_1132_483)" stroke-width="4"/>
<path opacity="0.434783" d="M124.65 164.313C121.139 172.966 123.54 183.077 130.683 189.72L142.639 200.839C147.343 205.214 153.587 207.583 159.918 207.394L197.556 206.274C202.746 206.119 207.659 204.254 211.505 200.978L232.462 183.13C238.687 177.828 241.351 169.508 239.423 161.39L236.939 150.929C235.012 142.811 228.794 136.167 220.693 133.569L193.421 124.822C188.416 123.217 183.077 123.287 178.261 125.021L143.343 137.592C137.469 139.707 132.838 144.129 130.526 149.828L124.65 164.313Z" stroke="url(#paint29_linear_1132_483)" stroke-width="4"/>
<path opacity="0.449275" d="M122.065 161.366C118.098 169.833 119.946 180.053 126.71 187.051L137.757 198.482C142.215 203.094 148.32 205.78 154.651 205.912L191.718 206.686C196.909 206.795 201.916 205.178 205.933 202.096L227.429 185.603C233.926 180.618 237.033 172.44 235.548 164.232L233.698 153.997C232.213 145.788 226.37 138.836 218.428 135.828L192.15 125.877C187.239 124.017 181.904 123.816 177.001 125.307L141.999 135.95C136.021 137.767 131.159 141.954 128.544 147.535L122.065 161.366Z" stroke="url(#paint30_linear_1132_483)" stroke-width="4"/>
<path opacity="0.463768" d="M119.645 158.516C115.234 166.772 116.521 177.066 122.881 184.396L133.023 196.083C137.221 200.921 143.171 203.914 149.486 204.366L185.866 206.97C191.048 207.34 196.139 205.974 200.319 203.091L222.263 187.956C229.014 183.301 232.556 175.288 231.521 167.015L230.272 157.026C229.237 148.753 223.788 141.514 216.029 138.107L190.807 127.032C186.002 124.922 180.682 124.452 175.702 125.697L140.741 134.44C134.672 135.958 129.59 139.901 126.679 145.351L119.645 158.516Z" stroke="url(#paint31_linear_1132_483)" stroke-width="4"/>
<path opacity="0.478261" d="M117.381 155.772C112.54 163.792 113.261 174.124 119.195 181.758L128.439 193.65C132.364 198.7 138.143 201.994 144.427 202.764L180.009 207.122C185.17 207.755 190.335 206.641 194.671 203.962L216.973 190.183C223.958 185.868 227.926 178.045 227.346 169.734L226.667 160.005C226.087 151.694 221.049 144.194 213.498 140.399L189.388 128.283C184.7 125.928 179.406 125.189 174.359 126.187L139.561 133.067C133.416 134.282 128.125 137.973 124.922 143.279L117.381 155.772Z" stroke="url(#paint32_linear_1132_483)" stroke-width="4"/>
<path opacity="0.492754" d="M115.264 153.14C110.008 160.901 110.161 171.234 115.648 179.146L124.004 191.192C127.644 196.441 133.237 200.027 139.475 201.112L174.153 207.146C179.282 208.038 184.512 207.18 188.995 204.711L211.567 192.28C218.767 188.314 223.15 180.704 223.027 172.382L222.888 162.926C222.765 154.603 218.155 146.867 210.834 142.697L187.886 129.627C183.328 127.03 178.07 126.025 172.965 126.773L138.451 131.835C132.243 132.745 126.754 136.175 123.267 141.324L115.264 153.14Z" stroke="url(#paint33_linear_1132_483)" stroke-width="4"/>
<path opacity="0.507246" d="M113.285 150.629C107.633 158.107 107.218 168.403 112.239 176.563L119.719 188.717C123.063 194.151 128.455 198.019 134.632 199.418L168.305 207.04C173.392 208.192 178.678 207.591 183.302 205.336L206.054 194.24C213.45 190.633 218.236 183.259 218.571 174.953L218.941 165.777C219.276 157.471 215.109 149.526 208.041 144.995L186.299 131.057C181.881 128.225 176.67 126.954 171.517 127.451L137.403 130.744C131.145 131.349 125.469 134.511 121.705 139.49L113.285 150.629Z" stroke="url(#paint34_linear_1132_483)" stroke-width="4"/>
<path opacity="0.521739" d="M111.433 148.244C105.404 155.417 104.424 165.638 108.963 174.015L115.583 186.234C118.619 191.836 123.796 195.978 129.899 197.687L162.473 206.806C167.508 208.215 172.841 207.874 177.597 205.838L200.443 196.059C208.015 192.818 213.188 185.703 213.98 177.441L214.832 168.55C215.624 160.288 211.912 152.161 205.119 147.285L184.62 132.57C180.353 129.506 175.2 127.971 170.007 128.216L136.407 129.8C130.112 130.096 124.261 132.983 120.228 137.78L111.433 148.244Z" stroke="url(#paint35_linear_1132_483)" stroke-width="4"/>
<path opacity="0.536232" d="M109.699 145.99C103.315 152.838 101.778 162.947 105.819 171.508L111.597 183.75C114.315 189.507 119.263 193.912 125.278 195.927L156.664 206.445C161.637 208.111 167.007 208.031 171.889 206.219L194.745 197.735C202.472 194.866 208.017 188.032 209.262 179.842L210.571 171.237C211.816 163.047 208.569 154.768 202.071 149.562L182.847 134.161C178.741 130.871 173.656 129.073 168.432 129.064L135.455 129.002C129.136 128.991 123.122 131.594 118.828 136.198L109.699 145.99Z" stroke="url(#paint36_linear_1132_483)" stroke-width="4"/>
<path opacity="0.550725" d="M108.073 143.873C101.357 150.375 99.2721 160.335 102.803 169.046L107.759 181.273C110.149 187.168 114.856 191.826 120.767 194.145L150.887 205.958C155.787 207.88 161.186 208.064 166.186 206.48L188.97 199.263C196.83 196.773 202.729 190.24 204.422 182.149L206.164 173.831C207.857 165.74 205.084 157.337 198.901 151.82L180.976 135.824C177.042 132.314 172.035 130.255 166.789 129.989L134.538 128.354C128.209 128.033 122.043 130.347 117.498 134.747L108.073 143.873Z" stroke="url(#paint37_linear_1132_483)" stroke-width="4"/>
<path opacity="0.565217" d="M106.542 141.894C99.5195 148.034 96.9007 157.807 99.9127 166.636L104.067 178.812C106.119 184.829 110.572 189.728 116.366 192.345L145.147 205.347C149.964 207.524 155.383 207.974 160.494 206.623L183.127 200.64C191.098 198.533 197.331 192.321 199.465 184.357L201.618 176.323C203.752 168.359 201.46 159.863 195.61 154.052L179.001 137.554C175.25 133.829 170.332 131.51 165.072 130.986L133.646 127.855C127.319 127.225 121.014 129.242 116.227 133.427L106.542 141.894Z" stroke="url(#paint38_linear_1132_483)" stroke-width="4"/>
<path opacity="0.57971" d="M105.098 140.058C97.7949 145.819 94.6584 155.372 97.1444 164.282L100.518 176.373C102.226 182.496 106.411 187.625 112.074 190.537L139.452 204.616C144.176 207.045 149.607 207.764 154.82 206.651L177.226 201.867C185.287 200.146 191.834 194.272 194.398 186.462L196.944 178.709C199.508 170.899 197.701 162.338 192.203 156.255L176.919 139.346C173.363 135.412 168.543 132.834 163.279 132.05L132.77 127.507C126.459 126.568 120.027 128.282 115.009 132.24L105.098 140.058Z" stroke="url(#paint39_linear_1132_483)" stroke-width="4"/>
<path opacity="0.594203" d="M103.73 138.366C96.1735 143.735 92.5384 153.033 94.4946 161.99L97.1099 173.966C98.4661 180.176 102.371 185.523 107.889 188.725L133.81 203.766C138.43 206.447 143.862 207.437 149.171 206.566L171.277 202.939C179.405 201.606 186.243 196.089 189.227 188.457L192.149 180.983C195.133 173.351 193.812 164.757 188.681 158.422L174.728 141.194C171.377 137.057 166.667 134.221 161.407 133.176L131.899 127.309C125.618 126.061 119.073 127.466 113.834 131.188L103.73 138.366Z" stroke="url(#paint40_linear_1132_483)" stroke-width="4"/>
<path opacity="0.608696" d="M102.429 136.82C94.6464 141.785 90.5346 150.797 91.9599 159.765L93.8399 171.596C94.8379 177.876 98.4519 183.428 103.81 186.914L128.228 202.8C132.733 205.731 138.158 206.995 143.554 206.371L165.29 203.858C173.464 202.913 180.57 197.768 183.959 190.339L187.243 183.14C190.633 175.711 189.798 167.113 185.05 160.549L172.425 143.092C169.29 138.758 164.699 135.667 159.454 134.357L131.026 127.262C124.788 125.704 118.143 126.795 112.694 130.271L102.429 136.82Z" stroke="url(#paint41_linear_1132_483)" stroke-width="4"/>
<path opacity="0.623188" d="M101.184 135.42C93.2052 139.971 88.6413 148.668 89.5374 157.613L90.7054 169.271C91.3396 175.603 94.6509 181.348 99.8358 185.112L122.713 201.723C127.093 204.903 132.5 206.443 137.976 206.071L159.277 204.623C167.474 204.066 174.822 199.306 178.602 192.104L182.237 185.177C186.016 177.975 185.665 169.402 181.314 162.631L170.006 145.034C167.1 140.51 162.64 137.165 157.419 135.59L130.141 127.363C123.96 125.498 117.228 126.27 111.582 129.49L101.184 135.42Z" stroke="url(#paint42_linear_1132_483)" stroke-width="4"/>
<path opacity="0.637681" d="M99.9843 134.167C91.8388 138.296 86.849 146.651 87.2207 155.539L87.7 166.998C87.9662 173.363 90.9638 179.286 95.961 183.323L117.272 200.537C121.514 203.964 126.893 205.783 132.44 205.668L153.245 205.234C161.444 205.063 169.008 200.7 173.161 193.747L177.137 187.089C181.289 180.136 181.417 171.618 177.474 164.663L167.469 147.013C164.801 142.307 160.485 138.709 155.297 136.867L129.233 127.61C123.122 125.44 116.319 125.887 110.487 128.844L99.9843 134.167Z" stroke="url(#paint43_linear_1132_483)" stroke-width="4"/>
<path opacity="0.652174" d="M98.8215 133.06C90.5386 136.762 85.1512 144.751 85.0058 153.548L84.8202 164.784C84.7148 171.162 87.3882 177.25 92.1833 181.551L111.911 199.249C116.003 202.92 121.343 205.021 126.952 205.166L147.205 205.692C155.383 205.904 163.137 201.948 167.644 195.264L171.953 188.875C176.46 182.192 177.061 173.757 173.537 166.642L164.811 149.024C162.394 144.144 158.233 140.296 153.089 138.184L128.293 128.003C122.266 125.528 115.407 125.648 109.402 128.331L98.8215 133.06Z" stroke="url(#paint44_linear_1132_483)" stroke-width="4"/>
<path opacity="0.666667" d="M97.6879 132.097C89.2969 135.369 83.5417 142.971 82.8892 151.644L82.0625 162.635C81.5832 169.007 83.9224 175.244 88.5009 179.803L106.639 197.862C110.569 201.775 115.858 204.159 121.52 204.571L141.167 205.998C149.303 206.59 157.221 203.048 162.062 196.653L166.696 190.533C171.537 184.138 172.603 175.813 169.507 168.564L162.033 151.059C159.879 146.013 155.885 141.917 150.796 139.535L127.312 128.538C121.384 125.762 114.484 125.549 108.32 127.952L97.6879 132.097Z" stroke="url(#paint45_linear_1132_483)" stroke-width="4"/>
<path opacity="0.681159" d="M96.5731 131.278C88.1032 134.119 82.011 141.315 80.8638 149.835L79.4201 160.556C78.5656 166.902 80.5611 173.273 84.9088 178.08L101.459 196.381C105.214 200.533 110.441 203.203 116.147 203.885L135.14 206.156C143.212 207.12 151.267 204 156.422 197.911L161.373 192.062C166.528 185.973 168.048 177.784 165.388 170.426L159.131 153.112C157.251 147.91 153.438 143.57 148.416 140.914L126.281 129.211C120.466 126.136 113.541 125.588 107.232 127.704L96.5731 131.278Z" stroke="url(#paint46_linear_1132_483)" stroke-width="4"/>
<path opacity="0.695652" d="M95.4691 130.601C86.949 133.011 80.5512 139.786 78.9241 148.122L76.888 158.554C75.6583 164.854 77.301 171.342 81.4034 176.389L96.3801 194.813C99.9461 199.199 105.098 202.158 110.836 203.115L129.134 206.166C137.122 207.498 145.284 204.802 150.731 199.034L155.994 193.461C161.441 187.692 163.402 179.666 161.185 172.224L156.104 155.175C154.511 149.829 150.892 145.247 145.949 142.318L125.19 130.018C119.504 126.649 112.57 125.764 106.13 127.585L95.4691 130.601Z" stroke="url(#paint47_linear_1132_483)" stroke-width="4"/>
<path opacity="0.710145" d="M94.3688 130.062C85.8263 132.045 79.1548 138.387 77.0645 146.512L74.461 156.632C72.8572 162.866 74.1389 169.455 77.9816 174.731L91.4073 193.163C94.7705 197.78 99.8332 201.028 105.593 202.264L123.158 206.032C131.041 207.724 139.285 205.455 145.001 200.021L150.568 194.729C156.284 189.295 158.674 181.454 156.902 173.954L152.953 157.242C151.658 151.762 148.248 146.943 143.396 143.74L124.031 130.955C118.488 127.296 111.563 126.072 105.008 127.593L94.3688 130.062Z" stroke="url(#paint48_linear_1132_483)" stroke-width="4"/>
<path opacity="0.724638" d="M93.2627 129.661C84.7248 131.222 77.8116 137.121 75.2767 145.009L72.1314 154.797C70.1557 160.945 71.0689 167.617 74.6378 173.11L86.5448 191.438C89.6907 196.28 94.6502 199.819 100.421 201.337L117.219 205.759C124.977 207.801 133.275 205.959 139.237 200.872L145.102 195.868C151.063 190.781 153.868 183.148 152.544 175.616L149.676 159.307C148.691 153.704 145.504 148.654 140.758 145.177L122.795 132.017C117.411 128.073 110.511 126.509 103.857 127.725L93.2627 129.661Z" stroke="url(#paint49_linear_1132_483)" stroke-width="4"/>
<path opacity="0.73913" d="M92.1445 129.394C83.6369 130.538 76.5137 135.988 73.5544 143.616L69.8935 153.052C67.5497 159.094 68.0875 165.83 71.3685 171.529L81.7986 189.645C84.7124 194.706 89.5537 198.535 95.3219 200.34L111.327 205.349C118.942 207.732 127.268 206.316 133.452 201.585L139.604 196.878C145.789 192.147 148.992 184.744 148.116 177.205L146.275 161.36C145.612 155.65 142.662 150.374 138.035 146.624L121.473 133.198C116.263 128.975 109.407 127.072 102.669 127.978L92.1445 129.394Z" stroke="url(#paint50_linear_1132_483)" stroke-width="4"/>
<path opacity="0.753623" d="M91.0079 129.258C82.5553 129.994 75.2531 134.99 71.8912 142.336L67.7419 151.402C65.0348 157.317 65.1913 164.099 68.1708 169.99L77.1743 187.792C79.8408 193.064 84.5481 197.183 90.3012 199.278L105.491 204.808C112.944 207.521 121.271 206.526 127.654 202.16L134.085 197.76C140.468 193.393 144.052 186.24 143.624 178.721L142.751 163.397C142.42 157.593 139.723 152.098 135.23 148.075L120.06 134.492C115.04 129.997 108.246 127.756 101.44 128.349L91.0079 129.258Z" stroke="url(#paint51_linear_1132_483)" stroke-width="4"/>
<path opacity="0.768116" d="M89.8447 129.249C81.4704 129.587 74.0197 134.127 70.2777 141.171L65.6682 149.849C62.604 155.617 62.3742 162.425 65.0388 168.494L72.6746 185.886C75.0785 191.361 79.6353 195.768 85.3597 198.154L99.7173 204.139C106.991 207.171 115.295 206.593 121.853 202.597L128.55 198.516C135.108 194.52 139.055 187.634 139.072 180.161L139.104 165.408C139.117 159.526 136.689 153.822 132.345 149.529L118.547 135.892C113.732 131.133 107.018 128.555 100.161 128.832L89.8447 129.249Z" stroke="url(#paint52_linear_1132_483)" stroke-width="4"/>
<path opacity="0.782609" d="M88.6484 129.364C80.3742 129.315 72.8043 133.4 68.7059 140.125L63.6654 148.396C60.2515 153.998 59.6315 160.812 61.9686 167.044L68.3032 183.934C70.4289 189.602 74.8182 194.296 80.4995 196.975L94.0131 203.349C101.091 206.687 109.347 206.518 116.056 202.898L123.007 199.148C129.716 195.527 134.008 188.926 134.464 181.523L135.336 167.387C135.702 161.445 133.558 155.54 129.379 150.979L116.926 137.391C112.332 132.377 105.717 129.466 98.8248 129.425L88.6484 129.364Z" stroke="url(#paint53_linear_1132_483)" stroke-width="4"/>
<path opacity="0.797101" d="M87.4141 129.6C79.2602 129.175 71.5995 132.807 67.169 139.198L61.7278 147.047C57.9731 152.463 56.96 159.262 58.9574 165.64L64.0645 181.946C65.8966 187.796 70.1006 192.772 75.7241 195.746L88.387 202.442C95.2533 206.074 103.438 206.306 110.276 203.065L117.464 199.657C124.302 196.416 128.918 190.115 129.808 182.806L131.45 169.328C132.179 163.342 130.336 157.248 126.338 152.425L115.194 138.98C110.835 133.722 104.338 130.483 97.4279 130.123L87.4141 129.6Z" stroke="url(#paint54_linear_1132_483)" stroke-width="4"/>
<path opacity="0.811594" d="M86.1332 129.953C78.1184 129.165 70.3938 132.348 65.6558 138.392L59.8458 145.803C55.7603 151.014 54.3524 157.777 55.9988 164.283L59.9584 179.93C61.4816 185.949 65.4822 191.202 71.0324 194.471L82.8431 201.426C89.4834 205.336 97.5754 205.961 104.519 203.099L111.925 200.048C118.869 197.186 123.789 191.199 125.106 184.01L127.448 171.223C128.548 165.214 127.021 158.942 123.221 153.861L113.341 140.654C109.233 135.162 102.873 131.6 95.9615 130.92L86.1332 129.953Z" stroke="url(#paint55_linear_1132_483)" stroke-width="4"/>
<path opacity="0.826087" d="M84.8025 130.418C76.944 129.28 69.1813 132.02 64.1607 137.705L58.0148 144.665C53.6097 149.653 51.8067 156.358 53.0917 162.974L55.9896 177.895C57.1887 184.069 60.9675 189.592 66.4284 193.154L77.3901 200.304C83.7912 204.479 91.7693 205.486 98.7964 203.005L106.4 200.321C113.427 197.84 118.632 192.179 120.366 185.132L123.335 173.065C124.814 167.053 123.618 160.617 120.032 155.286L111.366 142.402C107.523 136.689 101.318 132.81 94.4226 131.812L84.8025 130.418Z" stroke="url(#paint56_linear_1132_483)" stroke-width="4"/>
<path opacity="0.84058" d="M83.4147 130.991C75.7282 129.517 67.9514 131.822 62.6733 137.139L56.2257 143.634C51.5135 148.382 49.3163 155.007 50.2304 161.714L52.1572 175.848C53.0178 182.162 56.556 187.949 61.9115 191.802L72.0321 199.085C78.1815 203.51 86.0261 204.887 93.115 202.786L100.894 200.48C107.983 198.379 113.452 193.056 115.591 186.174L119.113 174.848C120.977 168.854 120.128 162.27 116.773 156.696L109.262 144.216C105.698 138.296 99.6667 134.109 92.8043 132.792L83.4147 130.991Z" stroke="url(#paint57_linear_1132_483)" stroke-width="4"/>
<path opacity="0.855072" d="M81.9647 131.669C74.4644 129.873 66.6964 131.751 61.1857 136.692L54.4719 142.713C49.4662 147.202 46.8771 153.726 47.4121 160.502L48.4623 173.801C48.9705 180.237 52.2493 186.277 57.4828 190.42L66.7749 197.775C72.6613 202.434 80.3541 204.17 87.4837 202.446L95.4131 200.529C102.543 198.805 108.254 193.829 110.788 187.134L114.788 176.566C117.041 170.613 116.553 163.898 113.446 158.09L107.026 146.089C103.755 139.975 97.9151 135.489 91.1023 133.857L81.9647 131.669Z" stroke="url(#paint58_linear_1132_483)" stroke-width="4"/>
<path opacity="0.869565" d="M80.4471 132.445C73.1458 130.341 65.4081 131.802 59.6893 136.362L52.7459 141.9C47.4616 146.114 44.4842 152.514 44.6332 159.338L44.9044 171.76C45.0472 178.3 48.048 184.583 53.1427 189.011L61.623 196.381C67.2364 201.259 74.7603 203.339 81.9105 201.99L89.9629 200.47C97.1131 199.121 103.046 194.501 105.961 188.013L110.363 178.212C113.009 172.324 112.896 165.495 110.054 159.465L104.655 148.01C101.689 141.718 96.0585 136.943 89.3119 134.999L80.4471 132.445Z" stroke="url(#paint59_linear_1132_483)" stroke-width="4"/>
<path opacity="0.884058" d="M78.8581 133.316C71.7672 130.919 64.0797 131.972 58.1772 136.147L51.0418 141.195C45.4946 145.119 42.1343 151.372 41.8916 158.222L41.4836 169.736C41.249 176.36 43.9535 182.873 48.8926 187.581L56.5819 194.909C61.9133 199.99 69.2527 202.402 76.4038 201.423L84.5504 200.308C91.7016 199.328 97.835 195.072 101.115 188.811L105.847 179.782C108.886 173.982 109.161 167.061 106.6 160.82L102.148 149.972C99.4991 143.517 94.0942 138.465 87.4301 136.213L78.8581 133.316Z" stroke="url(#paint60_linear_1132_483)" stroke-width="4"/>
<path opacity="0.898551" d="M77.1907 134.275C70.3203 131.601 62.7018 132.257 56.6395 136.044L49.3507 140.598C43.5573 144.217 39.8207 150.301 39.1822 157.154L38.1963 167.737C37.5735 174.423 39.9638 181.152 44.7305 186.133L51.6536 193.367C56.6951 198.636 63.8353 201.365 70.9687 200.751L79.179 200.045C86.3123 199.431 92.6251 195.543 96.2556 189.529L101.241 181.27C104.674 175.583 105.348 168.59 103.084 162.153L99.5002 151.963C97.1794 145.365 92.0168 140.047 85.4512 137.491L77.1907 134.275Z" stroke="url(#paint61_linear_1132_483)" stroke-width="4"/>
<path opacity="0.913043" d="M75.4421 135.319C68.8012 132.381 61.2691 132.651 55.0705 136.049L47.6673 140.107C41.6454 143.408 37.5408 149.301 36.504 156.135L35.0418 165.772C34.0213 172.497 36.0803 179.427 40.658 184.674L46.8429 191.764C51.5878 197.203 58.5158 200.236 65.6133 199.981L73.8555 199.686C80.9531 199.432 87.424 195.919 91.3878 190.168L96.5545 182.672C100.379 177.123 101.462 170.081 99.5102 163.462L96.7132 153.977C94.7299 147.252 89.8251 141.682 83.3736 138.828L75.4421 135.319Z" stroke="url(#paint62_linear_1132_483)" stroke-width="4"/>
<path opacity="0.927536" d="M73.607 136.441C67.2034 133.254 59.774 133.15 53.4619 136.158L45.9838 139.722C39.7521 142.692 35.2892 148.372 33.8532 155.161L32.0159 163.848C30.59 170.589 32.3013 177.702 36.6738 183.207L42.1519 190.104C46.5946 195.698 53.2981 199.02 60.3424 199.119L68.5841 199.235C75.6285 199.334 82.2366 196.199 86.5157 190.728L91.7924 183.982C96.004 178.597 97.5059 171.53 95.8801 164.745L93.7854 156.003C92.1482 149.171 87.5156 143.363 81.1934 140.217L73.607 136.441Z" stroke="url(#paint63_linear_1132_483)" stroke-width="4"/>
<path opacity="0.942029" d="M71.6819 137.636C65.5225 134.214 58.211 133.747 51.8079 136.366L44.2946 139.44C37.8723 142.067 33.0624 147.513 31.2279 154.234L29.1158 161.973C27.2782 168.706 28.6267 175.984 32.778 181.737L37.5838 188.398C41.7195 194.13 48.1876 197.726 55.1621 198.171L63.3702 198.695C70.3447 199.141 77.069 196.387 81.6449 191.211L86.962 185.197C91.5551 180.002 93.4824 172.934 92.1962 166.002L90.7179 158.034C89.4339 151.113 85.087 145.082 78.9091 141.65L71.6819 137.636Z" stroke="url(#paint64_linear_1132_483)" stroke-width="4"/>
<path opacity="0.956522" d="M69.662 138.897C63.7528 135.255 56.5736 134.438 50.1013 136.67L42.5923 139.26C35.9993 141.533 30.8552 146.724 28.6248 153.354L26.3361 160.157C24.0826 166.856 25.0542 174.278 28.969 180.269L33.1393 186.652C36.9646 192.506 43.1873 196.362 50.076 197.146L58.2174 198.073C65.1062 198.858 71.9257 196.487 76.7787 191.621L82.0694 186.316C87.036 181.336 89.3941 174.293 88.4596 167.231L87.5106 160.06C86.5857 153.07 82.5371 146.833 76.5177 143.123L69.662 138.897Z" stroke="url(#paint65_linear_1132_483)" stroke-width="4"/>
<path opacity="0.971014" d="M67.5451 140.219C61.8913 136.371 54.8577 135.215 48.3376 137.062L40.8719 139.178C34.129 141.089 28.6649 146.005 26.0428 152.519L23.6734 158.405C21.0014 165.044 21.5833 172.589 25.247 178.807L28.8213 184.873C32.3336 190.834 38.3019 194.935 45.0895 196.05L53.1314 197.372C59.9189 198.488 66.813 196.501 71.9228 191.957L77.1228 187.333C82.4529 182.593 85.2453 175.603 84.6734 168.431L84.1662 162.072C83.605 155.035 79.8659 148.606 74.0189 144.626L67.5451 140.219Z" stroke="url(#paint66_linear_1132_483)" stroke-width="4"/>
<path opacity="0.985507" d="M65.3274 141.596C59.9335 137.554 53.0583 136.072 46.5113 137.539L39.127 139.193C32.2554 140.733 26.4869 145.354 23.4792 151.729L21.1218 156.725C18.0307 163.276 18.2118 170.923 21.6105 177.355L24.6301 183.07C27.8278 189.123 33.5337 193.454 40.2052 194.892L48.1156 196.598C54.7871 198.036 61.735 196.434 67.0807 192.224L72.1288 188.248C77.8106 183.773 81.0389 176.862 80.8389 169.601L80.6864 164.064C80.4919 156.999 77.0726 150.397 71.4113 146.155L65.3274 141.596Z" stroke="url(#paint67_linear_1132_483)" stroke-width="4"/>
<path d="M63.0064 143.02C57.8762 138.799 51.1714 137.002 44.618 138.093L37.352 139.302C30.3735 140.463 24.3176 144.771 20.932 150.983L18.6759 155.122C15.1672 161.559 14.9378 169.284 18.0584 175.919L20.5665 181.251C23.4488 187.379 28.8851 191.925 35.4263 193.678L43.1742 195.754C49.7154 197.506 56.6965 196.287 62.2566 192.422L67.0948 189.058C73.1146 184.873 76.7782 178.068 76.9584 170.739L77.0742 166.026C77.248 158.954 74.1574 152.195 68.6944 147.7L63.0064 143.02Z" stroke="url(#paint68_linear_1132_483)" stroke-width="4"/>
<defs>
<linearGradient id="paint0_linear_1132_483" x1="297.028" y1="251.16" x2="272.886" y2="74.8489" gradientUnits="userSpaceOnUse">
<stop stop-color="#FF1CF7"/>
<stop offset="1" stop-color="#00F0FF"/>
</linearGradient>
<linearGradient id="paint1_linear_1132_483" x1="288.83" y1="250.933" x2="273.737" y2="75.5564" gradientUnits="userSpaceOnUse">
<stop stop-color="#FF1CF7"/>
<stop offset="1" stop-color="#00F0FF"/>
</linearGradient>
<linearGradient id="paint2_linear_1132_483" x1="280.686" y1="250.469" x2="274.451" y2="76.4392" gradientUnits="userSpaceOnUse">
<stop stop-color="#FF1CF7"/>
<stop offset="1" stop-color="#00F0FF"/>
</linearGradient>
<linearGradient id="paint3_linear_1132_483" x1="272.609" y1="249.771" x2="275.03" y2="77.4816" gradientUnits="userSpaceOnUse">
<stop stop-color="#FF1CF7"/>
<stop offset="1" stop-color="#00F0FF"/>
</linearGradient>
<linearGradient id="paint4_linear_1132_483" x1="264.611" y1="248.847" x2="275.479" y2="78.6714" gradientUnits="userSpaceOnUse">
<stop stop-color="#FF1CF7"/>
<stop offset="1" stop-color="#00F0FF"/>
</linearGradient>
<linearGradient id="paint5_linear_1132_483" x1="256.706" y1="247.704" x2="275.803" y2="79.9982" gradientUnits="userSpaceOnUse">
<stop stop-color="#FF1CF7"/>
<stop offset="1" stop-color="#00F0FF"/>
</linearGradient>
<linearGradient id="paint6_linear_1132_483" x1="248.904" y1="246.347" x2="276.007" y2="81.4526" gradientUnits="userSpaceOnUse">
<stop stop-color="#FF1CF7"/>
<stop offset="1" stop-color="#00F0FF"/>
</linearGradient>
<linearGradient id="paint7_linear_1132_483" x1="241.218" y1="244.786" x2="276.096" y2="83.0278" gradientUnits="userSpaceOnUse">
<stop stop-color="#FF1CF7"/>
<stop offset="1" stop-color="#00F0FF"/>
</linearGradient>
<linearGradient id="paint8_linear_1132_483" x1="233.657" y1="243.029" x2="276.076" y2="84.7188" gradientUnits="userSpaceOnUse">
<stop stop-color="#FF1CF7"/>
<stop offset="1" stop-color="#00F0FF"/>
</linearGradient>
<linearGradient id="paint9_linear_1132_483" x1="226.232" y1="241.084" x2="275.953" y2="86.5218" gradientUnits="userSpaceOnUse">
<stop stop-color="#FF1CF7"/>
<stop offset="1" stop-color="#00F0FF"/>
</linearGradient>
<linearGradient id="paint10_linear_1132_483" x1="218.954" y1="238.961" x2="275.732" y2="88.4351" gradientUnits="userSpaceOnUse">
<stop stop-color="#FF1CF7"/>
<stop offset="1" stop-color="#00F0FF"/>
</linearGradient>
<linearGradient id="paint11_linear_1132_483" x1="211.831" y1="236.669" x2="275.416" y2="90.4583" gradientUnits="userSpaceOnUse">
<stop stop-color="#FF1CF7"/>
<stop offset="1" stop-color="#00F0FF"/>
</linearGradient>
<linearGradient id="paint12_linear_1132_483" x1="204.871" y1="234.218" x2="275.009" y2="92.5924" gradientUnits="userSpaceOnUse">
<stop stop-color="#FF1CF7"/>
<stop offset="1" stop-color="#00F0FF"/>
</linearGradient>
<linearGradient id="paint13_linear_1132_483" x1="198.083" y1="231.62" x2="274.511" y2="94.8391" gradientUnits="userSpaceOnUse">
<stop stop-color="#FF1CF7"/>
<stop offset="1" stop-color="#00F0FF"/>
</linearGradient>
<linearGradient id="paint14_linear_1132_483" x1="191.474" y1="228.884" x2="273.925" y2="97.2011" gradientUnits="userSpaceOnUse">
<stop stop-color="#FF1CF7"/>
<stop offset="1" stop-color="#00F0FF"/>
</linearGradient>
<linearGradient id="paint15_linear_1132_483" x1="185.049" y1="226.022" x2="273.247" y2="99.6813" gradientUnits="userSpaceOnUse">
<stop stop-color="#FF1CF7"/>
<stop offset="1" stop-color="#00F0FF"/>
</linearGradient>
<linearGradient id="paint16_linear_1132_483" x1="178.815" y1="223.044" x2="272.476" y2="102.283" gradientUnits="userSpaceOnUse">
<stop stop-color="#FF1CF7"/>
<stop offset="1" stop-color="#00F0FF"/>
</linearGradient>
<linearGradient id="paint17_linear_1132_483" x1="172.777" y1="219.963" x2="271.608" y2="105.01" gradientUnits="userSpaceOnUse">
<stop stop-color="#FF1CF7"/>
<stop offset="1" stop-color="#00F0FF"/>
</linearGradient>
<linearGradient id="paint18_linear_1132_483" x1="166.939" y1="216.79" x2="270.635" y2="107.865" gradientUnits="userSpaceOnUse">
<stop stop-color="#FF1CF7"/>
<stop offset="1" stop-color="#00F0FF"/>
</linearGradient>
<linearGradient id="paint19_linear_1132_483" x1="161.303" y1="213.537" x2="269.549" y2="110.851" gradientUnits="userSpaceOnUse">
<stop stop-color="#FF1CF7"/>
<stop offset="1" stop-color="#00F0FF"/>
</linearGradient>
<linearGradient id="paint20_linear_1132_483" x1="155.876" y1="210.214" x2="268.344" y2="113.969" gradientUnits="userSpaceOnUse">
<stop stop-color="#FF1CF7"/>
<stop offset="1" stop-color="#00F0FF"/>
</linearGradient>
<linearGradient id="paint21_linear_1132_483" x1="150.656" y1="206.834" x2="267.006" y2="117.218" gradientUnits="userSpaceOnUse">
<stop stop-color="#FF1CF7"/>
<stop offset="1" stop-color="#00F0FF"/>
</linearGradient>
<linearGradient id="paint22_linear_1132_483" x1="145.646" y1="203.41" x2="265.525" y2="120.6" gradientUnits="userSpaceOnUse">
<stop stop-color="#FF1CF7"/>
<stop offset="1" stop-color="#00F0FF"/>
</linearGradient>
<linearGradient id="paint23_linear_1132_483" x1="140.848" y1="199.952" x2="263.887" y2="124.109" gradientUnits="userSpaceOnUse">
<stop stop-color="#FF1CF7"/>
<stop offset="1" stop-color="#00F0FF"/>
</linearGradient>
<linearGradient id="paint24_linear_1132_483" x1="136.259" y1="196.472" x2="262.079" y2="127.741" gradientUnits="userSpaceOnUse">
<stop stop-color="#FF1CF7"/>
<stop offset="1" stop-color="#00F0FF"/>
</linearGradient>
<linearGradient id="paint25_linear_1132_483" x1="131.88" y1="192.981" x2="260.086" y2="131.49" gradientUnits="userSpaceOnUse">
<stop stop-color="#FF1CF7"/>
<stop offset="1" stop-color="#00F0FF"/>
</linearGradient>
<linearGradient id="paint26_linear_1132_483" x1="127.711" y1="189.491" x2="257.895" y2="135.345" gradientUnits="userSpaceOnUse">
<stop stop-color="#FF1CF7"/>
<stop offset="1" stop-color="#00F0FF"/>
</linearGradient>
<linearGradient id="paint27_linear_1132_483" x1="123.748" y1="186.013" x2="255.491" y2="139.295" gradientUnits="userSpaceOnUse">
<stop stop-color="#FF1CF7"/>
<stop offset="1" stop-color="#00F0FF"/>
</linearGradient>
<linearGradient id="paint28_linear_1132_483" x1="119.99" y1="182.558" x2="252.861" y2="143.326" gradientUnits="userSpaceOnUse">
<stop stop-color="#FF1CF7"/>
<stop offset="1" stop-color="#00F0FF"/>
</linearGradient>
<linearGradient id="paint29_linear_1132_483" x1="116.432" y1="179.136" x2="249.993" y2="147.421" gradientUnits="userSpaceOnUse">
<stop stop-color="#FF1CF7"/>
<stop offset="1" stop-color="#00F0FF"/>
</linearGradient>
<linearGradient id="paint30_linear_1132_483" x1="113.07" y1="175.758" x2="246.877" y2="151.561" gradientUnits="userSpaceOnUse">
<stop stop-color="#FF1CF7"/>
<stop offset="1" stop-color="#00F0FF"/>
</linearGradient>
<linearGradient id="paint31_linear_1132_483" x1="109.901" y1="172.434" x2="243.504" y2="155.725" gradientUnits="userSpaceOnUse">
<stop stop-color="#FF1CF7"/>
<stop offset="1" stop-color="#00F0FF"/>
</linearGradient>
<linearGradient id="paint32_linear_1132_483" x1="106.919" y1="169.172" x2="239.867" y2="159.892" gradientUnits="userSpaceOnUse">
<stop stop-color="#FF1CF7"/>
<stop offset="1" stop-color="#00F0FF"/>
</linearGradient>
<linearGradient id="paint33_linear_1132_483" x1="104.119" y1="165.984" x2="235.964" y2="164.036" gradientUnits="userSpaceOnUse">
<stop stop-color="#FF1CF7"/>
<stop offset="1" stop-color="#00F0FF"/>
</linearGradient>
<linearGradient id="paint34_linear_1132_483" x1="101.494" y1="162.876" x2="231.793" y2="168.134" gradientUnits="userSpaceOnUse">
<stop stop-color="#FF1CF7"/>
<stop offset="1" stop-color="#00F0FF"/>
</linearGradient>
<linearGradient id="paint35_linear_1132_483" x1="99.037" y1="159.858" x2="227.356" y2="172.159" gradientUnits="userSpaceOnUse">
<stop stop-color="#FF1CF7"/>
<stop offset="1" stop-color="#00F0FF"/>
</linearGradient>
<linearGradient id="paint36_linear_1132_483" x1="96.7423" y1="156.938" x2="222.661" y2="176.087" gradientUnits="userSpaceOnUse">
<stop stop-color="#FF1CF7"/>
<stop offset="1" stop-color="#00F0FF"/>
</linearGradient>
<linearGradient id="paint37_linear_1132_483" x1="94.6024" y1="154.123" x2="217.716" y2="179.893" gradientUnits="userSpaceOnUse">
<stop stop-color="#FF1CF7"/>
<stop offset="1" stop-color="#00F0FF"/>
</linearGradient>
<linearGradient id="paint38_linear_1132_483" x1="92.6082" y1="151.42" x2="212.532" y2="183.553" gradientUnits="userSpaceOnUse">
<stop stop-color="#FF1CF7"/>
<stop offset="1" stop-color="#00F0FF"/>
</linearGradient>
<linearGradient id="paint39_linear_1132_483" x1="90.7523" y1="148.835" x2="207.124" y2="187.045" gradientUnits="userSpaceOnUse">
<stop stop-color="#FF1CF7"/>
<stop offset="1" stop-color="#00F0FF"/>
</linearGradient>
<linearGradient id="paint40_linear_1132_483" x1="89.0256" y1="146.373" x2="201.511" y2="190.35" gradientUnits="userSpaceOnUse">
<stop stop-color="#FF1CF7"/>
<stop offset="1" stop-color="#00F0FF"/>
</linearGradient>
<linearGradient id="paint41_linear_1132_483" x1="87.4197" y1="144.042" x2="195.711" y2="193.449" gradientUnits="userSpaceOnUse">
<stop stop-color="#FF1CF7"/>
<stop offset="1" stop-color="#00F0FF"/>
</linearGradient>
<linearGradient id="paint42_linear_1132_483" x1="85.9264" y1="141.845" x2="189.748" y2="196.328" gradientUnits="userSpaceOnUse">
<stop stop-color="#FF1CF7"/>
<stop offset="1" stop-color="#00F0FF"/>
</linearGradient>
<linearGradient id="paint43_linear_1132_483" x1="84.5342" y1="139.786" x2="183.643" y2="198.976" gradientUnits="userSpaceOnUse">
<stop stop-color="#FF1CF7"/>
<stop offset="1" stop-color="#00F0FF"/>
</linearGradient>
<linearGradient id="paint44_linear_1132_483" x1="83.2344" y1="137.869" x2="177.421" y2="201.383" gradientUnits="userSpaceOnUse">
<stop stop-color="#FF1CF7"/>
<stop offset="1" stop-color="#00F0FF"/>
</linearGradient>
<linearGradient id="paint45_linear_1132_483" x1="82.0188" y1="136.098" x2="171.107" y2="203.544" gradientUnits="userSpaceOnUse">
<stop stop-color="#FF1CF7"/>
<stop offset="1" stop-color="#00F0FF"/>
</linearGradient>
<linearGradient id="paint46_linear_1132_483" x1="80.876" y1="134.474" x2="164.723" y2="205.457" gradientUnits="userSpaceOnUse">
<stop stop-color="#FF1CF7"/>
<stop offset="1" stop-color="#00F0FF"/>
</linearGradient>
<linearGradient id="paint47_linear_1132_483" x1="79.7967" y1="133" x2="158.295" y2="207.123" gradientUnits="userSpaceOnUse">
<stop stop-color="#FF1CF7"/>
<stop offset="1" stop-color="#00F0FF"/>
</linearGradient>
<linearGradient id="paint48_linear_1132_483" x1="78.7717" y1="131.676" x2="151.845" y2="208.544" gradientUnits="userSpaceOnUse">
<stop stop-color="#FF1CF7"/>
<stop offset="1" stop-color="#00F0FF"/>
</linearGradient>
<linearGradient id="paint49_linear_1132_483" x1="77.7896" y1="130.504" x2="145.393" y2="209.728" gradientUnits="userSpaceOnUse">
<stop stop-color="#FF1CF7"/>
<stop offset="1" stop-color="#00F0FF"/>
</linearGradient>
<linearGradient id="paint50_linear_1132_483" x1="76.8414" y1="129.484" x2="138.959" y2="210.682" gradientUnits="userSpaceOnUse">
<stop stop-color="#FF1CF7"/>
<stop offset="1" stop-color="#00F0FF"/>
</linearGradient>
<linearGradient id="paint51_linear_1132_483" x1="75.9185" y1="128.616" x2="132.563" y2="211.416" gradientUnits="userSpaceOnUse">
<stop stop-color="#FF1CF7"/>
<stop offset="1" stop-color="#00F0FF"/>
</linearGradient>
<linearGradient id="paint52_linear_1132_483" x1="75.0098" y1="127.898" x2="126.218" y2="211.941" gradientUnits="userSpaceOnUse">
<stop stop-color="#FF1CF7"/>
<stop offset="1" stop-color="#00F0FF"/>
</linearGradient>
<linearGradient id="paint53_linear_1132_483" x1="74.1059" y1="127.329" x2="119.938" y2="212.271" gradientUnits="userSpaceOnUse">
<stop stop-color="#FF1CF7"/>
<stop offset="1" stop-color="#00F0FF"/>
</linearGradient>
<linearGradient id="paint54_linear_1132_483" x1="73.1987" y1="126.907" x2="113.736" y2="212.418" gradientUnits="userSpaceOnUse">
<stop stop-color="#FF1CF7"/>
<stop offset="1" stop-color="#00F0FF"/>
</linearGradient>
<linearGradient id="paint55_linear_1132_483" x1="72.2769" y1="126.63" x2="107.62" y2="212.396" gradientUnits="userSpaceOnUse">
<stop stop-color="#FF1CF7"/>
<stop offset="1" stop-color="#00F0FF"/>
</linearGradient>
<linearGradient id="paint56_linear_1132_483" x1="71.3341" y1="126.494" x2="101.598" y2="212.22" gradientUnits="userSpaceOnUse">
<stop stop-color="#FF1CF7"/>
<stop offset="1" stop-color="#00F0FF"/>
</linearGradient>
<linearGradient id="paint57_linear_1132_483" x1="70.36" y1="126.497" x2="95.6746" y2="211.903" gradientUnits="userSpaceOnUse">
<stop stop-color="#FF1CF7"/>
<stop offset="1" stop-color="#00F0FF"/>
</linearGradient>
<linearGradient id="paint58_linear_1132_483" x1="69.3469" y1="126.634" x2="89.8542" y2="211.458" gradientUnits="userSpaceOnUse">
<stop stop-color="#FF1CF7"/>
<stop offset="1" stop-color="#00F0FF"/>
</linearGradient>
<linearGradient id="paint59_linear_1132_483" x1="68.2866" y1="126.901" x2="84.1385" y2="210.898" gradientUnits="userSpaceOnUse">
<stop stop-color="#FF1CF7"/>
<stop offset="1" stop-color="#00F0FF"/>
</linearGradient>
<linearGradient id="paint60_linear_1132_483" x1="67.1725" y1="127.293" x2="78.5295" y2="210.236" gradientUnits="userSpaceOnUse">
<stop stop-color="#FF1CF7"/>
<stop offset="1" stop-color="#00F0FF"/>
</linearGradient>
<linearGradient id="paint61_linear_1132_483" x1="65.9954" y1="127.805" x2="73.0246" y2="209.481" gradientUnits="userSpaceOnUse">
<stop stop-color="#FF1CF7"/>
<stop offset="1" stop-color="#00F0FF"/>
</linearGradient>
<linearGradient id="paint62_linear_1132_483" x1="64.7501" y1="128.432" x2="67.6241" y2="208.645" gradientUnits="userSpaceOnUse">
<stop stop-color="#FF1CF7"/>
<stop offset="1" stop-color="#00F0FF"/>
</linearGradient>
<linearGradient id="paint63_linear_1132_483" x1="63.4291" y1="129.168" x2="62.325" y2="207.737" gradientUnits="userSpaceOnUse">
<stop stop-color="#FF1CF7"/>
<stop offset="1" stop-color="#00F0FF"/>
</linearGradient>
<linearGradient id="paint64_linear_1132_483" x1="62.0271" y1="130.006" x2="57.1252" y2="206.764" gradientUnits="userSpaceOnUse">
<stop stop-color="#FF1CF7"/>
<stop offset="1" stop-color="#00F0FF"/>
</linearGradient>
<linearGradient id="paint65_linear_1132_483" x1="60.5376" y1="130.941" x2="52.0206" y2="205.735" gradientUnits="userSpaceOnUse">
<stop stop-color="#FF1CF7"/>
<stop offset="1" stop-color="#00F0FF"/>
</linearGradient>
<linearGradient id="paint66_linear_1132_483" x1="58.9566" y1="131.965" x2="47.0093" y2="204.654" gradientUnits="userSpaceOnUse">
<stop stop-color="#FF1CF7"/>
<stop offset="1" stop-color="#00F0FF"/>
</linearGradient>
<linearGradient id="paint67_linear_1132_483" x1="57.279" y1="133.072" x2="42.0875" y2="203.528" gradientUnits="userSpaceOnUse">
<stop stop-color="#FF1CF7"/>
<stop offset="1" stop-color="#00F0FF"/>
</linearGradient>
<linearGradient id="paint68_linear_1132_483" x1="55.5008" y1="134.255" x2="37.2521" y2="202.36" gradientUnits="userSpaceOnUse">
<stop stop-color="#FF1CF7"/>
<stop offset="1" stop-color="#00F0FF"/>
</linearGradient>
</defs>
</svg>
