<svg width="18" height="17" viewBox="0 0 18 17" fill="none" xmlns="http://www.w3.org/2000/svg">
<path d="M16.0707 5.15041V7.55252H10.1585C9.53567 7.55252 9.02195 8.07002 9.02195 8.69507V11.1972C9.02195 11.8222 9.53567 12.3397 10.1585 12.3397H16.0707V14.7419C16.0707 15.0409 15.8447 15.2674 15.5488 15.2674H1.45122C1.15525 15.2674 0.929268 15.0409 0.929268 14.7419V4.46202C1.15136 4.56541 1.3984 4.62488 1.65854 4.62488L1.65863 4.62488C4.84411 4.62203 8.27966 4.62307 11.4159 4.62401C12.877 4.62446 14.2732 4.62488 15.5488 4.62488C15.8447 4.62488 16.0707 4.85133 16.0707 5.15041ZM10.1583 8.58656H10.1585H16.0707V11.3057H10.1585C10.1216 11.3057 10.0961 11.2931 10.08 11.277C10.0639 11.2607 10.0512 11.2348 10.0512 11.1972V8.69507C10.0512 8.65742 10.0639 8.63143 10.0801 8.61518C10.0961 8.59899 10.1216 8.58649 10.1583 8.58656ZM10.1585 8.48656H16.0707H10.1585ZM1.65854 1.08872C0.691112 1.08872 -0.1 1.88521 -0.1 2.8568V14.7419C-0.1 15.5979 0.598649 16.3014 1.45122 16.3014H15.5488C16.4014 16.3014 17.1 15.5979 17.1 14.7419V5.15041C17.1 4.29433 16.4014 3.59084 15.5488 3.59084H14.6122V1.60574C14.6122 1.3327 14.3704 1.08875 14.0976 1.08872H1.65854ZM1.65854 2.12276H13.5829V3.59084H1.65854C1.24772 3.59084 0.929268 3.27138 0.929268 2.8568C0.929268 2.44221 1.24772 2.12276 1.65854 2.12276ZM12.2317 9.01209C11.718 9.01209 11.3024 9.43082 11.3024 9.94613C11.3024 10.4615 11.718 10.8802 12.2317 10.8802C12.7455 10.8802 13.161 10.4615 13.161 9.94613C13.161 9.43082 12.7455 9.01209 12.2317 9.01209Z" fill="#A7A8AB" stroke="#A7A8AB" stroke-width="0.2"/>
</svg>
