<svg width="17" height="17" viewBox="0 0 17 17" fill="none" xmlns="http://www.w3.org/2000/svg">
<g clip-path="url(#clip0_389_3834)">
<path d="M8.0821 10.293C9.19804 10.293 10.1027 9.39754 10.1027 8.29297C10.1027 7.1884 9.19804 6.29297 8.0821 6.29297C6.96617 6.29297 6.06152 7.1884 6.06152 8.29297C6.06152 9.39754 6.96617 10.293 8.0821 10.293Z" stroke="#A7A8AB" stroke-width="1.5" stroke-linecap="round" stroke-linejoin="round"/>
<path d="M13.0662 10.2931C12.9766 10.4941 12.9498 10.7172 12.9894 10.9334C13.0291 11.1497 13.1332 11.3493 13.2885 11.5064L13.3289 11.5464C13.4542 11.6702 13.5535 11.8173 13.6213 11.9791C13.6891 12.141 13.724 12.3145 13.724 12.4897C13.724 12.6649 13.6891 12.8384 13.6213 13.0003C13.5535 13.1622 13.4542 13.3092 13.3289 13.433C13.2038 13.557 13.0552 13.6554 12.8917 13.7225C12.7282 13.7896 12.5529 13.8241 12.3759 13.8241C12.1988 13.8241 12.0236 13.7896 11.86 13.7225C11.6965 13.6554 11.5479 13.557 11.4228 13.433L11.3824 13.3931C11.2237 13.2394 11.0221 13.1363 10.8036 13.097C10.5851 13.0578 10.3597 13.0843 10.1566 13.1731C9.95739 13.2576 9.78749 13.3979 9.66782 13.5767C9.54815 13.7556 9.48394 13.9652 9.48307 14.1797V14.2931C9.48307 14.6467 9.34115 14.9858 9.08853 15.2359C8.83591 15.4859 8.49328 15.6264 8.13602 15.6264C7.77876 15.6264 7.43613 15.4859 7.18351 15.2359C6.93088 14.9858 6.78896 14.6467 6.78896 14.2931V14.2331C6.78375 14.0124 6.71159 13.7984 6.58186 13.6189C6.45213 13.4393 6.27084 13.3026 6.06155 13.2264C5.85841 13.1376 5.63306 13.1112 5.41457 13.1504C5.19608 13.1896 4.99447 13.2927 4.83574 13.4464L4.79532 13.4864C4.67022 13.6104 4.52165 13.7087 4.35812 13.7758C4.19459 13.8429 4.01931 13.8774 3.84228 13.8774C3.66526 13.8774 3.48997 13.8429 3.32644 13.7758C3.16291 13.7087 3.01435 13.6104 2.88924 13.4864C2.764 13.3626 2.66464 13.2155 2.59685 13.0536C2.52906 12.8918 2.49417 12.7183 2.49417 12.5431C2.49417 12.3678 2.52906 12.1943 2.59685 12.0325C2.66464 11.8706 2.764 11.7235 2.88924 11.5997L2.92965 11.5597C3.08493 11.4026 3.18909 11.203 3.2287 10.9868C3.26832 10.7705 3.24158 10.5475 3.15192 10.3464C3.06654 10.1492 2.92478 9.98104 2.74407 9.86259C2.56337 9.74414 2.35162 9.68057 2.13489 9.67972H2.02039C1.66313 9.67972 1.3205 9.53924 1.06788 9.28919C0.815261 9.03914 0.67334 8.70001 0.67334 8.34638C0.67334 7.99276 0.815261 7.65362 1.06788 7.40357C1.3205 7.15353 1.66313 7.01305 2.02039 7.01305H2.08101C2.30394 7.00789 2.52015 6.93646 2.70153 6.80806C2.88291 6.67965 3.02106 6.50021 3.09804 6.29305C3.18769 6.09197 3.21444 5.86892 3.17482 5.65266C3.13521 5.43639 3.03105 5.23684 2.87577 5.07972L2.83536 5.03972C2.71012 4.91589 2.61076 4.76883 2.54297 4.60697C2.47518 4.44511 2.44029 4.2716 2.44029 4.09638C2.44029 3.92116 2.47518 3.74766 2.54297 3.5858C2.61076 3.42393 2.71012 3.27688 2.83536 3.15305C2.96047 3.02908 3.10903 2.93074 3.27256 2.86364C3.43609 2.79654 3.61138 2.762 3.7884 2.762C3.96543 2.762 4.14071 2.79654 4.30424 2.86364C4.46777 2.93074 4.61634 3.02908 4.74144 3.15305L4.78185 3.19305C4.94059 3.34674 5.1422 3.44984 5.36069 3.48905C5.57918 3.52827 5.80453 3.50179 6.00767 3.41305H6.06155C6.26076 3.32854 6.43066 3.18822 6.55033 3.00936C6.67 2.8305 6.73422 2.62091 6.73508 2.40638V2.29305C6.73508 1.93943 6.877 1.60029 7.12962 1.35024C7.38225 1.10019 7.72487 0.959717 8.08213 0.959717C8.4394 0.959717 8.78202 1.10019 9.03465 1.35024C9.28727 1.60029 9.42919 1.93943 9.42919 2.29305V2.35305C9.43005 2.56757 9.49427 2.77717 9.61394 2.95603C9.73361 3.13489 9.90351 3.27521 10.1027 3.35972C10.3059 3.44846 10.5312 3.47493 10.7497 3.43572C10.9682 3.39651 11.1698 3.29341 11.3285 3.13972L11.3689 3.09972C11.4941 2.97575 11.6426 2.8774 11.8061 2.8103C11.9697 2.7432 12.145 2.70867 12.322 2.70867C12.499 2.70867 12.6743 2.7432 12.8378 2.8103C13.0014 2.8774 13.1499 2.97575 13.275 3.09972C13.4003 3.22355 13.4996 3.3706 13.5674 3.53246C13.6352 3.69433 13.6701 3.86783 13.6701 4.04305C13.6701 4.21827 13.6352 4.39177 13.5674 4.55364C13.4996 4.7155 13.4003 4.86255 13.275 4.98638L13.2346 5.02638C13.0793 5.1835 12.9752 5.38306 12.9356 5.59932C12.896 5.81559 12.9227 6.03864 13.0124 6.23972V6.29305C13.0977 6.49023 13.2395 6.6584 13.4202 6.77685C13.6009 6.8953 13.8126 6.95886 14.0294 6.95972H14.1439C14.5011 6.95972 14.8438 7.10019 15.0964 7.35024C15.349 7.60029 15.4909 7.93943 15.4909 8.29305C15.4909 8.64667 15.349 8.98581 15.0964 9.23586C14.8438 9.48591 14.5011 9.62638 14.1439 9.62638H14.0833C13.8665 9.62724 13.6548 9.6908 13.4741 9.80926C13.2934 9.92771 13.1516 10.0959 13.0662 10.2931V10.2931Z" stroke="#A7A8AB" stroke-width="1.5" stroke-linecap="round" stroke-linejoin="round"/>
</g>
<defs>
<clipPath id="clip0_389_3834">
<rect width="16.1646" height="16" fill="white" transform="translate(0 0.292969)"/>
</clipPath>
</defs>
</svg>
