<svg width="150" height="108" viewBox="0 0 150 108" fill="none" xmlns="http://www.w3.org/2000/svg">
<path d="M149.538 0.384766H0.461548V107.616H149.538V0.384766Z" fill="white"/>
<path fill-rule="evenodd" clip-rule="evenodd" d="M71.8452 87.5837C66.7859 81.2612 69.7567 60.4276 72.7651 65.7206C73.0988 66.3075 72.6357 69.0215 72.0708 71.5212C71.4317 74.3485 70.8181 78.8735 71.316 81.7127C71.582 83.2297 73.6156 89.7961 71.8452 87.5837Z" fill="#64FCD9"/>
<path fill-rule="evenodd" clip-rule="evenodd" d="M8.10058 50.1274C8.65117 41.6871 15.8589 27.0143 51.7254 25.6249C94.9724 23.9498 99.8212 0.810109 116.222 22.4294C132.623 44.0486 156.137 66.8062 130.906 84.3658C107.492 100.661 76.8725 96.5006 37.5338 82.3488C8.83565 72.0235 7.54969 58.5675 8.10024 50.1276L8.10058 50.1274Z" fill="#808080"/>
<path d="M80.0862 56.4555C80.0862 56.4555 78.5805 57.1808 77.5917 56.152L77.2237 55.9725C77.2237 55.9725 76.0456 56.2259 76.9025 54.7878C76.9025 54.7878 77.3104 54.4042 77.2237 54.1337C77.2237 54.1337 77.4859 54.4042 78.0792 54.1337C78.0792 54.1337 78.446 54.1276 78.8358 54.2804L79.0321 54.1337C79.0321 54.1337 78.286 53.6532 79.3305 53.0494C79.3305 53.0494 79.6593 52.7014 79.6438 52.4218C79.6438 52.4218 79.7394 52.7638 80.0979 52.7565C80.0979 52.7565 80.903 52.6707 81.1928 52.9522C81.1928 52.9522 82.0741 51.8787 83.0463 51.7398H83.6567C83.6567 51.7398 82.9169 51.6081 82.9509 50.8262L83.0403 50.6372C83.0403 50.6372 82.3291 50.3684 82.6601 49.8362C82.6601 49.8362 83.0131 49.4802 83.4627 49.3551C83.4627 49.3551 83.8823 49.1873 83.9402 48.9961C83.9402 48.9961 84.0272 49.2858 84.5538 49.3239C84.5538 49.3239 85.5494 49.3109 85.6468 49.8356C85.6468 49.8356 85.6653 50.3491 85.575 50.7186C85.575 50.7186 86.0032 50.0291 87.9581 50.851C87.9581 50.851 88.429 51.2105 88.9939 50.9912C88.9939 50.9912 88.5049 51.2151 88.6031 51.6234C88.6031 51.6234 88.812 52.2456 88.3618 52.6123C88.3618 52.6123 89.5518 52.6632 90.3399 53.1102C90.3399 53.1102 91.1996 53.6989 90.6906 54.7684L90.5021 55.0165C90.5021 55.0165 91.1473 54.8 91.5353 55.3795C91.5353 55.3795 91.8468 55.5286 92.0943 55.36C92.0943 55.36 91.8452 55.5249 91.8222 55.8107C91.8222 55.8107 91.982 57.0151 91.0394 57.1614C91.0394 57.1614 90.389 57.1173 90.0925 56.9049L89.7728 56.8171C89.7728 56.8171 89.4775 57.416 88.5091 57.4433C88.5091 57.4433 87.7806 57.4044 87.521 57.1892L87.2145 56.9761C87.2145 56.9761 87.1976 57.4224 86.7223 57.5571C86.7223 57.5571 85.2254 57.7804 84.702 56.6288L84.4156 56.3373L84.1966 56.3566C84.1966 56.3566 83.9728 57.031 82.6303 57.0268C82.6303 57.0268 80.9674 57.2659 80.0862 56.4555Z" fill="white"/>
<path fill-rule="evenodd" clip-rule="evenodd" d="M75.9095 59.1808C76.703 59.0164 77.3965 58.5161 77.4315 57.9231C77.4573 57.4807 77.0178 57.0022 76.4617 56.9009C75.5612 56.7371 73.3905 56.4803 71.8838 56.4344C72.3074 55.6107 72.7308 54.7871 73.1543 53.9634C73.5155 54.2113 73.7405 53.996 73.7348 53.9827C73.504 53.4371 73.5435 52.5953 74.4887 52.2934C76.0572 51.7926 76.9341 50.1614 75.7527 49.2665C75.3625 48.971 74.8363 48.8063 74.3108 48.642C74.1287 48.585 73.9468 48.5281 73.7707 48.4657C73.0862 48.2235 72.4038 47.8039 72.4022 47.2555C73.6238 47.1406 74.663 46.4831 75.1895 45.6823C75.7161 44.8817 75.7847 43.9585 75.6211 43.0807C75.6151 43.049 75.6091 43.0168 75.603 42.9845C75.5034 42.461 75.3927 41.8793 75.8729 41.4904C76.8854 40.6709 76.3786 39.3962 75.8186 38.3768C75.6825 38.1288 75.4515 37.8352 75.0818 37.8542C74.8661 37.8655 74.6954 37.986 74.5571 38.1052C73.8264 38.7352 73.4137 39.5517 73.4114 40.372C72.5606 40.392 72.0945 40.067 71.5034 39.6266C71.0639 39.2992 70.303 39.4659 69.4097 39.6615C69.0058 39.75 68.5747 39.8445 68.134 39.9017C67.5956 39.2987 68.208 38.9511 68.2521 39.525C68.7454 38.8815 68.8589 38.0931 68.5594 37.3907C68.2777 37.1905 67.7268 37.2644 67.5644 37.5239C65.8545 35.2203 62.4447 33.6163 58.8233 33.4121C58.9302 33.7222 58.5263 34.026 58.0898 34.0864C57.6533 34.1464 57.2103 34.0346 56.7931 33.9245C58.5377 34.4264 61.1546 37.7291 60.418 40.7248C59.8132 43.1845 57.5746 45.5575 56.9246 46.2465C56.8809 46.293 56.8443 46.3317 56.8159 46.3623C56.6961 46.2425 55.0755 46.4402 54.8882 46.6784C52.441 49.7898 54.0232 54.2003 58.2584 56.0733C58.2767 56.0814 58.3009 56.092 58.3305 56.105C58.7957 56.309 60.5738 57.0885 60.9674 57.5352C60.9762 57.5449 60.9835 57.5593 60.9923 57.5763C61.0346 57.6588 61.1093 57.8041 61.5092 57.7918C61.3302 58.6216 61.2993 59.6781 62.3357 60.0654C62.8203 60.2464 63.3995 60.2108 63.9428 60.1705L64.6931 60.115C65.6112 60.0469 66.5294 59.979 67.4473 59.911C68.263 59.8506 68.7063 59.1042 68.435 58.5477C68.164 57.9914 67.4185 57.6262 66.6625 57.3976C66.9665 57.2937 67.2706 57.1897 67.5745 57.0858C67.8784 56.9819 68.1823 56.8781 68.4864 56.774C68.105 57.4053 69.2124 57.9482 70.1132 58.1816C70.7113 58.3364 71.3092 58.4914 71.9071 58.6464C72.1903 58.7197 72.4738 58.7932 72.7572 58.8665C73.7727 59.1296 74.8721 59.3956 75.9095 59.1808ZM102.649 73.9226C103.321 73.6757 103.992 73.4291 104.718 73.2897C105.901 73.0618 104.257 73.1076 104.257 73.1076C105.101 72.613 108.685 73.3347 108.734 74.7084C108.753 75.2205 107.843 76.1399 106.387 76.7635C105.794 77.0174 105.143 77.141 104.496 77.2638C103.965 77.3647 103.436 77.4649 102.945 77.6364C102.131 77.9203 101.398 78.5507 101.039 78.8855C100.607 79.288 101.011 79.4408 101.358 79.5719C101.654 79.6839 101.909 79.7801 101.567 80.0022C99.043 81.6415 100.273 85.2592 100.694 86.4962C100.759 86.6889 100.805 86.8239 100.814 86.8845C100.822 86.1215 101.899 85.5676 102.945 85.4378C103.563 85.3617 104.191 85.3853 104.819 85.4089C105.255 85.4252 105.691 85.4416 106.126 85.4247C108.064 85.3481 109.922 84.5589 110.951 83.3765C110.971 83.7361 111.257 84.0835 111.687 84.2685C112.444 82.3893 113.742 80.6232 115.474 79.1149C115.595 79.0098 115.718 78.9048 115.842 78.7993C116.679 78.0867 117.543 77.352 117.709 76.441C117.861 75.6068 117.34 74.729 116.407 74.2208C116.386 74.2096 116.365 74.1981 116.344 74.1865C116.087 74.0481 115.802 73.8939 115.802 73.669C115.802 73.4635 116.273 73.3906 116.38 73.5138C116.386 73.5437 116.392 73.5746 116.396 73.6053C116.407 73.567 116.401 73.5373 116.38 73.5138C116.114 72.2465 113.898 71.7291 112.09 71.5721C110.239 71.4124 107.969 71.0874 107.444 69.8024C106.173 66.6908 105.66 63.4204 105.935 60.1839C105.962 59.8734 105.995 59.5627 106.029 59.2519C106.139 58.2325 106.249 57.2122 106.107 56.1971C105.936 54.9845 105.41 53.8147 104.886 52.6556C104.548 51.9057 104.195 51.1364 103.498 50.5271C102.802 49.9179 101.85 49.6235 100.608 49.6836C100.42 49.5419 100.388 49.2785 100.442 49.0405C100.521 48.6911 100.739 48.459 100.941 48.4767C101.282 48.5068 100.669 47.9119 100.296 47.9899C100.057 48.04 99.8312 48.1659 99.6622 48.2603C99.5 48.3509 99.3899 48.4124 99.3702 48.3491C99.242 47.9367 99.0321 47.4107 98.6499 47.5836C97.0961 48.2863 96.6439 49.838 96.853 49.9058C96.7562 49.8838 95.824 49.6774 95.728 49.8207C95.3251 50.4222 94.4928 50.8521 93.6852 51.269C92.6071 51.8259 91.5731 52.3599 91.6655 53.2489C91.7319 53.8852 92.4501 54.4036 93.2569 54.6698C93.3388 54.6968 93.6035 54.7357 93.9567 54.7875C95.1911 54.9685 97.5034 55.3076 96.853 55.8531C96.0382 56.5362 91.8388 57.468 89.6643 57.9505C89.1819 58.0576 88.7991 58.1425 88.5751 58.1977C87.4955 57.8185 88.9322 59.6821 93.2833 61.6538C94.8685 62.3723 93.5487 64.3196 92.7063 65.5625C92.688 65.5895 92.6699 65.6162 92.652 65.6427C92.4095 66.0007 92.1344 66.3593 91.8579 66.7197C90.8603 68.0201 89.845 69.3436 90.2877 70.7447C90.3815 71.0418 90.5399 71.3256 90.6981 71.6093C90.8756 71.9275 91.0529 72.2455 91.139 72.5818C91.5645 74.2424 89.1471 75.9217 86.8533 75.5602C86.0453 75.4323 85.4663 76.2877 85.9259 76.7818C86.3856 77.2768 87.3828 77.3627 88.1694 77.1768C88.7223 77.0467 89.2105 76.8154 89.6989 76.5841C89.9048 76.4864 90.1105 76.3889 90.3214 76.299C91.0322 75.9944 91.8933 75.7684 92.6786 75.9563C92.4437 76.1266 92.1728 76.2712 91.9025 76.4155C91.494 76.6335 91.0875 76.8506 90.8104 77.1535C90.3576 77.6485 90.59 78.5199 91.3934 78.5628C85.2711 78.3528 94.756 78.8449 92.2181 78.5723C92.6798 78.299 93.3072 78.3891 93.9245 78.4778C94.1156 78.5052 94.3056 78.5325 94.4894 78.5488C95.2672 78.618 96.2957 78.0753 95.8045 77.6364C94.9599 76.8807 95.8144 75.6975 97.0098 75.2501C97.7254 74.9818 98.5197 74.8707 99.3165 74.7593C99.851 74.6845 100.387 74.6097 100.9 74.4871C101.507 74.3425 102.078 74.1325 102.649 73.9226ZM91.4361 78.5647L91.3934 78.5628C91.4073 78.5638 91.4216 78.5647 91.4361 78.5647ZM96.8611 49.9075L96.853 49.9058C96.8556 49.9066 96.8584 49.9072 96.8611 49.9075Z" fill="white"/>
<path fill-rule="evenodd" clip-rule="evenodd" d="M63.3794 50.048C63.3208 49.8956 60.2226 51.3495 62.64 54.046C65.0572 56.7425 66.4045 56.5126 65.7309 57.4894C65.7309 57.4894 66.556 57.4005 67.3192 56.6147C68.0827 55.8287 68.5836 54.0556 66.5389 52.7907C64.4941 51.5258 64.0509 51.7976 63.3794 50.048Z" fill="#E7EAEE"/>
<mask id="mask0_338_5774" style="mask-type:alpha" maskUnits="userSpaceOnUse" x="85" y="57" width="4" height="4">
<path fill-rule="evenodd" clip-rule="evenodd" d="M86.9827 59.2214C86.6531 59.2676 86.3915 59.4365 86.0987 59.5407C85.5873 59.7227 85.3174 59.2043 85.3832 58.9474C85.4299 58.7656 85.4945 58.6751 85.6652 58.5443C85.7358 58.4903 85.9268 58.355 86.0125 58.3143C86.0781 58.2831 86.2361 58.1743 86.2361 58.1743C86.2361 58.1743 86.2367 57.9863 86.1828 57.9307C86.2462 58.0012 86.4722 58.0907 86.4722 58.0907C86.4722 58.0907 86.7537 58.044 86.8876 58.0455C87.255 58.0495 87.3744 58.0571 87.7094 58.1629C87.9753 58.2468 88.2951 58.5575 88.157 58.7861C88.092 58.8935 87.9614 58.9322 87.8125 58.9403C87.6984 58.9465 87.5422 58.9506 87.4015 58.9805C87.5601 58.9685 87.7439 58.8866 87.894 59.007C87.9944 59.0876 88.0592 59.2003 88.0826 59.3035C88.1562 59.6268 88.189 59.9842 87.8562 60.2376C87.8562 60.2376 87.1035 60.5947 86.3333 59.7264" fill="white"/>
</mask>
<g mask="url(#mask0_338_5774)">
<path d="M86.1032 59.562C86.1032 59.562 84.9666 59.3943 85.5023 58.6636C85.5023 58.6636 86.1861 57.7727 87.2958 58.0185C87.2958 58.0185 88.5284 58.272 88.1302 58.7651C88.1302 58.7651 87.8039 58.9061 88.0849 59.5557C88.0849 59.5557 88.171 60.0729 87.7261 60.2492C87.7261 60.2492 86.8178 60.5341 86.195 59.6459L86.1032 59.562Z" fill="white"/>
</g>
<path fill-rule="evenodd" clip-rule="evenodd" d="M83.848 48.9284L83.5761 49.1571C83.0371 49.2789 82.5642 49.4982 82.3956 49.7701C82.2591 49.9902 82.2941 50.2507 82.627 50.5371C82.7139 50.6043 82.8127 50.659 82.9202 50.7025C82.9053 50.7133 82.8942 50.7272 82.8892 50.7432C82.8892 50.7432 82.7747 50.9424 82.8926 51.2243C82.9357 51.3278 83.0226 51.4355 83.1522 51.5482L83.1476 51.5489C82.8107 51.6039 82.5157 51.7096 82.2664 51.8403C82.2281 51.7868 82.1496 51.75 82.0593 51.7502C81.9311 51.7503 81.8272 51.8242 81.8274 51.915C81.846 51.9285 81.855 51.9395 81.8639 51.9505C81.8771 51.9667 81.8904 51.9828 81.9337 52.0065C81.9446 52.0124 81.9528 52.0186 81.9597 52.0271C81.8651 52.0933 81.7799 52.1617 81.7039 52.23C81.5016 52.4122 81.363 52.5883 81.2815 52.706C81.1533 52.6312 80.9997 52.5696 80.8313 52.5264C80.5982 52.4666 80.3372 52.4473 80.0788 52.4732C80.0579 52.4621 80.0168 52.44 79.9907 52.4245C79.9132 52.3777 79.8476 52.3281 79.8476 52.3281C79.7796 52.2799 79.681 52.2606 79.588 52.2773C79.4948 52.2941 79.4211 52.3444 79.3934 52.4096C79.3934 52.4096 79.2907 52.6541 79.2219 52.7544C79.2199 52.7576 79.2165 52.7629 79.2165 52.7629C79.2165 52.7629 79.2267 52.7542 79.2306 52.7509C79.1052 52.8591 79.0013 52.9575 78.9227 53.0507C78.7307 53.2773 78.654 53.4606 78.6467 53.6071C78.6369 53.7963 78.7246 53.928 78.8289 54.0168C78.7085 53.9773 78.5787 53.9467 78.4459 53.9307C78.2598 53.9081 78.069 53.9178 77.8854 53.9657C77.7884 53.991 77.7043 53.9907 77.6349 53.9816C77.5139 53.9657 77.4461 53.9107 77.4461 53.9107C77.3878 53.8678 77.3026 53.8493 77.2207 53.8622C77.1386 53.8751 77.072 53.9174 77.0448 53.9737C77.0448 53.9737 76.9118 54.2202 76.8005 54.4087C76.7585 54.4794 76.7206 54.5412 76.6947 54.5736C76.6087 54.6875 76.5327 54.8171 76.4844 54.9653C76.4439 55.0892 76.4236 55.226 76.4246 55.3756C76.4473 55.8716 76.7426 56.0256 77.0811 56.0346C77.1823 56.0373 77.2918 56.027 77.403 56.0035C77.4365 56.0517 77.488 56.1185 77.5596 56.1948C77.6315 56.2718 77.7248 56.3528 77.8402 56.4322C77.9229 56.4891 78.0179 56.5425 78.1239 56.587C78.2791 56.6522 78.4558 56.6991 78.6423 56.723C79.0178 56.7712 79.4286 56.7294 79.8558 56.5207C79.8651 56.5161 79.8743 56.5115 79.8834 56.5068C79.9021 56.4974 79.9208 56.4878 79.9408 56.4791C79.9701 56.4665 79.9997 56.4548 80.0321 56.4445C80.044 56.4406 80.0559 56.4369 80.0677 56.4333C80.174 56.5508 80.3752 56.7187 80.7337 56.8575C81.073 56.9889 81.564 57.0894 82.2569 57.0883C83.1571 57.0667 83.7409 56.9013 84.0544 56.6847C84.4543 56.408 84.4835 56.0503 84.1774 55.7325C83.9975 55.5463 83.7518 55.4036 83.4728 55.2992C83.5233 55.2179 83.5958 55.063 83.5773 54.8642C83.5674 54.7598 83.5237 54.6467 83.4408 54.5272C83.363 54.4149 83.2442 54.2988 83.0693 54.1892C82.9421 54.1094 82.7799 54.0375 82.5875 53.9673C82.6751 53.9481 82.7777 53.9195 82.89 53.8815C82.9645 53.8562 83.0482 53.8235 83.1454 53.7827C83.0573 53.9074 83.0174 53.9973 83.0174 53.9973C82.9929 54.0401 83.022 54.0888 83.0822 54.1063C83.1424 54.1236 83.2112 54.103 83.2356 54.0602C83.2356 54.0602 83.3951 53.8481 83.6785 53.6556C83.8922 53.5103 84.183 53.383 84.5535 53.3931C84.7763 53.3993 85.022 53.4616 85.3082 53.5928C85.5191 53.6896 85.7525 53.819 86.0003 53.9999C86.1786 54.1248 86.3086 54.2454 86.3971 54.3598C86.3764 54.3646 86.3561 54.3716 86.3372 54.3809C86.2321 54.4328 86.206 54.5356 86.2792 54.6102C86.2792 54.6102 86.3694 54.685 86.5487 54.7694C86.539 54.9175 86.4535 55.047 86.3178 55.1526C86.0556 55.3567 85.636 55.4868 85.27 55.4621C85.1168 55.4518 84.981 55.405 84.8747 55.3409C84.8111 55.3027 84.7741 55.2498 84.7427 55.1917C84.6813 55.1118 84.5402 55.0823 84.4277 55.126C84.3152 55.1694 84.2736 55.2696 84.335 55.3494C84.4827 55.4963 84.6821 55.5909 84.9246 55.6304C84.8862 55.6438 84.8475 55.6587 84.8087 55.6753C84.4829 55.816 84.3738 55.9835 84.3851 56.176C84.3961 56.3583 84.5443 56.5769 84.7359 56.8328C85.0679 57.2649 85.6908 57.5023 86.2239 57.5405C86.7882 57.581 87.2363 57.411 87.2003 57.079C87.1983 57.0328 87.1438 56.9966 87.0788 56.9981C87.014 56.9995 86.9628 57.0381 86.9649 57.0841C86.9624 57.1919 86.8707 57.259 86.7387 57.2934C86.5529 57.3419 86.2941 57.3242 86.0323 57.2564C85.6831 57.1661 85.3327 56.9758 85.1486 56.6871C85.1371 56.6697 85.1257 56.6525 85.1146 56.6356C84.9941 56.453 84.8928 56.2995 84.8934 56.1688C84.8936 56.0986 84.9546 56.048 85.0758 55.9997C85.4283 55.8561 85.7415 55.9293 86.0363 56.0833C86.404 56.2756 86.7469 56.5832 87.0733 56.8758C87.1639 56.9572 87.2532 57.0372 87.3414 57.1134C87.7372 57.45 88.2329 57.5196 88.6871 57.4572C89.2611 57.3784 89.7539 57.082 89.863 56.9021C89.8829 56.8694 89.9055 56.8286 89.9276 56.7815C89.9346 56.8189 89.9594 56.8548 90.0017 56.8821C90.3116 57.0392 90.5728 57.1077 90.8004 57.1302C91.0328 57.1532 91.2297 57.1293 91.4033 57.0573C91.7722 56.9041 92.0179 56.5468 92.0934 56.1873C92.1083 56.1176 92.1089 56.0188 92.1037 55.9182C92.098 55.8078 92.0838 55.6956 92.0733 55.6228C92.1502 55.5593 92.2745 55.4538 92.3198 55.3992C92.4559 55.2355 92.2677 55.1335 92.182 55.1128C92.1075 55.0968 92.0284 55.1065 91.9666 55.1373C91.9592 55.1328 91.9471 55.1434 91.9364 55.1547C91.9306 55.1586 91.925 55.1626 91.9199 55.1668L91.9175 55.169C91.9087 55.1703 91.8996 55.1716 91.8902 55.1723C91.8847 55.167 91.8793 55.1621 91.874 55.1578C91.7287 54.9781 91.511 54.835 91.2359 54.772C91.1473 54.7515 91.052 54.7392 90.9513 54.7366C91.0729 54.6194 91.1528 54.482 91.1956 54.3349C91.2542 54.1327 91.2383 53.9128 91.1793 53.7127C91.1089 53.4747 90.9771 53.2643 90.8356 53.1366C90.5784 52.9057 89.7912 52.5351 89.0534 52.5157C88.9522 52.5131 88.8533 52.5178 88.7555 52.529C88.8199 52.4533 88.8686 52.3727 88.9031 52.2898C88.9616 52.1498 88.9833 52.003 88.9749 51.8609C88.9616 51.6325 88.8805 51.4188 88.8055 51.2621C88.8095 51.2698 88.8123 51.289 88.7996 51.2868C88.6278 51.2595 89.1866 50.9929 89.1866 50.9929C89.2428 50.9697 89.2623 50.9186 89.2299 50.8786C89.1973 50.8387 89.1254 50.825 89.0689 50.8482C89.0689 50.8482 88.7513 50.9518 88.5696 51.0691C88.4418 51.1517 88.403 51.2532 88.4209 51.3331C88.4513 51.4527 88.4702 51.6071 88.467 51.7718C88.4645 51.9043 88.4378 52.0419 88.3788 52.1737C88.287 52.3793 88.1001 52.5691 87.7054 52.6747L87.0206 52.5294C86.9483 52.5111 86.8675 52.5245 86.8145 52.5637C86.8145 52.5637 86.7767 52.5975 86.7075 52.6479L86.6982 52.6498C86.4138 52.7093 86.2045 52.8374 86.0639 52.9842C86.0021 53.0054 85.9375 53.0245 85.8703 53.0407C85.7749 53.0636 85.6733 53.0771 85.5704 53.08C85.4271 53.0839 85.2883 53.056 85.146 53.0169C85.0679 53.0049 84.9904 53.0225 84.9365 53.059C84.8131 53.0398 84.6956 53.0322 84.5847 53.034C84.821 52.8681 84.9804 52.7126 85.0752 52.5719C85.206 52.378 85.2148 52.2034 85.1456 52.055C85.0874 51.9302 84.9627 51.8202 84.7779 51.7319C84.8059 51.716 84.8343 51.6996 84.863 51.6826C84.9767 51.6155 85.0866 51.5354 85.1975 51.4548C85.2406 51.4235 85.2838 51.392 85.3273 51.3613C85.3579 51.3397 85.3901 51.3211 85.4231 51.3021L85.4285 51.299C85.4533 51.2845 85.477 51.2702 85.5 51.2559C85.5054 51.2639 85.5109 51.2719 85.5165 51.2799C85.6525 51.4704 85.8745 51.6427 86.0665 51.7918L86.0852 51.8064C86.1212 51.8344 86.1534 51.8624 86.1844 51.8896C86.1913 51.8956 86.1981 51.9016 86.2051 51.9075C86.3559 52.0384 86.4937 52.1209 86.5722 52.1511C86.694 52.1791 86.825 52.1315 86.8642 52.0449C86.9037 51.9584 86.8365 51.8654 86.7147 51.8375C86.6795 51.8347 86.6195 51.8288 86.5491 51.8012C86.4623 51.7672 86.3587 51.7243 86.2643 51.6598C86.1335 51.5705 86.0228 51.4479 85.93 51.3243C85.7664 51.1068 85.6827 50.8625 85.9284 50.688C86.0156 50.624 86.1422 50.6107 86.2804 50.607C86.4313 50.6028 86.5966 50.624 86.769 50.6494C87.0337 50.6883 87.3088 50.7447 87.5553 50.8033C88.0019 50.9095 88.3496 51.0094 88.3496 51.0094C88.405 51.0333 88.4776 51.0207 88.5112 50.9813C88.545 50.9418 88.5271 50.8903 88.4716 50.8665C88.4716 50.8665 88.1635 50.6892 87.7326 50.5167C87.6066 50.4664 87.4704 50.4191 87.3289 50.3763C87.1868 50.3335 87.0397 50.297 86.8934 50.2707C86.7179 50.2391 86.5432 50.2225 86.3812 50.2238C86.0427 50.2262 85.7538 50.3007 85.5698 50.4641C85.4175 50.6037 85.3577 50.7557 85.3682 50.9105C85.3235 50.9252 85.2849 50.9501 85.2603 50.9836L85.2579 50.9907L85.2527 51.0064C85.2319 51.0702 85.2114 51.1325 85.1617 51.1923C85.1454 51.2117 85.1269 51.2305 85.1055 51.2475C85.0568 51.2858 84.9983 51.3173 84.9407 51.3484L84.9335 51.3523C84.7369 51.458 84.5247 51.5383 84.3603 51.5925C84.2561 51.5688 84.1426 51.5493 84.0204 51.5344C83.9745 51.5104 83.9264 51.4857 83.8795 51.4625C83.7258 51.3865 83.5839 51.3263 83.5839 51.3263L83.6161 51.3437C83.4604 51.2625 83.3577 51.1792 83.2881 51.0989C83.1337 50.9209 83.1194 50.7788 83.1194 50.7788C83.1205 50.7752 83.1211 50.7717 83.1215 50.7682C83.313 50.8173 83.5231 50.8373 83.7389 50.8317C83.9564 50.8263 84.176 50.7983 84.379 50.7582C84.8683 50.6617 85.2514 50.5103 85.2514 50.5103C85.3108 50.4919 85.3382 50.4425 85.3122 50.4004C85.2861 50.358 85.2168 50.3387 85.1571 50.3572C85.1571 50.3572 84.4149 50.5256 83.7465 50.4907C83.474 50.4766 83.2108 50.4305 83.0454 50.2831C82.8224 50.1053 82.8119 49.9487 82.9472 49.815C83.1082 49.6559 83.4016 49.5239 83.7256 49.4294C83.7783 49.4138 83.8578 49.3718 83.9281 49.3079C83.9594 49.2797 83.991 49.2477 84.0202 49.2164C84.0804 49.2533 84.1599 49.2935 84.2676 49.3296C84.3895 49.3725 84.5294 49.3795 84.6765 49.387C84.8006 49.3933 84.9299 49.3997 85.058 49.4281C85.1078 49.4393 85.1557 49.4569 85.2021 49.4798C85.3209 49.5384 85.4058 49.6415 85.4835 49.8017C85.5408 49.8831 85.6801 49.9161 85.7948 49.8757C85.9095 49.835 85.9562 49.736 85.8989 49.6546C85.7121 49.458 85.5316 49.3559 85.3466 49.2976C85.2746 49.275 85.205 49.2573 85.1351 49.2434C85.0303 49.2225 84.9252 49.2135 84.8242 49.2048C84.6753 49.1919 84.5348 49.1798 84.4155 49.1318C84.3462 49.1027 84.2949 49.0723 84.2561 49.0448C84.1889 48.9974 84.1738 48.9606 84.1738 48.9606C84.1542 48.9122 84.0961 48.8764 84.0255 48.8694C83.9552 48.8624 83.8856 48.8856 83.848 48.9284ZM91.8624 55.2412C91.8223 55.2326 91.7956 55.2143 91.7998 55.1841C91.8078 55.1272 91.8374 55.1285 91.874 55.1578C91.8779 55.1627 91.8817 55.1676 91.8857 55.1726L91.8902 55.1723C91.9058 55.1873 91.9223 55.2062 91.9386 55.227C91.895 55.2246 91.8716 55.2303 91.8624 55.2412ZM91.8942 55.2458C91.8829 55.2448 91.8722 55.2432 91.8624 55.2412C91.8531 55.2519 91.8578 55.2678 91.8704 55.2854C91.8664 55.3017 91.868 55.318 91.8753 55.3343L91.8771 55.3376C91.8875 55.3331 91.8972 55.3287 91.9065 55.3244C91.9107 55.3281 91.9149 55.3318 91.9193 55.3356L91.927 55.3324L91.9258 55.3291C91.9238 55.3253 91.9221 55.3214 91.9209 55.3175C91.9972 55.2799 92.0244 55.2486 91.9517 55.234C91.9535 55.2322 91.9554 55.2303 91.9576 55.2285C91.9509 55.2279 91.9445 55.2273 91.9386 55.227L91.9427 55.2325L91.9389 55.2318L91.9137 55.2286L91.9125 55.2296C91.9056 55.2349 91.8994 55.2403 91.8942 55.2458ZM91.9397 55.2468C91.9332 55.2548 91.9282 55.2629 91.925 55.2711C91.9167 55.2867 91.9157 55.3021 91.9209 55.3175L91.9151 55.3204C91.9123 55.3217 91.9095 55.3231 91.9065 55.3244C91.892 55.3113 91.8793 55.2978 91.8704 55.2854C91.8714 55.2812 91.873 55.2771 91.8745 55.2729C91.8789 55.2638 91.8853 55.2548 91.8942 55.2458C91.9085 55.2471 91.924 55.2473 91.9397 55.2468ZM91.9473 55.2383L91.9531 55.2462C91.9485 55.2465 91.9441 55.2466 91.9397 55.2468C91.9411 55.2451 91.9427 55.2433 91.9443 55.2415C91.9451 55.2405 91.9461 55.2395 91.9473 55.2383ZM91.9473 55.2383C91.9487 55.2369 91.9501 55.2355 91.9517 55.234C91.9487 55.2335 91.9457 55.2329 91.9427 55.2325L91.9473 55.2383ZM91.9364 55.1547L91.932 55.1594L91.9282 55.1634L91.9242 55.1677C91.9539 55.1623 91.9755 55.1531 91.9706 55.142C91.9696 55.1397 91.968 55.1381 91.9666 55.1373L91.96 55.1404C91.9552 55.1431 91.9505 55.1458 91.9457 55.1485L91.9364 55.1547ZM82.0848 52.3554C81.783 52.5434 81.5743 52.7403 81.4735 52.8449C81.5761 52.939 81.6435 53.0448 81.6626 53.1562C81.6902 53.3165 81.628 53.4892 81.4203 53.6589C81.3324 53.731 81.2142 53.7989 81.0746 53.8758L81.0601 53.8838C80.9734 53.9316 80.8806 53.9826 80.7733 54.0358C80.6769 54.0837 80.5753 54.1316 80.4582 54.1815C80.3394 54.2156 80.2038 54.175 80.1559 54.0907C80.1078 54.0063 80.1651 53.9102 80.2837 53.8761L80.2984 53.8738V53.8736C80.4127 53.8548 80.5157 53.8379 80.6115 53.8135C80.727 53.784 80.8305 53.7553 80.9166 53.7158C81.2694 53.5541 81.3708 53.3571 81.3225 53.1977C81.2855 53.0764 81.1456 52.9798 80.9725 52.9094C80.7351 52.8131 80.4187 52.7792 80.1243 52.8378C80.0561 52.8507 79.9579 52.8435 79.8508 52.8075C79.8329 52.8013 79.8138 52.794 79.7945 52.7859C79.7868 52.801 79.7786 52.8159 79.7707 52.8304C79.7236 52.914 79.6689 52.9805 79.6343 53.0068C79.4419 53.1459 79.3058 53.2689 79.2102 53.378C79.1207 53.4799 79.0635 53.5645 79.0406 53.6412C78.9607 53.9084 79.2394 54.0266 79.2394 54.0266C79.2992 54.0448 79.327 54.094 79.3014 54.1363C79.2845 54.1645 79.2481 54.1826 79.2082 54.1863C79.497 54.3513 79.6101 54.5093 79.6158 54.651C79.6198 54.7482 79.5705 54.8389 79.4857 54.9315C79.4815 54.9361 79.4771 54.9408 79.4725 54.9454C79.4932 54.9447 79.5145 54.9478 79.534 54.9551C79.534 54.9551 79.8262 55.0469 80.0808 55.402C80.2076 55.5793 80.3199 55.825 80.3809 56.1619C80.3887 56.1741 80.3944 56.1867 80.3978 56.1996C80.4606 56.2696 80.6733 56.4672 81.1639 56.5904C81.4366 56.6591 81.79 56.7063 82.2487 56.698C82.9758 56.6998 83.4599 56.5989 83.724 56.4325C83.9615 56.283 83.9838 56.0809 83.8244 55.8936C83.6006 55.6294 83.2112 55.4629 82.7976 55.3696C82.3159 55.2611 81.8027 55.2482 81.4588 55.2961C81.1802 55.3483 80.9862 55.3383 80.8168 55.2964C80.5924 55.2411 80.4123 55.1112 80.1402 54.9149L80.1008 54.8865C80.0192 54.8164 80.0331 54.7125 80.1319 54.6546C80.2306 54.5967 80.3769 54.6064 80.4586 54.6764L80.4656 54.6836C80.4636 54.6747 80.4628 54.6656 80.463 54.6563C80.463 54.6563 80.4875 54.5752 80.5536 54.461C80.5737 54.4262 80.597 54.3898 80.6218 54.351V54.3509C80.6359 54.329 80.6504 54.3063 80.6652 54.2827C80.7737 54.1084 80.921 53.9201 81.2318 53.8328C81.4245 53.7787 81.6767 53.7634 82.0106 53.8202C82.0033 53.759 82.0444 53.6974 82.1237 53.6642C82.1997 53.6412 82.272 53.6249 82.3672 53.6489C82.3772 53.6515 82.3877 53.655 82.3996 53.6589C82.44 53.6723 82.494 53.6904 82.5821 53.6885C82.6733 53.6865 82.7948 53.6748 82.9552 53.6267C83.0186 53.6079 83.0874 53.5833 83.1607 53.552C83.3652 53.4646 83.6059 53.3281 83.9083 53.1393C84.4261 52.8093 84.6859 52.5338 84.721 52.3129C84.7415 52.1825 84.6439 52.0882 84.4758 52.022C84.4245 52.0017 84.367 51.9841 84.304 51.9691C84.2851 51.9774 84.2748 51.9818 84.2748 51.9818C84.2003 52.0065 84.113 52.0023 84.0442 51.9704C84.0442 51.9704 83.9802 51.9465 83.8896 51.9112C83.8665 51.9096 83.8429 51.9083 83.8188 51.907C83.5648 51.8883 83.3326 51.9073 83.1204 51.9469C82.8904 51.9897 82.6833 52.0566 82.4984 52.1371C82.4996 52.1378 82.5008 52.1385 82.5018 52.1392C82.5296 52.1562 82.5568 52.1728 82.5789 52.1927C82.5932 52.206 82.6036 52.2206 82.6125 52.235C82.6292 52.2619 82.6373 52.2846 82.6447 52.3094C82.6743 52.4096 82.6646 52.4546 82.6646 52.4546C82.7061 52.4901 82.6994 52.5428 82.6493 52.5724C82.5994 52.6019 82.5248 52.5969 82.4821 52.5603C82.4821 52.5603 82.433 52.5564 82.3183 52.5214C82.2857 52.5114 82.2595 52.5014 82.2243 52.4845C82.2012 52.4735 82.18 52.4613 82.1595 52.4456C82.141 52.4316 82.1241 52.4153 82.1112 52.3974C82.1013 52.3837 82.0925 52.3697 82.0848 52.3554ZM77.9126 56.03C77.8291 55.9869 77.7566 55.9479 77.6987 55.9162C77.8798 55.8506 78.0513 55.7702 78.1815 55.7084C78.2332 55.684 78.293 55.657 78.3235 55.6434L78.3288 55.6442C78.393 55.6512 78.4533 55.6201 78.4634 55.5745C78.4733 55.5467 78.4592 55.526 78.4481 55.5096L78.4475 55.5087C78.4306 55.4834 78.395 55.4691 78.3429 55.4629C78.3143 55.4595 78.2551 55.469 78.174 55.4918C78.1297 55.5043 78.075 55.5217 78.0126 55.5413C77.8991 55.5772 77.7607 55.6209 77.616 55.658C77.4463 55.7014 77.2688 55.7335 77.1227 55.7174C77.0583 55.7103 77.0154 55.6787 76.9871 55.6249C76.9563 55.5656 76.9492 55.4858 76.9567 55.3809C76.9621 55.2616 76.9875 55.1537 77.0209 55.055C77.0593 54.9415 77.11 54.8404 77.1738 54.7522C77.2092 54.7009 77.2674 54.5934 77.3232 54.4769C77.3554 54.4094 77.3877 54.339 77.4155 54.2768C77.4626 54.2871 77.5145 54.295 77.5709 54.2991C77.7057 54.3089 77.8673 54.301 78.047 54.2414C78.1895 54.1942 78.3451 54.188 78.4946 54.2076C78.6687 54.2304 78.8351 54.2816 78.9683 54.3423C79.2762 54.4876 79.3996 54.618 79.3195 54.7442C79.267 54.8274 79.1358 54.8923 78.972 54.9518C78.8776 54.986 78.7703 55.01 78.6532 55.0363H78.653C78.5371 55.0751 78.4872 55.1733 78.5419 55.2556C78.5966 55.3377 78.7349 55.3732 78.8508 55.3343C79.0639 55.2403 79.2362 55.1424 79.3626 55.0436C79.3688 55.0679 79.3899 55.0901 79.423 55.1027C79.423 55.1027 79.6246 55.2009 79.7802 55.4958C79.8681 55.6623 79.9365 55.8879 79.947 56.1921C79.9253 56.2187 79.9027 56.2434 79.8739 56.2667C79.849 56.2866 79.8234 56.3048 79.794 56.3191C79.5328 56.4446 79.2593 56.4462 79.0273 56.4275C78.8593 56.4139 78.7126 56.3655 78.5715 56.3161C78.4699 56.2806 78.3751 56.2394 78.2835 56.1998L78.2823 56.1994C78.146 56.1402 78.0195 56.0852 77.9126 56.03ZM89.8427 55.0911C89.7414 55.0861 89.6448 55.0721 89.5531 55.0506C89.2963 54.9903 89.0818 54.8818 88.9258 54.7722C88.8823 54.7418 88.8433 54.7118 88.8089 54.6836C88.6857 54.7988 88.537 54.8916 88.384 54.9551C88.6163 54.984 88.7769 55.0295 88.7769 55.0295L88.7879 55.0333C89.1305 55.1587 89.383 55.2994 89.5682 55.4455C89.61 55.3248 89.6956 55.2042 89.8427 55.0911ZM89.5547 55.833C89.5633 55.8669 89.5742 55.8992 89.5867 55.9299C89.6104 55.9887 89.6384 56.0406 89.6646 56.0833C89.7374 56.3904 89.5889 56.6602 89.5034 56.7856C89.4164 56.9134 89.0302 57.0973 88.611 57.1419C88.308 57.1742 87.9817 57.1212 87.7324 56.8911C87.6451 56.8115 87.5571 56.7278 87.4678 56.6429L87.4676 56.6428V56.6426C87.2685 56.4533 87.0629 56.2579 86.8461 56.0877C86.5891 55.8862 86.315 55.7192 86.0276 55.6252C85.9896 55.6128 85.9514 55.6015 85.9129 55.5913C86.1548 55.5364 86.3837 55.4475 86.5652 55.3238C86.7324 55.21 86.8618 55.0706 86.926 54.9085C86.9767 54.9232 87.0301 54.9377 87.0866 54.9517C87.187 54.9767 87.2961 55.0009 87.4156 55.0193C87.1397 55.1089 86.8801 55.2801 86.6908 55.5896C86.6475 55.6753 86.7103 55.7696 86.831 55.8004C86.9516 55.831 87.0846 55.7865 87.1277 55.7009C87.243 55.4151 87.4497 55.2595 87.6873 55.1884C87.8147 55.1501 87.9465 55.1318 88.0703 55.1298C88.3687 55.1251 88.6165 55.1954 88.6602 55.2087C89.1393 55.4002 89.413 55.6174 89.5547 55.833ZM89.8823 55.7819C89.8851 55.704 89.9032 55.6199 89.9483 55.537C90.0254 55.3957 90.1971 55.2659 90.5249 55.1747C90.7336 55.1109 90.9133 55.1075 91.0636 55.1433C91.2355 55.1841 91.3669 55.2781 91.4512 55.3946C91.4826 55.4365 91.5352 55.479 91.6191 55.5028C91.6012 55.5316 91.5953 55.5639 91.6026 55.5955C91.6026 55.5955 91.6543 55.7708 91.6841 55.9421C91.698 56.0223 91.7098 56.101 91.7046 56.1575C91.6776 56.4463 91.5398 56.754 91.2542 56.885C91.1423 56.9362 91.0055 56.9617 90.8553 56.9343C90.6807 56.9024 90.5102 56.7976 90.3138 56.6381C90.2188 56.5769 90.0719 56.582 89.9858 56.6493C89.9843 56.6506 89.9829 56.6518 89.9813 56.6531L89.9791 56.6549C90.0576 56.4275 90.0914 56.1123 89.8886 55.7916C89.8867 55.7884 89.8845 55.7852 89.8823 55.7819ZM89.5088 54.7331C89.2766 54.678 89.0844 54.5812 88.962 54.5083C89.0576 54.3719 89.1164 54.2156 89.116 54.0466C89.1154 53.7793 88.9675 53.4775 88.5712 53.1798C88.4841 53.1143 88.383 53.0501 88.2687 52.9863C88.3599 52.8793 88.4676 52.8005 88.6028 52.758C88.7376 52.7156 88.888 52.7087 89.0361 52.7174C89.6555 52.7543 90.2814 53.1155 90.4732 53.3223C90.6261 53.4846 90.7239 53.802 90.6905 54.1007C90.676 54.2285 90.6356 54.3529 90.5543 54.4604C90.4814 54.5569 90.3786 54.642 90.2214 54.6947C89.9604 54.7898 89.7169 54.7825 89.5088 54.7331ZM85.7566 53.2676H85.7564L85.7453 53.27C85.7163 53.2762 85.6873 53.282 85.658 53.2876C85.7109 53.3129 85.7642 53.3406 85.8182 53.3708C85.8324 53.3348 85.8516 53.2906 85.8779 53.2418C85.8377 53.2506 85.7974 53.259 85.7568 53.2676H85.7566ZM86.0226 53.4943C86.1375 53.569 86.2553 53.654 86.377 53.7497C86.8024 54.0985 86.9705 54.4115 86.9703 54.6784C87.0313 54.7123 87.1025 54.7446 87.1862 54.7702C87.3836 54.8307 87.6404 54.8517 87.9433 54.8286C88.2854 54.7975 88.7008 54.4618 88.6549 54.0598C88.6414 53.9407 88.5794 53.8173 88.4678 53.6901C88.3361 53.5398 88.1309 53.3882 87.8306 53.2411C87.5974 53.1157 87.3925 53.0385 87.2108 52.9972C87.0538 52.9613 86.9192 52.9489 86.7994 52.9626C86.7419 52.9693 86.6881 52.9803 86.6378 52.9949C86.5775 53.0217 86.5124 53.0488 86.4434 53.0754C86.3366 53.1343 86.253 53.2074 86.1893 53.2756C86.0969 53.375 86.0413 53.463 86.0226 53.4943ZM85.9423 58.0253C85.8761 57.9366 85.9123 57.8243 86.0293 57.7667C86.1526 57.7058 86.3203 57.7279 86.406 57.8166L86.4114 57.8225L86.4116 57.8223L86.5292 57.8805C86.574 57.8744 86.6272 57.8678 86.6799 57.8623C86.7578 57.8545 86.8351 57.8493 86.8916 57.8503C87.0932 57.8552 87.2269 57.8605 87.3557 57.8794C87.4899 57.8989 87.6199 57.9311 87.8101 57.9943C88.0125 58.0625 88.2442 58.2299 88.3514 58.4202C88.4335 58.5656 88.4502 58.7199 88.3641 58.8527C88.31 58.9358 88.2349 58.9946 88.1425 59.033C88.1568 59.052 88.1695 59.0716 88.181 59.0918C88.2174 59.1545 88.2428 59.2202 88.2546 59.2831C88.2939 59.492 88.3156 59.7134 88.2496 59.9147C88.2025 60.0589 88.1142 60.194 87.9574 60.3082C87.9498 60.3139 87.9417 60.3189 87.9326 60.3232C87.9326 60.3232 87.5857 60.4832 87.0884 60.3628C86.8165 60.2969 86.4907 60.1518 86.1399 59.8174C86.1013 59.7741 86.0939 59.7227 86.1134 59.677C85.8546 59.7612 85.636 59.7029 85.4664 59.59C85.2235 59.4286 85.113 59.1134 85.152 58.9164C85.175 58.8058 85.2084 58.7235 85.2573 58.6477C85.3072 58.5699 85.3776 58.5002 85.4799 58.4168C85.5229 58.3823 85.6091 58.3177 85.691 58.2608C85.7578 58.2145 85.8238 58.1742 85.8667 58.1526L85.98 58.0778L85.9796 58.0654C85.9723 58.0587 85.9655 58.0521 85.9594 58.0455L85.9741 58.0382C85.9689 58.0263 85.9594 58.0203 85.9437 58.0248L85.9423 58.0253ZM85.9423 58.0253C85.9459 58.0303 85.9498 58.0351 85.954 58.0398L85.9594 58.0455C85.958 58.0439 85.9554 58.0421 85.9526 58.0401C85.9453 58.0346 85.9365 58.0281 85.9423 58.0253ZM87.4998 59.1157C87.4736 59.1207 87.4478 59.125 87.4223 59.1274C87.3182 59.1354 87.2228 59.0841 87.2025 59.0093C87.1824 58.9345 87.2438 58.8609 87.3444 58.8396C87.4068 58.8248 87.4718 58.815 87.5358 58.8073C87.6088 58.7984 87.6805 58.7934 87.7437 58.789C87.762 58.7877 87.7797 58.7865 87.7964 58.7852C87.8377 58.7821 87.8765 58.7748 87.9089 58.7607C87.928 58.7524 87.9395 58.7379 87.9495 58.7202C87.9874 58.6529 87.9373 58.5782 87.8793 58.5112C87.8085 58.4295 87.7038 58.3602 87.6086 58.332C87.4627 58.2883 87.3645 58.265 87.2625 58.2529C87.1579 58.2405 87.05 58.2408 86.8886 58.2412H86.8835L86.5328 58.2844C86.5076 58.2887 86.4817 58.2903 86.4561 58.289C86.4462 58.2993 86.4346 58.3087 86.4221 58.3174L86.1579 58.4764L85.8505 58.6723C85.7819 58.7218 85.7316 58.7621 85.696 58.8094C85.6602 58.8566 85.6358 58.9089 85.6145 58.979C85.5843 59.0748 85.6143 59.2213 85.7008 59.3284C85.7674 59.411 85.8703 59.4745 86.0222 59.4273C86.1236 59.3963 86.2217 59.3577 86.3201 59.319C86.4263 59.2772 86.5326 59.2355 86.6437 59.2027C86.7455 59.1727 86.8497 59.1488 86.9606 59.1384C87.024 59.1294 87.0852 59.1596 87.0973 59.2057C87.1096 59.2518 87.0681 59.2962 87.0047 59.3051C86.9172 59.3214 86.8375 59.349 86.7596 59.38C86.6563 59.4213 86.5585 59.4707 86.4609 59.5198C86.4326 59.534 86.4044 59.5482 86.3762 59.5622C86.436 59.5705 86.4913 59.5958 86.5269 59.6359C86.7012 59.8739 86.8731 60.0258 87.0488 60.1116C87.1818 60.1764 87.3082 60.206 87.4179 60.2123C87.5962 60.2223 87.7244 60.1762 87.7654 60.1589C87.8695 60.0726 87.9254 59.9734 87.9522 59.8688C87.9974 59.6933 87.9582 59.5031 87.9107 59.3244C87.8996 59.2832 87.8789 59.2406 87.8517 59.2002C87.8264 59.1627 87.7936 59.128 87.7549 59.0988L87.7543 59.0984C87.7038 59.0996 87.6487 59.1015 87.5923 59.1059C87.5617 59.1084 87.5304 59.1112 87.4998 59.1157ZM83.2255 55.2189C83.2321 55.132 83.2205 54.9781 83.1001 54.8086C83.0343 54.7162 82.9277 54.6254 82.7763 54.5265C82.6594 54.4503 82.5201 54.367 82.3346 54.2914C81.8844 54.086 81.5713 54.0263 81.3408 54.0691C81.1205 54.11 80.9742 54.2281 80.921 54.3522C80.8516 54.5142 80.9271 54.6617 80.9271 54.6617C80.9251 54.7527 80.8194 54.8251 80.6914 54.8237C80.6489 54.8233 80.6091 54.8146 80.5751 54.8C80.7031 54.9377 80.7975 55.0382 80.9403 55.0889C81.0555 55.1298 81.1971 55.1343 81.4012 55.1088C81.847 55.0316 82.5588 55.0415 83.1798 55.2065C83.1951 55.2105 83.2104 55.2146 83.2255 55.2189ZM85.1337 54.4391C85.0411 54.4002 85.0425 54.3663 85.0425 54.3663L85.0426 54.3662C85.0462 54.3659 85.0498 54.3653 85.0532 54.3648L85.0426 54.3662C84.9832 54.3725 84.9256 54.3453 84.9115 54.303C84.8962 54.2581 84.9353 54.2129 85.0059 54.2012C85.0059 54.2012 84.9989 54.1895 85.0754 54.1231C85.1031 54.0993 85.1271 54.0921 85.1746 54.0784C85.1941 54.0728 85.217 54.0732 85.2378 54.0761L85.239 54.0762C85.2794 54.0821 85.3144 54.0871 85.3436 54.1051C85.366 54.1191 85.3889 54.1287 85.41 54.1376C85.4493 54.1542 85.4817 54.1679 85.4927 54.2022C85.495 54.2099 85.501 54.2149 85.5068 54.2198C85.5135 54.2255 85.5199 54.2309 85.5199 54.2404C85.5201 54.2494 85.5247 54.2562 85.5292 54.263C85.5348 54.2711 85.5402 54.279 85.5368 54.2906C85.5334 54.3014 85.5342 54.3117 85.535 54.3219C85.5362 54.3385 85.5374 54.3552 85.5221 54.3755C85.5177 54.3813 85.5139 54.3868 85.5139 54.3938V54.3949C85.5137 54.4019 85.5137 54.4061 85.5203 54.4124C85.5398 54.431 85.5424 54.4371 85.5447 54.4424C85.5475 54.4488 85.5499 54.4543 85.5813 54.48C85.5358 54.5649 85.4016 54.6077 85.282 54.5754C85.1975 54.5526 85.1428 54.4987 85.1337 54.4391ZM85.2428 54.4274C85.2734 54.4393 85.2953 54.4384 85.3293 54.3938C85.3325 54.3898 85.3221 54.3865 85.314 54.3839C85.3072 54.3818 85.302 54.3801 85.3064 54.3788C85.3313 54.3716 85.2305 54.3841 85.2468 54.3951C85.2599 54.4042 85.2541 54.4158 85.2428 54.4274ZM82.4899 56.1211C82.4946 56.1112 82.4958 56.1013 82.4958 56.0913C82.5175 56.0896 82.539 56.0857 82.56 56.0795C82.6779 56.0443 82.7336 55.9475 82.6839 55.8638C82.6477 55.8586 82.6369 55.8521 82.6276 55.8468C82.6189 55.8418 82.6117 55.8375 82.5859 55.8361C82.5779 55.8355 82.5753 55.834 82.5723 55.8323C82.57 55.8307 82.5674 55.8292 82.5612 55.8284C82.5511 55.8271 82.5463 55.8241 82.5409 55.8207C82.5386 55.8191 82.5358 55.8174 82.5324 55.8158C82.4676 55.7845 82.4264 55.7726 82.3738 55.7646C82.3273 55.7578 82.2907 55.7748 82.238 55.7995C82.2193 55.8082 82.1983 55.8181 82.1742 55.8281C82.1132 55.8533 82.0669 55.8923 82.007 55.9461C81.9894 55.9619 81.9746 55.9792 81.9659 55.9987C81.9603 56.0117 81.9587 56.0246 81.9597 56.0376C81.9617 56.0623 81.9641 56.0785 81.9743 56.099C82.018 56.1864 82.0492 56.2044 82.0492 56.2044C82.0343 56.2519 82.0742 56.2965 82.1376 56.3066C82.201 56.3166 82.2641 56.2883 82.2784 56.2433C82.2784 56.2433 82.3491 56.2364 82.4537 56.1585C82.4686 56.1475 82.4827 56.1362 82.4899 56.1211ZM89.828 53.4895C89.8652 53.4417 89.935 53.4081 90.017 53.4044C90.1451 53.399 90.2552 53.4682 90.2631 53.5588C90.2307 53.5781 90.2224 53.5861 90.2136 53.5946C90.2067 53.6013 90.1995 53.6083 90.1802 53.6212C90.1677 53.6296 90.1643 53.637 90.1602 53.6476C90.1522 53.6672 90.1462 53.6838 90.1409 53.6989V53.6991C90.1329 53.721 90.1262 53.7397 90.1164 53.759C90.1117 53.7686 90.1029 53.7744 90.094 53.7803C90.0872 53.7849 90.0803 53.7894 90.0751 53.7957C90.0443 53.833 89.9936 53.8408 89.9318 53.8501C89.9095 53.8533 89.8859 53.8569 89.8612 53.8622C89.7887 53.8774 89.7098 53.8696 89.6225 53.8509C89.5959 53.8453 89.5696 53.8355 89.5497 53.8219C89.5096 53.7943 89.4869 53.7718 89.4692 53.7408C89.4245 53.6633 89.4303 53.637 89.4303 53.637L89.4257 53.6346C89.3746 53.606 89.3659 53.5535 89.4062 53.5172C89.4464 53.481 89.5205 53.4747 89.5714 53.5033C89.5714 53.5033 89.6318 53.4789 89.7732 53.4838C89.7765 53.4839 89.7799 53.4839 89.7833 53.484C89.7964 53.4843 89.8089 53.4846 89.8221 53.4879L89.828 53.4895ZM89.9079 53.612C89.9036 53.622 89.9081 53.6405 89.9115 53.6545C89.9129 53.6596 89.9139 53.6642 89.9145 53.6675C89.9179 53.668 89.9222 53.6688 89.927 53.6698C89.9455 53.6732 89.9699 53.6776 89.9687 53.6675C89.9638 53.6293 89.9417 53.6171 89.9079 53.612ZM88.088 56.197C87.9661 56.1418 87.921 56.1028 87.921 56.1028C87.8582 56.0909 87.8208 56.0451 87.8375 56.0005C87.8544 55.9559 87.9188 55.9295 87.9817 55.9413C87.9817 55.9413 88.0383 55.9162 88.1671 55.894C88.1804 55.8917 88.1937 55.8892 88.2075 55.8864C88.2462 55.8789 88.287 55.8709 88.3345 55.8686C88.3617 55.8674 88.3895 55.8697 88.4174 55.872L88.4263 55.8727C88.4484 55.8744 88.469 55.8783 88.4899 55.8821C88.5124 55.8863 88.5346 55.8903 88.5581 55.8917C88.5805 55.8932 88.6024 55.8964 88.6235 55.8994C88.671 55.9065 88.7153 55.9129 88.7555 55.8977C88.7588 55.8964 88.7624 55.8953 88.766 55.894C88.7833 55.888 88.802 55.8816 88.8071 55.8687C88.8117 55.8574 88.8026 55.8514 88.7916 55.8443C88.7837 55.8393 88.7751 55.8335 88.7702 55.825C88.767 55.8195 88.762 55.8181 88.7568 55.8165C88.7519 55.815 88.7467 55.8135 88.7425 55.8085C88.7698 55.7197 88.8936 55.6633 89.0186 55.6826C89.1439 55.7019 89.2234 55.7896 89.1961 55.8786C89.1711 55.892 89.1572 55.9033 89.1443 55.9137C89.1287 55.9265 89.115 55.9376 89.085 55.9495C89.0689 55.9559 89.06 55.9621 89.0486 55.9701C89.0463 55.9718 89.0439 55.9735 89.0411 55.9754C89.0282 55.9842 89.019 55.995 89.0097 56.0057C89.0061 56.0101 89.0023 56.0144 88.9984 56.0185C88.9815 56.0364 88.9628 56.0516 88.9435 56.0673C88.9371 56.0724 88.9308 56.0776 88.9244 56.083C88.832 56.1602 88.7018 56.2026 88.5495 56.2379C88.4951 56.2505 88.4396 56.2575 88.3828 56.2593C88.346 56.2605 88.3092 56.2587 88.275 56.2525C88.2003 56.2387 88.1413 56.221 88.088 56.197Z" fill="#FFB61D"/>
<path fill-rule="evenodd" clip-rule="evenodd" d="M87.1141 22.0637C87.2476 21.8525 86.8056 21.7011 86.4832 21.7001C86.1606 21.6992 85.7113 21.6325 85.7358 21.4011C86.4857 21.2167 87.3329 21.2462 88.0544 21.4819C87.6831 21.9241 87.451 22.4264 87.38 22.9405C87.3709 23.0072 87.3752 23.0894 87.4569 23.1211C87.5197 23.1454 87.5969 23.1266 87.6623 23.1061C88.572 22.8226 89.3331 22.2995 89.7682 21.6585C89.8903 21.4788 90.2604 21.4573 90.4953 21.5643C90.7305 21.6712 90.8621 21.8611 90.9823 22.0415C91.1117 22.2357 91.5102 22.2415 91.7714 22.1365C92.0328 22.0312 92.2246 21.8527 92.4832 21.7444C92.742 21.6361 93.1374 21.6313 93.2803 21.8205C92.8368 22.0594 92.3934 22.2985 91.9501 22.5374C91.6112 22.7201 91.1063 22.8977 90.8098 22.6802C90.6508 22.5635 90.6394 22.3811 90.5369 22.2353C90.4339 22.0896 90.1089 21.9968 89.9992 22.1399C89.4625 22.8399 88.5285 23.3766 87.4611 23.5985C87.2512 23.6421 86.9831 23.6607 86.8545 23.5336C86.7938 23.4737 86.7827 23.3955 86.7779 23.3214C86.7497 22.8909 86.866 22.456 87.1141 22.0637Z" fill="#00160A"/>
<path fill-rule="evenodd" clip-rule="evenodd" d="M76.1499 54.1053C75.7227 53.5975 75.4732 53.013 75.4309 52.4203C75.4144 52.1882 75.6814 51.9642 76.0026 51.9404C75.9342 52.7038 76.2105 53.4811 76.78 54.1271C76.87 54.2293 76.6792 54.3626 76.514 54.3403C76.3486 54.318 76.2369 54.2089 76.1499 54.1053Z" fill="#00160A"/>
<path fill-rule="evenodd" clip-rule="evenodd" d="M86.264 19.4079C86.6466 19.8498 86.7166 20.4241 86.4466 20.9071C86.4285 20.9394 86.4075 20.9727 86.3687 20.9934C86.2107 21.0775 86.0529 20.8861 86.0338 20.7454C85.9958 20.4624 85.9579 20.1795 85.9199 19.8965C85.8919 19.6879 85.9736 19.3917 86.264 19.4079Z" fill="#00160A"/>
<path fill-rule="evenodd" clip-rule="evenodd" d="M73.2069 45.4322C73.2069 45.4322 73.6087 45.2192 74.3427 45.381C74.3427 45.381 74.6665 45.5563 74.3143 45.7006C74.3143 45.7006 74.0875 45.7563 73.9094 45.8362C73.9249 45.8718 73.5681 45.7778 73.3491 45.7237C73.3491 45.7237 72.9825 45.6402 73.2069 45.4322Z" fill="#FFB61D"/>
<path fill-rule="evenodd" clip-rule="evenodd" d="M94.3278 30.4703C94.269 30.2278 94.2108 29.9872 93.9522 29.8402C93.4988 29.5823 93.527 29.0758 93.7317 28.687C93.7959 28.5652 93.8733 28.446 93.9506 28.3267C94.1201 28.0655 94.2893 27.8049 94.3175 27.5201C94.3573 27.1186 94.113 26.7357 93.8711 26.3567C93.5938 25.9222 93.3197 25.4927 93.4805 25.0462C93.6796 24.4921 94.4137 24.2219 95.1609 23.947C95.8214 23.7038 96.4922 23.4569 96.813 23.0068C97.1764 22.4975 96.9717 21.8726 96.627 21.3567C96.3521 20.9452 95.9762 20.5509 95.433 20.3149C94.8896 20.0787 94.1537 20.0329 93.6333 20.2944C93.1132 20.5561 92.9466 21.1578 93.3869 21.4868C93.6355 21.4329 93.695 21.2412 93.7562 21.0436C93.811 20.8666 93.8675 20.685 94.0625 20.594C94.3046 20.4809 94.6236 20.5714 94.8824 20.6633C95.264 20.799 95.6576 20.9412 95.9285 21.1773C96.1995 21.4133 96.3141 21.7713 96.0826 22.0281C95.9822 22.1395 95.8357 22.3049 95.9927 22.3746C96.2605 22.4932 96.276 22.7873 96.1076 22.9783C95.9395 23.1695 95.6469 23.2817 95.3662 23.3838L95.2901 23.4115C94.5705 23.673 93.8305 23.942 93.3141 24.3858C92.7796 24.8453 92.5552 25.5524 93.0283 26.0457C94.04 27.1009 93.4358 28.5323 92.8005 29.73C93.3117 29.8517 93.5016 30.2377 93.6914 30.6237L93.6916 30.6239C93.7637 30.7706 93.8359 30.9174 93.9257 31.0497C94.6256 32.0802 96.5692 32.2712 98.1416 32.0811C98.4481 32.0439 98.8427 31.8914 98.732 31.6823C98.4752 31.6906 98.2181 31.7076 97.9611 31.7247C97.4072 31.7615 96.8538 31.7983 96.3042 31.746C95.5 31.6696 94.6683 31.3439 94.4244 30.7872C94.3803 30.6865 94.3541 30.5783 94.3278 30.4703ZM89.0126 29.5176C87.0841 30.7094 84.8897 31.6583 82.6476 32.5206C82.2441 32.6757 81.8376 32.8288 81.4305 32.9821H81.4303C79.1095 33.8563 76.7731 34.736 74.8934 36.0376C73.9401 36.6976 73.1208 37.4576 72.4692 38.286C72.0893 38.0829 72.2915 37.6504 72.5503 37.3653C74.6708 35.0291 78.2713 33.6823 81.7318 32.3878C81.9392 32.3103 82.1461 32.2329 82.352 32.1556C85.9958 30.7866 89.7899 29.1168 91.3914 26.3931C91.5808 27.6229 90.3171 28.7112 89.0126 29.5176ZM61.6802 31.9608C62.7484 32.367 64.3165 32.5222 64.9551 31.7843C63.6564 31.9737 62.2638 31.8089 61.1181 31.3298C60.9656 31.2661 60.8132 31.1962 60.6595 31.126C60.03 30.8381 59.3844 30.5427 58.6724 30.6303C58.4591 30.6566 58.2552 30.7173 58.0523 30.7776C57.764 30.8632 57.4782 30.9482 57.1721 30.9331C56.6499 30.9075 56.3287 30.2632 56.8447 30.2008C56.1005 30.116 55.3563 30.0314 54.6122 29.9466L52.6199 29.7199C53.2667 28.7306 53.6437 27.6506 53.7229 26.5587C53.5726 26.5664 53.4311 26.5733 53.2989 26.5797H53.2983H53.2981C51.9763 26.6433 51.6107 26.6609 52.9626 27.0748C53.0723 27.9779 52.6223 28.9086 51.7572 29.5679C52.0464 30.1444 52.984 30.2274 53.924 30.3108C54.859 30.3937 55.7964 30.4769 56.0995 31.0462C56.2468 31.3226 56.7354 31.4221 57.1423 31.3794C57.3607 31.3563 57.5698 31.3043 57.7791 31.2523C57.9596 31.2074 58.1401 31.1625 58.327 31.136C59.3055 30.9979 60.2254 31.3728 61.1173 31.7365H61.1175C61.3061 31.8134 61.4935 31.8898 61.6802 31.9608ZM110.974 49.7903C111.124 49.3773 111.341 48.9209 111.874 48.7329C109.069 56.3496 110.073 64.6619 114.663 71.8164C114.086 71.4372 113.592 70.9936 113.199 70.5079C112.549 69.7036 112.191 68.7966 111.868 67.8957C109.741 61.9849 108.819 55.696 110.974 49.7903ZM40.4198 62.687C40.3197 62.5449 40.2354 62.3886 40.2574 62.2299C40.3212 61.7706 41.1372 61.6176 41.7782 61.5934C45.9812 61.4349 50.1591 61.8571 54.3384 62.2794C56.0777 62.4551 57.8173 62.631 59.5591 62.765C62.9279 63.0239 66.3155 63.1267 69.7005 63.2292C72.1313 63.3028 74.5622 63.3765 76.9932 63.4502L77.4573 63.4642L77.8191 63.4753L78.1172 63.4843C81.439 63.5848 84.9437 63.6573 87.8772 62.5313C86.8076 63.6796 84.5808 63.8281 82.6595 63.8441C72.2744 63.9303 61.8807 63.4724 51.5879 62.475C51.3193 62.449 51.0506 62.4225 50.7817 62.3961L50.7745 62.3954C47.7691 62.1001 44.7433 61.8029 41.7265 61.9963C41.3048 62.0233 40.7577 62.1637 40.7977 62.467C40.8176 62.6185 40.9911 62.7331 41.1563 62.8283C42.138 63.394 43.2563 63.8367 44.4457 64.1306C42.8643 64.3347 41.1455 63.7185 40.4198 62.687ZM99.5948 32.3437C98.7288 32.1311 97.6769 32.4388 97.2631 33.0261C98.4127 33.592 99.5626 34.1581 100.712 34.724C101.064 34.897 101.521 35.0744 101.887 34.9184C102.809 34.5259 104.186 34.9643 104.402 35.7189C104.425 35.2026 105.221 34.8612 105.939 34.8581C106.443 34.8559 106.926 34.9662 107.41 35.0765C107.615 35.1236 107.821 35.1705 108.029 35.2089C109.472 35.4756 111.06 35.3103 112.339 34.7603C112.647 34.628 113.025 34.7869 113.335 34.918C114.956 35.6085 117.13 35.5584 118.686 34.7946C117.552 37.7749 115.268 40.4298 112.997 43.0684C112.569 43.5655 112.141 44.0622 111.722 44.5603C109.079 47.7017 106.664 51.1354 106.651 54.8074C106.651 55.0093 106.808 55.2923 107.07 55.2199C107.446 51.2537 109.457 47.3751 112.785 44.2015C113.014 43.983 113.27 43.7571 113.629 43.6683C113.912 43.5987 114.22 43.6237 114.516 43.6553C116.604 43.8786 118.631 44.3978 120.446 45.174C120.245 44.9385 122.406 44.8112 124.675 44.6778L124.675 44.6777C125.437 44.6329 126.21 44.5875 126.91 44.5369C128.363 44.4319 129.806 43.3776 130.069 43.0426C130.116 42.983 129.975 43.0488 129.708 43.1733C129.098 43.4573 127.832 44.0466 126.649 44.1494L126.433 44.1683C124.665 44.3225 122.498 44.5114 120.913 44.4424C119.945 44.4002 121.172 41.9509 121.3 41.7975C120.546 41.6719 120.113 42.3878 119.986 42.9368C119.858 43.4859 119.386 44.1973 118.642 44.0438C117.8 43.8699 116.959 43.696 116.117 43.5222L113.832 43.0505C116.242 40.0845 118.315 36.9767 120.023 33.7683C120.135 34.1286 124.273 33.6615 123.911 33.5865C123.731 33.5491 123.202 33.5526 122.62 33.5564C121.789 33.562 120.85 33.5683 120.668 33.4568C120.357 33.2673 119.807 33.254 119.599 33.5057C118.462 34.8855 115.673 35.3902 113.763 34.5621C113.738 34.5511 113.712 34.5398 113.686 34.5285C113.234 34.3308 112.696 34.0959 112.262 34.2976C110.971 34.8984 109.307 35.0658 107.835 34.7431C107.628 34.6977 107.424 34.643 107.221 34.5884C106.817 34.4805 106.415 34.3725 105.99 34.3366C105.35 34.2825 104.607 34.4465 104.343 34.8695C104.088 34.3382 103.08 34.0826 102.419 34.3814C101.724 34.6955 100.81 34.3765 100.196 33.9846C100.087 33.9153 99.9792 33.8428 99.8711 33.7699H99.8709L99.8707 33.7698V33.7696C99.3672 33.4305 98.852 33.0835 98.183 33.0159L98.8842 32.682L99.5948 32.3437ZM82.993 74.7436C82.5905 75.1658 81.7348 75.15 81.0272 75.0985C78.2854 74.9023 75.5213 74.8669 72.7715 74.993C72.0339 75.0266 71.1335 75.162 70.9244 75.6721C70.5952 75.6608 70.4533 75.3264 70.621 75.1228C70.789 74.9182 71.1275 74.8267 71.4447 74.7622C72.6274 74.5242 73.8818 74.4718 75.0949 74.611C75.8065 74.6922 76.4996 74.3382 76.8703 73.8945C77.1882 73.5138 77.3261 73.0747 77.4627 72.6395L77.4629 72.639C77.4857 72.5664 77.5084 72.4938 77.532 72.4216C78.2832 70.123 79.9998 67.9921 82.3989 66.3805C82.7285 66.1592 83.248 65.9431 83.5858 66.1579C80.1844 68.3344 77.9107 71.4026 77.2951 74.6474C79.1943 74.5811 81.1003 74.6128 82.993 74.7436ZM101.594 48.8094C101.533 49.0774 101.147 49.4214 100.9 49.216C102.131 44.5665 100.948 39.6067 97.632 35.5188C97.5558 35.4001 97.7826 35.2764 97.957 35.3129C98.1313 35.3492 98.2384 35.4719 98.3277 35.5855C101.445 39.5599 102.617 44.3058 101.594 48.8094ZM49.3676 45.3411C48.0979 45.9377 46.7478 46.4461 45.3428 46.8566C44.9251 46.9787 44.3054 47.0338 44.1525 46.7287L43.6403 45.7071C43.3507 45.1296 43.0611 44.552 42.7715 43.9746C42.6194 43.6713 42.1481 43.3066 41.8363 43.538C42.3928 44.532 42.9496 45.526 43.5059 46.5199C43.7309 46.9214 44.0432 47.3773 44.6337 47.4606C45.0597 47.5205 45.4789 47.3583 45.8546 47.2019C46.1623 47.0738 46.4698 46.9458 46.7775 46.8177C47.0834 46.6905 47.3895 46.5631 47.6954 46.4357C48.6145 46.0531 49.7616 45.6667 50.6793 46.0508C51.2651 46.2959 52.0759 46.2174 52.5507 45.8695C53.0254 45.5215 53.1198 44.9369 52.7682 44.5201C52.6441 44.3733 52.7827 44.1709 52.9928 44.0889C53.2027 44.0071 53.4547 44.0126 53.6932 44.02L57.0103 44.124C57.3534 44.1347 57.8523 43.9887 57.6951 43.7691C56.1979 43.6813 54.699 43.6114 53.1989 43.5595C53.0063 43.5528 52.8049 43.5476 52.6296 43.6052C52.0943 43.7811 52.1828 44.3341 52.2818 44.7515C52.3808 45.1688 52.1709 45.7669 51.5861 45.719C50.8294 45.6568 50.0828 45.5297 49.3676 45.3411ZM50.626 66.6404C55.5329 68.3977 59.868 70.9747 63.1918 74.1103C63.4023 74.3091 63.4512 74.7248 63.1083 74.6847C59.6025 71.196 54.769 68.4059 49.276 66.6986C49.4972 66.3725 50.1746 66.4787 50.626 66.6404ZM70.8562 30.4789C70.3539 31.0808 70.0027 31.8838 70.5727 32.4535C70.9438 32.4817 70.9102 32.0638 70.8635 31.7974C70.7973 31.4217 71.0412 31.0551 71.3151 30.7316C72.7981 28.98 75.2231 27.8363 77.6396 26.6967C78.4193 26.3289 79.1981 25.9616 79.9441 25.5745C80.4925 25.2898 81.0912 24.8666 80.9089 24.3982C79.6772 25.2335 78.2436 25.923 76.8163 26.6096C74.527 27.7108 72.2539 28.8041 70.8562 30.4789ZM84.7488 86.7122C85.0509 87.1008 85.2614 87.6285 84.8461 87.9582C84.2669 86.4123 82.5315 85.2522 80.859 84.196C79.8215 83.5401 78.7777 82.8902 77.7276 82.2448C76.6525 81.5834 75.4889 80.9015 74.0874 80.7643C74.0661 80.7621 74.0448 80.7601 74.0232 80.758L74.0178 80.7574C73.5495 80.7118 72.9852 80.6568 72.8558 80.3374C74.3406 80.032 75.8463 80.7045 77.0749 81.3779C78.9308 82.3951 80.7026 83.4917 82.3778 84.66C83.2689 85.2821 84.1431 85.9332 84.7488 86.7122ZM35.1773 40.8687C36.1036 41.3794 36.9855 41.9726 37.481 42.7328C37.7969 43.2175 37.9261 43.826 37.5009 44.2655C37.4447 44.4469 37.8535 44.4757 38.0956 44.4103C39.2465 44.0994 40.3926 43.7795 41.5339 43.4511C41.2767 43.2078 40.7516 43.2241 40.3618 43.3459C40.2167 43.3912 40.0777 43.4478 39.939 43.5042C39.7053 43.5992 39.4723 43.694 39.2117 43.7348C38.7965 43.7997 38.2612 43.6437 38.235 43.3385C38.1189 41.9881 36.4278 41.0273 34.8875 40.2509C34.5422 40.0769 34.1572 39.8948 33.7376 39.9235C33.3216 39.9518 33.0105 40.1726 32.704 40.39C32.6189 40.4504 32.5341 40.5106 32.4476 40.5663C32.0495 40.8223 31.351 40.9744 31.0371 40.6635L30.6249 40.2556L30.6237 40.2545L30.6223 40.2532C30.3955 40.0287 30.1685 39.8041 29.9415 39.5795C29.767 39.4069 29.5811 39.2272 29.3126 39.1364C29.0439 39.0458 28.6684 39.0807 28.5259 39.2681C29.482 39.78 30.2844 40.4395 30.8632 41.1891C31.1302 41.5348 31.8819 41.4277 32.3015 41.1723C32.4229 41.0982 32.5376 41.015 32.6521 40.9318C32.9332 40.7275 33.2137 40.5237 33.5939 40.4591C34.159 40.3633 34.7163 40.6147 35.1773 40.8687ZM84.741 48.5885C84.6245 48.4209 84.6428 48.2225 84.684 48.0375C84.969 46.7574 86.2282 45.6698 87.7524 44.9784C89.2767 44.2871 91.0517 43.9425 92.8156 43.6783C93.3988 43.591 94.2006 43.5997 94.3622 44.012C92.4749 44.1548 90.5598 44.3677 88.8619 44.9775C87.1638 45.5872 85.6927 46.655 85.2858 47.9886C85.2097 48.2382 85.0928 48.5529 84.741 48.5885ZM121.953 73.068C120.682 72.6728 119.286 72.4888 117.903 72.5327C117.957 72.8521 118.515 72.9615 118.96 72.9979C120.553 73.1286 122.297 73.3631 123.302 74.2617C123.528 74.4634 123.712 74.7062 123.703 74.965C123.688 75.5001 122.909 75.8372 122.21 76.0194C120.955 76.3464 119.619 76.5135 118.284 76.5108C118.109 76.5098 118.057 76.7078 118.18 76.7975C118.303 76.8873 118.499 76.8918 118.675 76.8891C120.141 76.8601 121.599 76.6237 122.94 76.1978C123.231 76.1053 123.521 76.0017 123.749 75.8411C124.347 75.4179 124.338 74.6837 123.908 74.1636C123.479 73.6442 122.724 73.308 121.953 73.068ZM98.214 81.4882C97.442 81.8589 97.0367 82.5109 96.7232 83.1395C95.9142 84.7638 95.4563 86.4777 95.371 88.202L95.3706 88.2128C95.3598 88.43 95.3485 88.6572 95.1969 88.8446C94.8764 88.7064 94.8385 88.3878 94.8462 88.1187C94.9074 86.0435 95.5461 83.9782 96.7141 82.0804C96.8518 81.8562 97.0074 81.6254 97.2814 81.4797C97.5551 81.334 97.9824 81.3079 98.214 81.4882ZM121.518 78.448C122.115 77.9921 122.725 77.4112 122.524 76.8022C122.384 76.7173 122.156 76.7817 122.054 76.891C121.976 76.9762 121.948 77.0774 121.92 77.1786V77.1788L121.916 77.1942C121.913 77.2041 121.91 77.2139 121.908 77.2237C121.903 77.2384 121.899 77.2528 121.895 77.2674C121.765 77.6587 121.384 77.9791 121.004 78.2732C119.669 79.3027 118.166 80.217 116.535 80.9942C116.459 81.0302 116.382 81.0661 116.306 81.1021C115.721 81.3769 115.13 81.6543 114.685 82.0383C114.709 82.2083 115.07 82.171 115.273 82.0822C117.568 81.0791 119.675 79.8528 121.518 78.448ZM62.5971 67.2249C62.7655 67.0493 63.1396 67.2142 63.3282 67.3787C65.7154 69.4624 68.1376 71.6491 69.0867 74.2615C69.1346 74.3932 69.175 74.5428 69.075 74.6576C68.9748 74.7734 68.6733 74.7828 68.6312 74.6501C67.8981 72.3439 66.0384 70.2957 63.8591 68.5251C63.8283 68.5001 63.7975 68.4751 63.7667 68.45C63.3049 68.076 62.8329 67.6939 62.5971 67.2249ZM92.0662 47.2113C93.0802 46.9982 94.1189 46.8466 95.168 46.7585C94.8148 46.298 93.8727 46.3868 93.173 46.5398C91.1082 46.9913 88.9281 47.4953 87.5196 48.6715C87.1211 49.0044 86.8305 49.5664 87.3143 49.8344C87.9982 48.4243 90.0734 47.6298 92.0662 47.2113ZM88.5506 85.8061C88.6414 86.0639 88.6758 86.4086 88.3427 86.5226L86.4576 82.367C86.5735 82.2615 86.8167 82.2755 86.9613 82.3614C87.1058 82.4474 87.1757 82.5801 87.2385 82.707C87.7432 83.7243 88.1811 84.7591 88.5506 85.8061ZM110.512 35.8449C110.924 36.6009 111.135 37.4133 111.131 38.2253C111.128 38.5844 111.085 38.943 111.019 39.2991C110.9 39.9351 110.71 40.5642 110.451 41.1781C110.368 41.3737 110.285 41.6016 110.447 41.7693C110.767 41.7466 110.928 41.4857 111.016 41.2633C111.537 39.9492 111.754 38.5733 111.655 37.2089C111.634 36.9188 111.596 36.6217 111.423 36.3593C111.25 36.0969 110.914 35.8722 110.512 35.8449ZM107.351 85.9714C107.499 85.7838 107.659 85.5914 107.911 85.4756C108.163 85.3606 108.534 85.3485 108.735 85.5082C107.894 86.0742 107.357 86.828 106.836 87.5669C106.577 87.9339 106.317 88.301 106.058 88.6689C105.754 88.6942 105.737 88.3495 105.857 88.1478C106.297 87.4024 106.797 86.6757 107.351 85.9714ZM89.8432 50.7282C89.5576 50.9903 89.3338 51.4168 89.7075 51.6132C90.7852 50.2711 92.7725 49.3284 94.9118 49.1442C95.1116 49.1271 95.1325 48.8964 94.974 48.8075C94.8156 48.7184 94.591 48.7337 94.393 48.7592C92.6117 48.9887 90.9597 49.7037 89.8432 50.7282ZM95.7639 52.1627C95.5467 52.2928 95.1559 52.1395 95.1724 51.9365C95.1891 51.7333 95.5704 51.608 95.8061 51.7203C96.0416 51.8327 96.0466 52.1165 95.8276 52.2452L95.7639 52.1627ZM69.17 43.5129C69.1609 43.7243 69.5451 43.886 69.792 43.7711L69.8496 43.7996C70.085 43.6726 70.0685 43.3702 69.815 43.2628C69.5616 43.1556 69.1794 43.3014 69.17 43.5129ZM100.646 85.9342C101.048 85.3569 102.002 85.0861 102.897 85.0394C103.377 85.0139 103.857 85.0379 104.338 85.0621C104.754 85.083 105.17 85.1038 105.586 85.0927C107.096 85.0515 108.573 84.5677 109.607 83.7756C110.214 83.3105 111.168 82.7006 111.803 83.1461C112.272 81.5714 113.323 80.089 114.817 78.8906C114.853 78.8623 114.889 78.8336 114.925 78.8048C114.969 78.7695 115.014 78.7341 115.059 78.6983L115.062 78.6957L115.064 78.6939C116.205 77.7884 117.539 76.7296 116.937 75.6254C116.758 75.2947 116.425 75.0307 116.09 74.7657C115.896 74.6121 115.702 74.4581 115.537 74.2906C115.086 73.8339 114.925 73.1034 115.561 72.7812C113.431 72.359 111.299 71.9368 109.168 71.5156C108.65 71.4128 108.116 71.3044 107.695 71.0645C107 70.6666 106.755 69.9969 106.55 69.3757C105.949 67.5502 105.345 65.7131 105.21 63.8401C105.126 62.6819 105.222 61.5237 105.319 60.3648V60.3647V60.3646C105.387 59.5415 105.456 58.7181 105.46 57.8942C105.469 55.9105 105.061 53.8455 103.517 52.2022C103.863 51.0525 102.111 50.2127 100.595 49.7371C100.585 49.7833 100.548 49.8259 100.488 49.8518C100.381 49.8987 100.243 49.8732 100.179 49.7946C100.089 49.6366 100.088 49.4693 100.151 49.2941C100.175 49.228 100.203 49.1615 100.234 49.0946C100.363 48.8169 100.579 48.5493 100.678 48.4351C100.644 48.3499 100.595 48.2898 100.544 48.2468C100.467 48.1829 100.378 48.1737 100.343 48.173C99.9856 48.2418 99.6966 48.3702 99.4487 48.5177C99.4491 48.6043 99.3553 48.6781 99.2311 48.6856C99.2196 48.6863 99.2084 48.6864 99.1973 48.6858C99.1092 48.7518 99.0275 48.8202 98.9512 48.8896C98.7469 49.0757 98.5809 49.2676 98.4535 49.4448C98.2029 49.793 98.086 50.07 98.086 50.07C98.075 50.1157 98.0158 50.1465 97.9536 50.1385C97.8912 50.1306 97.8494 50.0871 97.8604 50.0414C97.8604 50.0414 97.885 49.7253 98.0748 49.3241C98.1754 49.1116 98.3235 48.8776 98.5352 48.6587C98.6644 48.5253 98.819 48.3986 98.9983 48.2865C98.9979 48.2602 98.9959 48.2346 98.9918 48.2096C98.978 48.132 98.948 48.0648 98.915 48.0071C98.8029 47.8098 98.6539 47.7295 98.5696 47.6983C98.1877 47.8773 97.9077 48.155 97.6727 48.4445C97.5773 48.5619 97.4911 48.6817 97.408 48.7986C97.3181 48.925 97.2315 49.0473 97.1559 49.1639C97.086 49.272 97.0218 49.3724 96.9659 49.4648C96.7993 49.7398 96.7061 49.9271 96.7061 49.9271C96.694 49.9733 96.6308 50.0039 96.5656 49.9953C96.5002 49.9866 96.4571 49.942 96.4694 49.8958C96.4694 49.8958 96.4879 49.5906 96.6332 49.1798C96.6797 49.048 96.7431 48.9075 96.8222 48.7635C96.8715 48.6741 96.9277 48.5839 96.9933 48.4955C97.1221 48.3221 97.2802 48.1541 97.4602 48.0011C97.7407 47.7629 98.0752 47.5628 98.4636 47.4382C98.504 47.4232 98.5509 47.4194 98.5952 47.4272C98.5952 47.4272 98.829 47.4678 99.0329 47.71C99.0997 47.7895 99.1599 47.8932 99.2209 48.0257C99.2263 48.0377 99.2319 48.05 99.2378 48.0623C99.2446 48.0763 99.2516 48.0905 99.2595 48.1048C99.2649 48.1148 99.2704 48.1248 99.276 48.135C99.5585 48.0016 99.889 47.9036 100.268 47.8556C100.273 47.8547 100.279 47.854 100.284 47.8536C100.289 47.853 100.294 47.8527 100.3 47.8524C100.3 47.8524 100.555 47.8383 100.773 48.0001C100.885 48.0836 100.999 48.2147 101.036 48.4351C101.045 48.4711 101.032 48.5081 101.001 48.5367C101.001 48.5367 100.587 48.851 100.463 49.2047C100.429 49.3016 100.432 49.4006 100.46 49.4899C100.477 49.5421 100.519 49.5836 100.566 49.6246C100.584 49.6459 100.594 49.6689 100.597 49.6921C101.633 49.5467 102.713 49.9606 103.388 50.5512C104.083 51.1604 104.436 51.9298 104.775 52.6797C105.298 53.8389 105.824 55.0089 105.994 56.2214C106.137 57.2366 106.026 58.2568 105.916 59.2762C105.883 59.5872 105.849 59.898 105.823 60.2086C105.548 63.4454 106.06 66.7161 107.33 69.8277C107.855 71.1129 110.124 71.4371 111.973 71.5978C113.779 71.7546 115.994 72.2725 116.26 73.5391C116.153 73.416 115.681 73.489 115.682 73.6946C115.682 73.9205 115.969 74.0751 116.227 74.2132C116.247 74.2241 116.267 74.2349 116.287 74.2457C117.219 74.7548 117.74 75.6328 117.587 76.4669C117.421 77.3782 116.559 78.113 115.722 78.8257C115.598 78.9311 115.475 79.036 115.355 79.141C113.624 80.6495 112.327 82.4156 111.57 84.295C111.14 84.11 110.854 83.7626 110.835 83.403C109.806 84.5854 107.95 85.3748 106.013 85.4504C105.578 85.4676 105.141 85.4514 104.704 85.4351H104.704C104.077 85.4117 103.451 85.3884 102.835 85.4644C101.789 85.5932 100.713 86.1481 100.706 86.9112C99.2078 85.1197 99.1681 82.7455 100.606 80.9297C101.004 80.4262 101.302 79.565 100.51 79.4661C100.453 78.5386 101.6 77.7904 102.793 77.4364C103.305 77.2843 103.842 77.1773 104.378 77.0705H104.378C105.09 76.9289 105.801 76.7873 106.452 76.5407C107.593 76.1082 108.549 75.1694 108.136 74.2895C107.691 73.3425 105.949 73.0567 104.607 73.3155C103.881 73.4549 103.21 73.7015 102.539 73.9484C101.969 74.1583 101.397 74.3683 100.792 74.5129C100.278 74.6355 99.7433 74.7103 99.209 74.7851C98.4129 74.8966 97.6193 75.0077 96.9041 75.2759C95.7097 75.7233 94.8558 76.9068 95.6997 77.6625C96.1903 78.1014 95.1631 78.6441 94.3857 78.5749C94.2016 78.5586 94.0114 78.5312 93.8202 78.5036C93.2038 78.4148 92.5773 78.3246 92.1161 78.5984C94.652 78.871 97.2253 78.9635 99.7862 78.8747C99.7602 79.1848 99.1856 79.2699 98.7534 79.2652C94.4405 79.2176 90.1312 78.9925 85.8537 78.5908C85.025 78.5133 84.193 78.4292 83.359 78.345C78.0765 77.8116 72.7109 77.2698 67.6178 78.3031C68.5302 78.9738 69.7844 79.3979 71.0846 79.4764C70.1068 79.6285 69.0088 79.7659 68.1692 79.3744C67.3296 78.9831 67.2807 77.8343 68.2595 77.6868C73.2317 76.9349 78.2903 77.4477 83.3665 77.9626C86.0078 78.2304 88.6536 78.4986 91.2942 78.5895C91.3075 78.5901 91.3211 78.5906 91.3346 78.5908L91.2942 78.5895C90.4896 78.5479 90.2566 77.6748 90.7092 77.1795C90.9863 76.8767 91.3924 76.6596 91.8005 76.4416V76.4415H91.8007C92.0706 76.2972 92.3415 76.1525 92.5763 75.9821C91.7915 75.7944 90.9311 76.0204 90.2207 76.3239C90.0114 76.4137 89.807 76.5108 89.6027 76.6079H89.6025L89.6023 76.608C89.1131 76.8404 88.6244 77.0724 88.0702 77.2029C87.2847 77.3888 86.2878 77.3029 85.8287 76.8078C85.3693 76.3136 85.9477 75.4581 86.7553 75.586C89.0473 75.9475 91.463 74.2672 91.038 72.6075C90.9519 72.2712 90.7746 71.9532 90.5971 71.6349C90.4391 71.3513 90.2809 71.0673 90.1871 70.7702C89.7448 69.3689 90.7593 68.0453 91.7562 66.7448L91.7564 66.7446V66.7445C92.0326 66.3842 92.3074 66.0256 92.5495 65.6678L92.6037 65.5877C93.4455 64.3448 94.7645 62.3971 93.1803 61.6788C88.8327 59.7067 87.3972 57.8431 88.4757 58.2222L91.9118 57.375L95.279 56.5447C96.0277 56.3601 96.9434 55.7975 96.4211 55.3697C96.2519 55.2309 95.9826 55.1843 95.7308 55.1496C95.5507 55.1248 95.3696 55.1021 95.1883 55.0795C94.4918 54.9924 93.7935 54.9052 93.1539 54.6942C92.3477 54.428 91.6301 53.9094 91.564 53.273C91.4715 52.3842 92.5045 51.8501 93.5821 51.2933C94.3889 50.8762 95.2207 50.4463 95.6232 49.8448C95.8655 49.4829 95.9349 49.0756 95.9864 48.6758C96.2036 46.9926 96.1537 45.2492 95.2937 43.6762C94.4334 42.103 92.6461 40.7196 90.3578 40.3351C87.167 39.7993 83.9392 41.2922 81.9133 43.1449C78.8916 45.9083 77.6247 49.6268 78.5275 53.0822C77.2816 51.6544 77.4589 49.8143 78.0065 48.1753C79.2269 44.5229 82.543 40.9302 87.5796 39.939C86.296 39.3723 84.6094 39.431 83.2435 39.8876C81.8777 40.3441 80.7934 41.1497 79.8976 42.0207C77.7501 44.1087 76.5235 46.6793 76.4356 49.276C76.1772 49.454 75.8771 49.0837 75.8934 48.8267C76.1136 45.4106 78.4084 42.09 82.0614 39.9018C79.6801 40.0663 77.5728 41.4762 77.1721 43.1728C76.7475 43.1247 76.7191 42.6879 76.8548 42.3945C77.4702 41.0663 79.1192 40.0764 80.9531 39.6074C82.7867 39.1384 84.7909 39.1332 86.7237 39.296C89.7144 39.5484 92.8295 40.2837 94.6789 41.9932C96.6367 43.8033 96.764 46.2913 96.5636 48.5803C96.4855 49.4722 96.2462 50.5069 95.1547 50.9337C94.3837 51.2352 93.5952 51.5541 93.0498 52.0489C92.5045 52.5436 92.2567 53.262 92.679 53.8155C93.1014 54.3691 94.3221 54.5657 94.8854 54.0816L94.8361 54.3954C94.817 54.5168 94.7979 54.6381 94.7788 54.7597C95.5753 54.5306 96.5712 54.7402 97.0703 55.2421C97.5694 55.7438 97.5237 56.4897 96.9653 56.9579C97.2189 56.6301 96.2599 56.531 95.9502 56.833C95.8784 56.9029 95.8105 56.9818 95.7421 57.0614C95.5149 57.3255 95.2813 57.5967 94.8824 57.5704L94.9754 56.9423C94.0285 57.2908 93.0816 57.6392 92.1346 57.9876C94.0142 58.0474 95.9152 57.6901 97.5139 56.9766C97.9751 56.7709 98.7842 56.6322 98.8799 57.0164C95.8041 58.1181 92.3161 58.6167 88.8887 58.4444C88.9092 58.8981 89.4556 59.2406 89.9869 59.4853C92.9092 60.8304 96.8256 60.9735 99.9222 59.8479C98.3456 60.9466 95.9514 61.0987 93.76 61.1898C94.5232 62.5222 93.9784 64.0529 93.1788 65.3742C92.9774 65.7069 92.7598 66.0364 92.5419 66.3661C91.8943 67.3461 91.2461 68.3274 91.0265 69.3944C90.7333 70.8197 91.4761 72.4991 93.33 73.0445C93.1068 72.3417 94.1263 71.8248 94.9661 71.399C95.0013 71.3812 95.0363 71.3634 95.0708 71.3458L95.0935 71.3344C97.2094 70.2555 98.4259 68.4222 98.7222 66.5685C99.0186 64.7148 98.4787 62.8376 97.6348 61.0734C98.3722 61.1619 98.6819 61.7903 98.828 62.3177C99.694 65.4457 99.5606 69.1646 96.1754 71.225C96.0124 71.3241 95.8399 71.4241 95.6646 71.5254C94.6137 72.1336 93.4634 72.7992 93.7071 73.7021C94.1148 75.2124 92.883 76.8694 90.91 77.4634C90.8498 77.7773 91.2151 78.0987 91.6542 78.1183C92.0931 78.1387 92.5121 77.8529 92.5071 77.5364L93.0905 78.178C93.5173 78.2639 93.8927 77.9707 94.1485 77.7101C94.2736 78.0556 94.8313 78.2854 95.309 78.1873C94.0828 76.7667 95.7351 74.5829 98.0597 74.552C100.341 74.5222 102.563 73.6134 103.766 72.2188C103.799 72.3251 103.831 72.4312 103.864 72.5371L103.94 72.7827L103.992 72.9522C105.049 72.8018 106.184 72.7915 107.163 73.1156C108.142 73.4387 108.921 74.1496 108.886 74.9238C108.828 76.1735 106.92 76.8947 105.257 77.2551L105.248 77.257C103.587 77.6171 101.641 78.0389 101.052 79.212C101.535 79.2157 101.852 79.6173 101.806 79.9639C101.766 80.2626 101.546 80.5265 101.33 80.7859L101.329 80.7866C101.313 80.806 101.297 80.8256 101.28 80.8452C101.262 80.8668 101.245 80.8884 101.227 80.9101C100.009 82.4101 99.789 84.3099 100.646 85.9342ZM116.275 73.6312C116.287 73.5931 116.28 73.5625 116.26 73.5391C116.266 73.5694 116.271 73.6 116.275 73.6312ZM87.0946 76.0699C86.8358 76.1063 86.5583 76.1531 86.3846 76.295C86.2107 76.4379 86.2262 76.7078 86.4729 76.7752C86.6607 76.6182 86.9024 76.4949 87.1706 76.4202C87.0622 76.7303 87.6804 77.0132 88.0257 76.8115C89.1392 76.1595 90.4986 75.7271 91.9182 75.572C91.9553 75.568 91.9927 75.564 92.0303 75.5602C92.3467 75.527 92.6707 75.4931 92.9319 75.3637C93.2241 75.219 93.391 74.9042 93.175 74.7025C93.0412 74.5771 93.0919 74.4139 93.1422 74.2518C93.1601 74.1943 93.178 74.1369 93.1873 74.0814C93.2875 73.4985 92.4491 73.0828 91.7248 72.8129C91.6063 73.0564 91.5767 73.3143 91.5471 73.5727C91.5196 73.8119 91.4922 74.0512 91.3942 74.2794C91.1364 74.8799 90.4141 75.3283 89.6196 75.5879C88.9157 75.8188 88.1499 75.9243 87.3886 76.0291C87.2904 76.0427 87.1924 76.0561 87.0946 76.0699ZM77.351 57.8745C77.377 57.4334 76.9379 56.9562 76.3826 56.8554C75.4831 56.6918 73.3149 56.4359 71.8101 56.3902C72.2332 55.5688 72.6562 54.7475 73.079 53.9263C73.4791 54.7986 74.1732 55.6007 75.0856 56.2446C75.0385 55.7389 74.6857 55.2933 74.3315 54.846C74.1677 54.6393 74.0035 54.4321 73.8693 54.2184C73.4447 53.5427 73.4678 52.5619 74.4118 52.2611C75.9785 51.7617 76.8544 50.1352 75.6743 49.2427C75.2848 48.9482 74.759 48.7839 74.2343 48.6201C74.0524 48.5633 73.8707 48.5066 73.6948 48.4444C73.011 48.2029 72.3295 47.7844 72.3279 47.2377C73.5481 47.1231 74.5861 46.4673 75.112 45.6689C75.6378 44.8706 75.7061 43.95 75.5429 43.0748C75.5394 43.0558 75.5358 43.0366 75.532 43.0175L75.5249 42.979C75.4253 42.4569 75.3148 41.8768 75.7944 41.4891C76.8057 40.6718 76.2995 39.4008 75.7401 38.3843C75.6042 38.137 75.3736 37.8442 75.0043 37.8633C74.7888 37.8745 74.6185 37.9946 74.4801 38.1136C73.7503 38.7417 73.3382 39.5559 73.336 40.3737C72.4861 40.3938 71.7942 39.8317 71.5841 39.2405C71.4153 38.7659 71.4726 38.2717 71.5294 37.7802C71.5433 37.6595 71.5574 37.5391 71.568 37.419C71.7168 35.7325 71.1724 34.0172 70.0203 32.5433C69.881 32.365 69.7325 32.1897 69.5842 32.0145C69.234 31.6004 68.8838 31.1865 68.6516 30.7331C68.3215 30.0877 68.2658 29.3203 68.8015 28.7502C69.263 28.259 70.0416 28.0166 70.816 27.7757C71.0675 27.6975 71.3183 27.6194 71.5578 27.5331C72.7721 27.0949 73.786 26.3763 74.4116 25.5103C74.6056 25.2419 74.7658 24.9317 74.6435 24.6423C74.5213 24.3529 73.9934 24.1474 73.6586 24.3312C74.2303 24.9507 73.8121 25.8275 73.0512 26.3317C72.4493 26.7306 71.6874 26.9655 70.9291 27.1994C70.729 27.2611 70.5292 27.3228 70.3326 27.3874C69.391 27.6965 68.4377 28.1344 68.069 28.8287C67.9865 28.9841 67.9313 29.1528 67.8764 29.3211C67.7534 29.6984 67.6311 30.0726 67.203 30.284C66.5872 30.588 65.5868 30.2178 65.5747 29.6815C65.4035 30.068 65.2322 30.4545 65.0609 30.8408L65.0577 30.8482L65.0314 30.9073L64.7609 31.5175C65.1555 30.9677 66.0541 30.6286 66.9088 30.7064C68.2585 30.8293 69.0945 31.8083 69.6077 32.7122C70.5982 34.456 71.1452 36.329 71.2136 38.2114C71.2511 39.2414 69.4779 39.7215 68.0649 39.9049C67.5272 39.3036 66.8253 38.7781 66.0108 38.3671C65.2217 37.9688 64.077 38.6014 64.0056 39.2919C63.9344 39.9823 64.5234 40.6074 65.0714 41.1771C65.619 41.7469 66.1764 42.3968 66.0318 43.0812C65.8947 43.7311 65.1642 44.2206 64.4799 44.6575C62.001 46.24 59.4289 48.0079 58.7358 50.3362C58.1455 52.3188 59.03 54.3575 59.9046 56.2854C57.3798 55.5262 55.3709 53.932 54.5718 52.0532C53.7728 50.1745 54.1987 48.047 55.7024 46.4055C55.6748 46.7335 56.2242 46.9626 56.6734 46.8985C57.1224 46.8343 57.4659 46.5798 57.7595 46.3278C61.4973 43.1173 61.7466 38.0701 58.3349 34.6776C58.6398 34.6067 58.9447 34.5357 59.2496 34.4646C59.0016 34.3491 59.1095 34.0436 59.3713 33.945C59.6331 33.8464 59.9511 33.8913 60.2365 33.9465C63.2686 34.5331 65.9156 36.0754 67.3382 38.0844L67.4968 38.0238L68.0504 37.8125L68.1138 38.6327L68.1829 39.5293C68.6755 38.8875 68.7888 38.1015 68.4896 37.401C68.2084 37.2016 67.6582 37.2752 67.496 37.534C65.7882 35.237 62.3822 33.6375 58.7654 33.4339C58.8722 33.7432 58.4687 34.0461 58.0328 34.1062C57.5969 34.1662 57.1544 34.0547 56.7376 33.9449C59.0535 35.6061 60.3783 37.9566 60.323 40.3061C60.2677 42.6558 58.8334 44.9727 56.441 46.5773C56.643 46.3098 56.1482 45.9935 55.7336 46.057C55.319 46.1203 55.0437 46.3974 54.835 46.6622C52.3909 49.7646 53.9709 54.1625 58.2011 56.03C58.4088 56.1218 58.6239 56.2094 58.8394 56.2974C59.6301 56.6198 60.4277 56.9449 60.907 57.4878C58.5995 58.3561 55.9705 58.1436 53.3126 57.9287C51.1454 57.7536 48.9588 57.577 46.911 57.9832C46.4135 58.082 45.8174 58.3801 46.0206 58.7205C48.2971 57.945 50.9125 58.1462 53.5104 58.3462C56.3285 58.5629 59.1258 58.7783 61.448 57.7437C61.2693 58.5711 61.2383 59.6244 62.2737 60.0107C62.7575 60.1911 63.3361 60.1557 63.8788 60.1155L64.7005 60.0547C65.5934 59.9888 66.4862 59.9228 67.3791 59.8567C68.1939 59.7965 68.6363 59.0522 68.3656 58.4973C68.0949 57.9426 67.3503 57.5784 66.5952 57.3507L67.5059 57.0397L68.4167 56.7287C68.036 57.3584 69.142 57.8995 70.0418 58.1323C70.6167 58.281 71.1915 58.4297 71.7661 58.5784L71.7814 58.5822L71.7967 58.5862L72.6825 58.8153C73.6968 59.0776 74.7948 59.3429 75.831 59.1285C76.6235 58.9647 77.3162 58.4659 77.351 57.8745ZM66.041 44.337C66.8269 45.6272 68.4986 46.6207 70.4113 46.9347C71.0094 47.0331 71.8359 47.3499 71.5139 47.7246C70.7834 47.7892 70.0533 47.8539 69.3229 47.9185C68.8323 47.9618 68.3149 48.013 67.9261 48.2322C67.5373 48.4512 67.3549 48.8997 67.6822 49.1655C66.8017 48.9395 66.1026 48.3799 65.8852 47.7272C65.323 48.6315 66.7502 49.571 68.1082 49.7474C68.6222 49.8142 69.1523 49.8274 69.6805 49.8404H69.6807C70.5475 49.8618 71.4095 49.8831 72.1879 50.1413C71.7097 51.5798 69.6735 52.6637 67.6166 52.575C65.5596 52.4862 63.719 51.2352 63.484 49.766C62.8873 50.4348 63.45 51.3439 64.256 51.8883C64.5806 52.1076 64.943 52.2979 65.3045 52.4878L65.3047 52.488C65.841 52.7698 66.3759 53.0507 66.7838 53.424C67.9136 54.4583 67.693 56.1195 66.3107 56.9819C65.9527 57.2053 66.1473 57.647 66.5057 57.8701C66.6727 57.9739 66.8655 58.0537 67.0581 58.1332C67.2787 58.2244 67.499 58.3155 67.6798 58.4427C68.0183 58.681 68.1314 59.1517 67.7228 59.3243C67.2193 59.5367 66.6906 59.0811 66.4485 58.6996C66.6059 59.0653 66.2801 59.5009 65.7683 59.6091C65.2564 59.7172 64.654 59.4778 64.5097 59.1092C64.4129 58.8615 64.2058 58.4669 63.9259 58.6278C64.3292 59.0338 63.9718 59.7006 63.2934 59.8078C62.615 59.9149 61.9002 59.4175 62.0286 58.9277C62.2198 58.1985 61.6607 57.5028 61.1366 56.8504C61.0902 56.7928 61.0441 56.7356 60.999 56.6785C59.2393 54.4627 58.4915 51.7003 59.8145 49.3329C60.9875 47.2341 63.5661 45.737 66.041 44.337ZM74.8155 49.3274C75.0478 49.4292 75.3631 49.5673 75.5032 49.6789C76.6213 50.5685 74.8876 52.5819 73.2118 51.8583C72.8393 53.2679 72.2048 54.6419 71.3302 55.9322L71.3269 55.9374C71.2259 56.0863 71.1205 56.2418 71.1255 56.4073C71.1307 56.5747 71.2921 56.753 71.5248 56.7635C71.8413 56.7776 72.1931 56.7862 72.5616 56.7951C74.4004 56.8397 76.6575 56.8943 77.0323 57.7207C77.0129 57.8355 76.9274 57.944 76.8002 58.0152C76.7427 57.897 76.4986 57.8539 76.3712 57.9397C76.5559 58.1234 76.5167 58.4045 76.2852 58.5585C76.0536 58.7125 75.66 58.7191 75.4185 58.5728C75.3257 58.5166 75.2406 58.4394 75.1565 58.3632C74.9707 58.1948 74.7904 58.0315 74.5459 58.1114C74.7302 58.2601 74.7272 58.5095 74.5398 58.6559C74.3521 58.8024 74.0061 58.8254 73.7842 58.7063C72.5483 58.0425 70.9709 57.8233 69.4529 57.6223C68.9659 57.5578 68.9971 57.0488 69.1678 56.7151C69.8583 55.367 70.7626 54.0751 71.8572 52.8727C72.2923 52.395 72.6338 51.802 72.6976 51.2702C72.7636 50.7194 72.7576 49.7958 71.9693 49.7374C72.373 49.09 73.8043 48.7469 74.5565 49.2068C74.5968 49.2314 74.695 49.2746 74.8155 49.3274ZM67.9655 52.9566L67.9659 52.9565C68.0396 52.9525 68.113 52.9485 68.1857 52.9435C69.7292 52.8365 71.1851 52.1996 72.0241 51.2638C72.106 52.0436 71.4549 52.6874 70.792 53.3429C70.2853 53.8439 69.7719 54.3516 69.5733 54.9321C69.4201 55.38 68.9848 55.7461 68.563 56.0939C68.296 56.3141 68.0291 56.5343 67.7621 56.7545C67.5377 56.6778 67.647 56.4371 67.7653 56.2802C68.5336 55.2631 68.1847 53.8785 66.9688 53.1188C67.2668 52.9951 67.6182 52.9756 67.9655 52.9566ZM70.102 48.3477C70.3141 48.2645 70.5256 48.1814 70.7631 48.1623C71.2456 48.1235 71.7325 48.4069 71.7789 48.7536C71.8254 49.1003 71.4227 49.4452 70.9389 49.4731C69.9651 49.529 68.9788 49.4695 68.0319 49.2978L68.1599 48.9701C68.1927 48.8857 68.2257 48.8012 68.2585 48.7169C68.3423 48.502 68.6687 48.2368 68.8762 48.4029C69.104 48.5852 69.5183 48.5517 69.8281 48.4494C69.921 48.4188 70.0114 48.3832 70.102 48.3477ZM81.2673 47.8203C80.8839 48.9338 81.385 49.3645 81.6362 48.4336C82.6058 44.8434 86.8756 41.8348 91.8955 41.2047C91.65 40.9019 91.0328 40.9333 90.5612 41.0238C86.0781 41.8836 82.3804 44.5876 81.2673 47.8203ZM72.7043 48.919L72.5107 48.8408L72.3237 48.7653L72.3384 48.7455C72.1512 48.4994 72.0319 48.2267 71.9898 47.9479C72.467 48.1707 73.009 48.5739 72.7043 48.919ZM74.0822 39.7817C74.2543 39.1656 74.4277 38.5455 75.1665 38.274C75.285 38.5814 75.403 38.8888 75.5213 39.1962L75.7854 39.8831C75.3203 40.3377 75.1327 40.9333 75.2798 41.4875C74.8626 41.1986 74.3336 40.9937 73.7681 40.902C74.173 41.2746 74.5845 41.6555 74.8071 42.1003C75.0295 42.5449 75.0349 43.0725 74.6584 43.4603C74.6121 43.5077 74.6533 43.5718 74.6912 43.6228C75.1265 44.2069 75.0675 44.9636 74.5439 45.5091L74.5507 45.5168C74.6129 45.59 74.6312 45.6116 74.4438 45.8388C74.3992 46.2029 73.7385 46.3433 73.2364 46.2816C73.0943 46.2641 72.9514 46.238 72.8087 46.212C72.4477 46.1459 72.087 46.0798 71.7369 46.1538C71.9812 46.4572 72.4048 46.6833 72.8798 46.764C71.2034 47.0182 69.4996 46.4093 68.1605 45.6422C67.4644 45.2436 66.8019 44.7768 66.4821 44.1804C65.9889 43.2614 66.4848 42.1212 67.6188 41.5664C67.9428 41.408 67.7721 41.0447 67.5508 40.8127C67.2366 40.4831 66.8452 40.158 66.3101 40.0488C65.7748 39.9395 65.0869 40.1487 65.0092 40.544C64.7993 40.0489 64.6872 39.5326 64.6772 39.0151C64.6752 38.9154 64.6804 38.8082 64.7633 38.728C64.9368 38.5601 65.3043 38.6209 65.5633 38.7165C66.6697 39.1246 67.5153 39.8812 67.8301 40.7448C67.9388 41.0431 68.241 41.4513 68.6176 41.3029C68.5338 41.0689 68.4499 40.8348 68.3662 40.6008C68.339 40.5246 68.3123 40.4408 68.3594 40.3697C68.4059 40.2992 68.5121 40.2608 68.6115 40.2292C69.1967 40.0429 69.8146 39.9099 70.4459 39.8344L70.5135 40.034L70.5811 40.2338C71.2668 40.2541 71.948 40.3516 72.5924 40.5216C72.3074 40.7272 72.7361 41.1036 73.1317 41.0441C73.5272 40.9848 73.76 40.6901 73.8773 40.4126C73.9615 40.2129 74.0218 39.9976 74.0822 39.7817ZM66.9201 41.2021C66.8559 41.1873 66.7919 41.1727 66.7261 41.1798C66.5636 41.1976 66.5033 41.3212 66.4433 41.4449C66.3831 41.5686 66.3228 41.6922 66.1605 41.7103C65.7275 41.3687 65.5775 40.8553 65.7824 40.4176C66.402 40.4226 67.0003 40.7072 67.2485 41.1145C67.2712 41.1877 67.1342 41.2357 67.0313 41.2234C66.9939 41.219 66.9569 41.2106 66.9201 41.2021Z" fill="#00160A"/>
<path fill-rule="evenodd" clip-rule="evenodd" d="M91.9168 52.6433C92.0132 52.4543 92.9816 52.3587 93.0782 52.4852C93.175 52.6116 92.5311 52.8045 92.4968 53.4021C92.4934 53.4616 92.2316 53.4021 92.2316 53.4021C92.2316 53.4021 91.7959 52.8799 91.9168 52.6433Z" fill="#FFB61D"/>
<path fill-rule="evenodd" clip-rule="evenodd" d="M72.0458 49.8928C72.0458 49.8928 72.1569 49.7393 72.3668 49.5714C72.592 49.3917 72.9385 49.1993 73.4134 49.1923C73.6912 49.1881 74.0079 49.2542 74.379 49.4166C74.5624 49.4968 74.759 49.5985 74.9665 49.73C75.5392 50.0718 75.6018 50.5517 75.3895 50.9704C75.1554 51.433 74.6044 51.8317 73.9725 51.9162C73.8626 51.9296 73.3515 51.9216 72.9387 51.7566C72.7612 51.6857 72.6109 51.5796 72.5205 51.4457C72.4694 51.3699 72.4531 51.2825 72.4563 51.184C72.4463 51.0921 72.3348 51.0233 72.2072 51.0305C72.0796 51.0378 71.9842 51.1181 71.9941 51.2099C72.0643 51.5079 72.2937 51.7057 72.591 51.8423C72.7187 51.9009 72.8546 51.9502 72.993 51.9906C73.44 52.1202 73.9057 52.1507 74.0202 52.14C74.7829 52.0736 75.4921 51.6323 75.8123 51.0908C76.1349 50.5461 76.0592 49.9077 75.3263 49.4305C75.0866 49.2835 74.8624 49.1672 74.6485 49.0819C74.1611 48.8874 73.7383 48.833 73.3839 48.86C72.9681 48.8919 72.6397 49.0298 72.397 49.1993C71.9963 49.4785 71.8286 49.8278 71.8286 49.8278C71.8037 49.871 71.8321 49.9206 71.8922 49.9384C71.9522 49.9565 72.021 49.936 72.0458 49.8928Z" fill="#FFB61D"/>
<path fill-rule="evenodd" clip-rule="evenodd" d="M73.2291 50.2644C73.2291 50.2644 73.3694 50.2724 73.5423 50.2954C73.6226 50.3061 73.7007 50.3306 73.7757 50.3599C73.8176 50.3762 73.851 50.3999 73.8749 50.4364C73.9017 50.4774 73.9301 50.5266 73.9323 50.5944C73.9325 50.5914 73.9494 50.7741 73.6801 50.8017C73.6393 50.806 73.5934 50.811 73.5435 50.8048C73.5238 50.8023 73.5048 50.797 73.4851 50.7904C73.4219 50.7691 73.3783 50.7333 73.311 50.6939C73.1943 50.6647 73.0661 50.7083 73.0251 50.7914C72.9838 50.8745 73.0452 50.9657 73.1619 50.9948C73.2501 50.9934 73.3147 50.9916 73.3885 50.9878C73.4219 50.9863 73.4517 50.9853 73.4823 50.9873C73.7061 51.0018 73.8604 51.005 73.9836 50.973C74.3334 50.8825 74.3883 50.6208 74.3883 50.6208C74.3883 50.6198 74.3885 50.6188 74.3885 50.6178C74.4245 50.4614 74.3921 50.3413 74.3318 50.2495C74.2915 50.1882 74.234 50.1383 74.1661 50.1015C74.0381 50.0322 73.8802 49.9949 73.7214 49.9972C73.6369 49.9983 73.5574 50.004 73.4825 50.019C73.2955 50.0564 73.1659 50.109 73.1659 50.109C73.1056 50.1213 73.0708 50.1663 73.0883 50.2092C73.1056 50.2521 73.1688 50.2768 73.2291 50.2644Z" fill="#FFB61D"/>
<path opacity="0.01" fill-rule="evenodd" clip-rule="evenodd" d="M87.0934 53.98C87.0934 53.98 87.1739 54.0151 87.3518 54.0449C87.4059 54.0539 87.4613 54.0533 87.5295 54.0522C87.5766 54.0515 87.6243 54.0446 87.6752 54.0344C87.7201 54.0254 87.7658 54.0114 87.8102 53.993C87.8589 53.9728 87.9062 53.9494 87.9517 53.9196C88.092 53.828 88.1727 53.6902 88.3308 53.5389C88.3431 53.5272 88.3578 53.5187 88.3757 53.5106C88.4278 53.487 88.4584 53.4787 88.517 53.457C88.5794 53.3775 88.5391 53.2771 88.4274 53.2328C88.3152 53.1885 88.1737 53.2171 88.1113 53.2965C88.1145 53.3436 88.1409 53.3712 88.1199 53.4122C88.1036 53.444 88.0622 53.4643 88.03 53.4854C87.9225 53.5565 87.8038 53.5828 87.6987 53.6145C87.6609 53.6258 87.6241 53.6313 87.5895 53.641C87.5536 53.6511 87.5186 53.6593 87.4872 53.6701C87.4194 53.6933 87.3707 53.7216 87.3192 53.7395C87.1906 53.784 87.131 53.8148 87.131 53.8148C87.0668 53.8074 87.0064 53.8386 86.996 53.8842C86.9857 53.9296 87.0294 53.9725 87.0934 53.98Z" fill="#FFB61D"/>
</svg>
