<svg width="6" height="11" viewBox="0 0 6 11" fill="none" xmlns="http://www.w3.org/2000/svg">
<path d="M5.62385 7.04129C5.62385 7.61049 5.43784 8.10156 5.06581 8.51451C4.69751 8.92374 4.2176 9.17671 3.62608 9.27344V10.25C3.62608 10.3021 3.60934 10.3449 3.57586 10.3783C3.54238 10.4118 3.49959 10.4286 3.44751 10.4286H2.69416C2.6458 10.4286 2.60302 10.41 2.56581 10.3728C2.53233 10.3393 2.51559 10.2984 2.51559 10.25V9.27344C2.27005 9.23996 2.03196 9.18229 1.8013 9.10045C1.57437 9.0186 1.3865 8.93676 1.23769 8.85491C1.08888 8.76935 0.95123 8.68006 0.824742 8.58705C0.698254 8.49033 0.610828 8.41964 0.562465 8.375C0.517822 8.33036 0.4862 8.29687 0.467599 8.27455C0.404355 8.19643 0.400635 8.12016 0.456438 8.04576L1.03122 7.29241C1.05726 7.25521 1.10004 7.23289 1.15956 7.22545C1.21537 7.21801 1.26001 7.23475 1.29349 7.27567C1.29349 7.27567 1.29721 7.27939 1.30465 7.28683C1.72504 7.65513 2.17705 7.88765 2.66068 7.98437C2.79833 8.01414 2.93598 8.02902 3.07363 8.02902C3.37497 8.02902 3.6391 7.94903 3.86604 7.78906C4.09669 7.62909 4.21202 7.40216 4.21202 7.10826C4.21202 7.00409 4.18412 6.90551 4.12831 6.8125C4.07251 6.71949 4.00927 6.64137 3.93858 6.57812C3.87162 6.51488 3.76373 6.44606 3.61492 6.37165C3.46611 6.29353 3.34334 6.234 3.24662 6.19308C3.14989 6.14844 3.00108 6.08705 2.80019 6.00893C2.6551 5.9494 2.53977 5.9029 2.45421 5.86942C2.37236 5.83594 2.25889 5.78757 2.1138 5.72433C1.96872 5.65737 1.85153 5.5997 1.76224 5.55134C1.67668 5.49926 1.57251 5.43229 1.44974 5.35045C1.32697 5.2686 1.22653 5.19048 1.1484 5.11607C1.074 5.03795 0.994013 4.9468 0.908447 4.84263C0.822882 4.73475 0.755918 4.62686 0.707554 4.51897C0.662912 4.40737 0.623849 4.28274 0.590367 4.14509C0.560605 4.00744 0.545724 3.86235 0.545724 3.70982C0.545724 3.19643 0.728016 2.74628 1.0926 2.35938C1.45718 1.97247 1.93151 1.72321 2.51559 1.61161V0.607143C2.51559 0.558779 2.53233 0.517857 2.56581 0.484374C2.60302 0.447172 2.6458 0.428571 2.69416 0.428571H3.44751C3.49959 0.428571 3.54238 0.445312 3.57586 0.478794C3.60934 0.512277 3.62608 0.555059 3.62608 0.607143V1.58929C3.83813 1.61161 4.04275 1.65439 4.23992 1.71763C4.44081 1.78088 4.60264 1.84412 4.72541 1.90737C4.8519 1.96689 4.97095 2.03571 5.08255 2.11384C5.19416 2.19196 5.26671 2.24591 5.30019 2.27567C5.33367 2.30543 5.36157 2.33147 5.38389 2.35379C5.44714 2.42076 5.45644 2.49144 5.4118 2.56585L4.95979 3.38058C4.93002 3.43638 4.88724 3.46615 4.83144 3.46987C4.77936 3.48103 4.72913 3.46801 4.68077 3.4308C4.66961 3.41964 4.64171 3.39732 4.59706 3.36384C4.55614 3.33036 4.4836 3.28199 4.37943 3.21875C4.27898 3.15179 4.1711 3.09226 4.05577 3.04018C3.94044 2.98437 3.80093 2.93601 3.63724 2.89509C3.47727 2.85045 3.31916 2.82812 3.16291 2.82812C2.80949 2.82812 2.52117 2.90811 2.29796 3.06808C2.07474 3.22805 1.96313 3.43452 1.96313 3.6875C1.96313 3.78423 1.97802 3.87351 2.00778 3.95536C2.04126 4.0372 2.09706 4.11533 2.17519 4.18973C2.25331 4.26042 2.32586 4.3218 2.39282 4.37388C2.46351 4.42225 2.56767 4.47991 2.70532 4.54687C2.84669 4.61012 2.96016 4.66034 3.04572 4.69754C3.13129 4.73103 3.2615 4.78125 3.43635 4.84821C3.63352 4.92262 3.78419 4.98214 3.88836 5.02679C3.99252 5.06771 4.13389 5.13281 4.31247 5.2221C4.49104 5.30766 4.63055 5.38579 4.73099 5.45647C4.83516 5.52716 4.95049 5.62016 5.07697 5.73549C5.20718 5.85082 5.30577 5.96987 5.37273 6.09263C5.44342 6.21168 5.50294 6.35305 5.5513 6.51674C5.59967 6.68043 5.62385 6.85528 5.62385 7.04129Z" fill="white"/>
</svg>
