<svg width="23" height="23" viewBox="0 0 23 23" fill="none" xmlns="http://www.w3.org/2000/svg">
<path d="M10 3.5H3C2.46957 3.5 1.96086 3.71071 1.58579 4.08579C1.21071 4.46086 1 4.96957 1 5.5V19.5C1 20.0304 1.21071 20.5391 1.58579 20.9142C1.96086 21.2893 2.46957 21.5 3 21.5H17C17.5304 21.5 18.0391 21.2893 18.4142 20.9142C18.7893 20.5391 19 20.0304 19 19.5V12.5" stroke="black" stroke-width="2" stroke-linecap="round" stroke-linejoin="round"/>
<path d="M17.5 2.00023C17.8978 1.6024 18.4374 1.37891 19 1.37891C19.5626 1.37891 20.1022 1.6024 20.5 2.00023C20.8978 2.39805 21.1213 2.93762 21.1213 3.50023C21.1213 4.06284 20.8978 4.6024 20.5 5.00023L11 14.5002L7 15.5002L8 11.5002L17.5 2.00023Z" stroke="black" stroke-width="2" stroke-linecap="round" stroke-linejoin="round"/>
</svg>
