<svg width="72" height="58" viewBox="0 0 72 58" fill="none" xmlns="http://www.w3.org/2000/svg">
<path d="M66.2834 10.1464C65.8835 8.55137 63.9234 7.25 61.9237 7.25H37.3727C35.3767 7.25 32.5807 6.09725 31.1683 4.68712L29.0209 2.55562C27.6086 1.1455 24.8162 0 22.8201 0H11.0923C9.09263 0 7.27671 1.62037 7.05693 3.60325L6.00485 14.5H67.0076L66.2834 10.1464ZM69.9116 18.125H2.08836C1.79734 18.1252 1.50957 18.1865 1.24347 18.3051C0.977384 18.4237 0.738843 18.5969 0.543131 18.8136C0.347419 19.0303 0.198851 19.2857 0.106945 19.5635C0.0150388 19.8413 -0.0181797 20.1354 0.00941727 20.4269L3.33501 55.477C3.40126 56.1674 3.7206 56.8082 4.23081 57.2746C4.74102 57.741 5.40555 57.9996 6.09492 58H65.9051C66.5944 57.9996 67.259 57.741 67.7692 57.2746C68.2794 56.8082 68.5987 56.1674 68.665 55.477L71.9906 20.4269C72.0182 20.1354 71.985 19.8413 71.8931 19.5635C71.8011 19.2857 71.6526 19.0303 71.4569 18.8136C71.2612 18.5969 71.0226 18.4237 70.7565 18.3051C70.4904 18.1865 70.2027 18.1252 69.9116 18.125Z" fill="#E5C30D"/>
</svg>
