<svg width="34" height="33" viewBox="0 0 34 33" fill="none" xmlns="http://www.w3.org/2000/svg">
<path d="M0 5.11591C0 3.92562 0.447118 2.78409 1.24299 1.94243C2.03887 1.10077 3.11831 0.62793 4.24384 0.62793H29.7069C30.8324 0.62793 31.9119 1.10077 32.7078 1.94243C33.5036 2.78409 33.9507 3.92562 33.9507 5.11591V27.5558C33.9507 28.7461 33.5036 29.8876 32.7078 30.7293C31.9119 31.5709 30.8324 32.0438 29.7069 32.0438H4.24384C3.11831 32.0438 2.03887 31.5709 1.24299 30.7293C0.447118 29.8876 0 28.7461 0 27.5558V5.11591ZM2.12192 25.3118V27.5558C2.12192 28.1509 2.34548 28.7217 2.74342 29.1425C3.14136 29.5634 3.68107 29.7998 4.24384 29.7998H29.7069C30.2697 29.7998 30.8094 29.5634 31.2073 29.1425C31.6053 28.7217 31.8288 28.1509 31.8288 27.5558V19.7018L23.8143 15.3328C23.6153 15.2274 23.39 15.1908 23.1703 15.2283C22.9506 15.2657 22.7476 15.3753 22.59 15.5415L14.7176 23.8667L9.07334 19.8903C8.86955 19.7468 8.62511 19.6823 8.38146 19.7077C8.13781 19.733 7.90996 19.8467 7.73653 20.0295L2.12192 25.3118ZM12.7315 10.7259C12.7315 9.83316 12.3962 8.97701 11.7993 8.34577C11.2024 7.71452 10.3928 7.35989 9.54865 7.35989C8.70449 7.35989 7.89492 7.71452 7.29801 8.34577C6.7011 8.97701 6.36576 9.83316 6.36576 10.7259C6.36576 11.6186 6.7011 12.4747 7.29801 13.106C7.89492 13.7372 8.70449 14.0919 9.54865 14.0919C10.3928 14.0919 11.2024 13.7372 11.7993 13.106C12.3962 12.4747 12.7315 11.6186 12.7315 10.7259Z" fill="black"/>
</svg>
