<svg width="17" height="18" viewBox="0 0 17 18" fill="none" xmlns="http://www.w3.org/2000/svg">
<g clip-path="url(#clip0_389_3820)">
<path d="M15.0239 11.3558C14.5732 12.4106 13.8684 13.3401 12.971 14.0631C12.0736 14.786 11.011 15.2803 9.87602 15.5028C8.74103 15.7253 7.56826 15.6692 6.46023 15.3394C5.3522 15.0097 4.34265 14.4163 3.51985 13.6111C2.69704 12.8059 2.08603 11.8135 1.74024 10.7206C1.39445 9.62767 1.3244 8.46756 1.53621 7.34167C1.74803 6.21577 2.23527 5.15838 2.95532 4.26193C3.67538 3.36548 4.60633 2.65727 5.66679 2.19922" stroke="#A7A8AB" stroke-width="1.5" stroke-linecap="round" stroke-linejoin="round"/>
<path d="M15.5833 8.62862C15.5833 7.7079 15.4001 6.79619 15.0441 5.94555C14.6882 5.09492 14.1664 4.32201 13.5087 3.67096C12.8509 3.01991 12.0701 2.50347 11.2107 2.15113C10.3513 1.79878 9.4302 1.61743 8.5 1.61743V8.62862H15.5833Z" stroke="#A7A8AB" stroke-width="1.5" stroke-linecap="round" stroke-linejoin="round"/>
</g>
<defs>
<clipPath id="clip0_389_3820">
<rect width="17" height="16.8268" fill="white" transform="translate(0 0.215088)"/>
</clipPath>
</defs>
</svg>
