<svg width="156" height="156" viewBox="0 0 156 156" fill="none" xmlns="http://www.w3.org/2000/svg">
<g clip-path="url(#clip0_338_5674)">
<path d="M156 0H0V156H156V0Z" fill="white"/>
<path fill-rule="evenodd" clip-rule="evenodd" d="M107.595 19.5789C83.1696 15.5718 85.6598 55.6828 53.16 50.1929C19.9181 44.5775 9.98278 84.1905 19.9181 106.071C30.649 129.704 99.3605 142.408 123.942 124.987C151.609 105.379 153.424 27.0974 107.595 19.5789Z" fill="black" fill-opacity="0.5"/>
<path fill-rule="evenodd" clip-rule="evenodd" d="M53.3491 62.6406C53.3491 62.6406 56.1537 68.7558 58.5896 71.5907C62.0462 75.6136 66.9822 78.9555 68.8359 82.093C73.2403 89.5481 71.2868 93.1948 71.2868 93.1948C71.2868 93.1948 68.9599 85.1581 65.6248 81.2329C63.0795 78.2371 58.0798 74.9145 56.4087 72.4541C53.3984 68.0222 51.8431 63.7763 51.8431 63.7763L53.3491 62.6406Z" fill="white"/>
<path d="M87.9746 127.729C76.4751 128.267 64.984 128.979 53.5061 129.866C52.0343 130.012 50.9452 130.033 51.0034 130.19C49.9686 130.124 48.0981 129.561 47.0107 130.012C47.8298 130.202 49.3781 130.926 49.4701 131.762C38.6387 132.386 27.7472 131.965 16.9963 130.505C27.5225 131.222 38.081 131.468 48.6293 131.243C47.2701 130.33 45.5218 130.02 43.9314 130.408C45.9815 129.417 48.3571 129.115 50.5899 129.561C48.8862 127.655 47.7572 125.242 47.3855 122.713C49.0876 123.877 50.4487 125.533 51.2607 127.428C51.1832 123.866 53.7039 120.405 57.118 119.386C54.9378 122.163 53.7852 125.728 53.9277 129.256C64.8278 128.325 75.7517 127.673 86.6852 127.303C86.1455 126.875 85.7783 126.235 85.6814 125.553C86.216 125.097 87.0056 124.963 87.6608 125.217C88.1419 121.408 90.7912 117.95 94.3428 116.494C92.3645 118.728 90.9902 121.492 90.4028 124.418C91.0131 124.049 91.7856 123.959 92.4641 124.179C92.2706 125.004 91.7868 125.758 91.1171 126.278C104.655 123.183 118.866 128.455 132.617 126.521C125.675 128.766 118.175 127.026 110.918 126.271C100.295 125.217 90.0931 127.303 87.9746 127.729Z" fill="white"/>
<path d="M116.62 45.3854C116.739 44.2525 117.714 43.4032 118.715 42.858C120.524 41.8721 122.654 41.4875 124.695 41.7783C125.618 41.91 126.323 41.0297 126.983 40.3702C128.695 38.6585 131.313 38.0335 133.702 38.4289C136.091 38.8243 138.256 40.1441 140 41.8247C141.744 43.5051 143.105 45.5385 144.364 47.6069C144.628 48.0408 145.241 48.0522 145.749 48.0275C146.844 47.9738 147.996 48.004 148.952 48.5396C149.909 49.075 150.581 50.2637 150.194 51.2893C150.012 51.7696 149.628 52.1523 149.188 52.4173C148.311 52.946 147.248 53.0369 146.226 53.1149C139.418 53.6349 132.609 54.1547 125.8 54.6747C123.937 54.817 122.045 54.9576 120.215 54.5786C118.385 54.1994 116.594 53.2246 115.658 51.6078C114.721 49.991 114.878 47.6882 116.315 46.4939C116.618 46.2414 116.578 45.7782 116.62 45.3854Z" fill="white"/>
<path d="M93.8288 55.817C95.3149 57.5241 102.986 56.9263 103.235 60.0494C102.356 60.2905 101.477 60.5316 100.598 60.7726C99.1694 61.1645 97.7244 61.5628 96.4317 62.2871C95.8252 62.6267 95.104 63.0469 94.4871 62.7264C92.1018 61.4867 89.3277 61.1015 86.6515 61.3573C83.9754 61.6132 81.3868 62.4851 78.9582 63.638C77.6905 64.24 76.2617 64.9351 74.9493 64.4376C70.1582 62.6209 64.6924 62.6527 59.9225 64.525C59.077 64.8569 58.1341 64.4886 57.3019 64.1243C56.4017 63.7304 55.5017 63.3367 54.6014 62.9427C55.7623 61.6148 60.7254 59.7678 61.7371 58.4826C61.9149 58.2569 68.5418 53.6613 75.8087 55.7378C76.1344 55.5849 87.4363 53.6613 93.8288 55.817Z" fill="white"/>
<path fill-rule="evenodd" clip-rule="evenodd" d="M64.1256 77.5196C59.9119 73.5148 55.0472 69.4606 53.9124 63.7589C55.9951 69.1079 60.6198 72.9584 64.6758 77.0198C68.7318 81.0812 72.5737 86.1472 72.3231 91.8816C78.955 90.4339 85.8275 90.0947 92.5698 90.8819C93.261 87.7694 95.2728 85.149 96.8515 82.3787C100.765 75.5116 102.088 67.5171 103.345 59.7138C103.663 57.7409 101.248 56.5715 99.3111 56.0781C97.3771 55.5852 95.4429 55.0924 93.5089 54.5997C89.8741 53.6734 86.1085 52.7408 82.4113 53.3739C79.9113 53.8022 77.4426 54.9414 74.9422 54.5148C70.9623 53.8359 66.7399 54.6958 63.3425 56.8768C61.6344 57.9732 60.1166 59.3947 58.2521 60.1967C54.3282 61.8851 50.8718 64.6459 48.3579 68.0997C47.0446 61.3062 49.2573 54.3538 51.8444 47.9362C54.7363 40.7623 58.3665 33.5039 64.5884 28.9087C73.7109 22.1716 85.6047 23.4831 95.0941 29.6923C104.584 35.9015 110.382 46.1407 112.256 57.3253C112.474 58.6263 112.628 60.0343 112.016 61.2024C111.404 62.3705 111.172 63.0465 110.174 62.1848C109.323 61.4501 108.417 60.6882 107.312 60.4767C106.208 60.2652 104.868 60.839 104.654 61.9429C103.086 70.0272 101.439 78.3167 97.0824 85.3048C95.9477 87.1246 94.6267 88.8623 93.9052 90.8817C93.3531 92.427 93.1751 94.0766 93.0012 95.7084C92.6386 99.1083 92.2761 102.508 91.9136 105.908C91.7609 107.341 91.5479 108.902 90.5039 109.895C89.507 110.844 88.0233 111.015 86.6524 111.137C82.2006 111.532 77.7486 111.928 73.2967 112.323C72.5005 112.394 71.5978 112.43 71.0162 111.881C70.5682 111.459 70.444 110.804 70.356 110.195C69.7306 105.869 69.7308 101.454 70.3564 97.1286C71.2542 90.9225 68.477 84.5733 64.1025 80.0805C61.8228 77.7392 59.1344 75.8254 56.8585 73.4804C54.5826 71.1355 52.6777 68.1883 52.541 64.9233C54.0898 69.2146 56.9438 73.0247 60.626 75.7179C66.1291 79.7423 70.0499 85.8735 71.3944 92.5572C72.4512 86.8407 68.3393 81.5246 64.1256 77.5196Z" fill="white"/>
<path fill-rule="evenodd" clip-rule="evenodd" d="M52.7384 90.5814C52.0707 90.2153 51.8247 89.3941 51.6491 88.6532C50.7878 85.0176 50.158 81.3269 49.7651 77.6114C49.7401 77.3751 49.7287 77.1024 49.9005 76.9385C50.2686 77.3726 50.3337 77.9791 50.3903 78.5457C50.7965 82.619 51.5838 86.6542 52.7384 90.5814Z" fill="#00160A"/>
<path fill-rule="evenodd" clip-rule="evenodd" d="M105.693 78.197C106.298 76.1733 106.744 74.1021 107.026 72.0085C107.064 71.725 107.171 71.3685 107.456 71.3467C107.622 71.4921 107.606 71.751 107.575 71.9701C107.307 73.8366 106.924 75.6866 106.429 77.5064C106.329 77.8758 106.048 78.3394 105.693 78.197Z" fill="#00160A"/>
<path fill-rule="evenodd" clip-rule="evenodd" d="M90.2699 126.847C90.6 125.95 91.2049 125.157 91.9817 124.601C91.1562 124.652 90.3531 125.012 89.7655 125.594C90.0891 123.056 90.901 120.58 92.1436 118.343C89.8452 120.23 88.3615 123.078 88.1325 126.042C87.585 125.723 86.902 125.646 86.2971 125.835C86.8562 126.467 87.4155 127.098 87.9746 127.729C76.4751 128.267 64.984 128.979 53.5061 129.866C52.9094 126.694 53.6854 123.288 55.5971 120.688C53.0745 122.467 51.5172 125.538 51.5725 128.624C50.4477 127.124 49.8873 124.981 48.1982 124.123C48.497 125.594 48.8423 125.924 50.8264 129.722C50.9076 129.878 50.9452 130.033 51.0034 130.19C49.9686 130.124 48.0981 129.561 47.0107 130.012C47.8298 130.202 49.3781 130.926 49.4701 131.762C38.6387 132.386 27.7472 131.965 16.9963 130.505C27.5225 131.222 38.081 131.468 48.6293 131.243C47.2701 130.33 45.5218 130.02 43.9314 130.408C45.9815 129.417 48.3571 129.115 50.5899 129.561C48.8862 127.655 47.7572 125.242 47.3855 122.713C49.0876 123.877 50.4487 125.533 51.2607 127.428C51.1832 123.866 53.7039 120.405 57.118 119.386C54.9378 122.163 53.7852 125.728 53.9277 129.256C64.8278 128.325 75.7517 127.673 86.6852 127.303C86.1455 126.875 85.7783 126.235 85.6814 125.553C86.216 125.097 87.0056 124.963 87.6608 125.217C88.1419 121.408 90.7912 117.95 94.3428 116.494C92.3645 118.728 90.9902 121.492 90.4028 124.418C91.0131 124.049 91.7856 123.959 92.4641 124.179C92.2706 125.004 91.7868 125.758 91.1171 126.278C104.655 123.183 118.866 128.455 132.617 126.521C125.675 128.766 118.175 127.026 110.918 126.271C104.05 125.556 97.0875 125.75 90.2699 126.847Z" fill="#00160A"/>
<path fill-rule="evenodd" clip-rule="evenodd" d="M96.3656 77.3477C96.5315 77.5918 96.4795 77.9182 96.4126 78.2057C96.0107 79.9318 95.3021 81.5861 94.3301 83.0679C94.0597 82.7309 94.3082 82.2425 94.5358 81.8752C95.1415 80.8976 95.5866 79.8206 95.8478 78.7007C95.9587 78.2254 96.0479 77.7183 96.3656 77.3477Z" fill="#00160A"/>
<path fill-rule="evenodd" clip-rule="evenodd" d="M93.7743 80.4819C93.5241 80.2662 93.6362 79.8645 93.756 79.5567C94.1408 78.5681 94.3995 77.5302 94.5239 76.4764C94.5651 76.1272 94.6306 75.716 94.9458 75.5596C95.0941 75.6935 95.0718 75.9284 95.0373 76.1253C94.7762 77.6221 94.5046 79.1497 93.7743 80.4819Z" fill="#00160A"/>
<path fill-rule="evenodd" clip-rule="evenodd" d="M72.961 86.0608C73.0342 85.9953 73.1482 86.0627 73.2162 86.1338C73.5207 86.4527 73.7023 86.8864 73.7158 87.3273C73.3083 87.1087 73.0096 86.6977 72.9279 86.2428C72.9165 86.1794 72.9129 86.1039 72.961 86.0608Z" fill="#00160A"/>
<path fill-rule="evenodd" clip-rule="evenodd" d="M105.028 72.6934C104.92 74.6153 104.481 76.5183 103.737 78.2935C103.718 78.3395 103.697 78.3869 103.659 78.4194C103.549 78.5147 103.362 78.4121 103.323 78.2717C103.283 78.1313 103.34 77.9838 103.393 77.8482C103.918 76.5195 104.266 75.1211 104.426 73.7015C104.473 73.2793 104.607 72.7429 105.028 72.6934Z" fill="#00160A"/>
<path fill-rule="evenodd" clip-rule="evenodd" d="M72.2508 82.7459C71.5357 81.7791 70.9606 80.709 70.549 79.5791C70.4962 79.4339 70.5284 79.1887 70.6777 79.229C70.7339 79.2442 70.7672 79.3004 70.7946 79.3515C71.4157 80.5093 72.0366 81.6672 72.6575 82.8249C72.6259 82.999 72.3561 82.8882 72.2508 82.7459Z" fill="#00160A"/>
<path fill-rule="evenodd" clip-rule="evenodd" d="M51.8902 62.6541C51.5618 62.4838 51.5485 62.0258 51.588 61.6578C52.3228 54.7998 55.6617 48.2528 60.7812 43.6309C60.8989 44.5009 60.2273 45.2545 59.6317 45.8995C55.39 50.4947 52.6402 56.4457 51.8902 62.6541Z" fill="#00160A"/>
<path fill-rule="evenodd" clip-rule="evenodd" d="M94.927 62.648C95.0206 60.3964 94.6441 57.9181 93.8288 55.8171C95.3149 57.5244 95.3767 60.0081 95.3609 62.2716C97.7317 60.8615 100.476 60.0869 103.235 60.0497C102.356 60.2908 101.477 60.5316 100.598 60.7727C99.1694 61.1646 97.7244 61.5631 96.4317 62.2872C95.8252 62.627 95.104 63.0472 94.4871 62.7265C92.1018 61.4868 89.3277 61.1016 86.6515 61.3574C83.9754 61.6135 81.3868 62.6934 78.9582 63.8463C77.6905 64.4483 76.2617 65.1434 74.9493 64.6457C70.1582 62.8292 64.6924 62.6528 59.9225 64.525C59.077 64.857 58.1341 64.4886 57.3019 64.1244C56.4017 63.7307 55.5017 63.3367 54.6014 62.943C55.6479 63.1624 58.2462 64.0972 58.2462 64.0972C58.2462 64.0972 58.9948 64.1877 59.2305 63.9002C59.4659 63.6128 59.5404 63.2307 59.6253 62.8687C59.9988 61.2765 60.7254 59.7679 61.7371 58.4828C61.9149 58.257 62.2956 58.0463 62.4372 58.2963C61.037 59.9193 60.1033 61.9404 59.7752 64.0587C64.8787 62.1337 70.7027 62.1946 75.765 64.2255C76.2486 61.4248 76.2636 58.5436 75.8087 55.7379C76.1344 55.5852 76.3734 56.0703 76.4055 56.4284C76.6388 59.0378 76.5968 61.6717 76.2807 64.2723C79.2083 62.8579 82.2446 61.58 85.4549 61.0643C88.6652 60.5485 92.092 61.0562 94.927 62.648Z" fill="#00160A"/>
<path fill-rule="evenodd" clip-rule="evenodd" d="M57.7154 57.0575C59.2461 52.6772 61.6318 48.5977 64.699 45.1164C64.9238 44.861 65.1911 44.59 65.5312 44.5783C65.8711 44.5669 66.1904 45.0112 65.9505 45.2525C62.4216 48.8001 59.6693 53.1161 57.9411 57.8121C57.6301 57.8202 57.6129 57.3512 57.7154 57.0575Z" fill="#00160A"/>
<path fill-rule="evenodd" clip-rule="evenodd" d="M52.8801 76.7802C52.9248 76.8347 52.93 76.9106 52.9335 76.9809C53.0804 79.8981 53.8217 82.7486 54.5592 85.5749C54.5906 85.6955 54.4145 85.7827 54.304 85.7251C54.1934 85.6674 54.1451 85.5377 54.1064 85.4191C53.2463 82.7713 52.6972 80.0225 52.4742 77.2476C52.4632 77.1091 52.4553 76.9599 52.5289 76.8422C52.6028 76.7247 52.7921 76.6729 52.8801 76.7802Z" fill="#00160A"/>
<path fill-rule="evenodd" clip-rule="evenodd" d="M75.9244 53.0922C75.6174 53.1051 75.5171 52.6874 75.5215 52.3802C75.5681 49.1672 75.6147 45.9544 75.6611 42.7417C75.6663 42.3868 75.7624 41.9248 76.1149 41.8857C76.4284 42.2531 76.4217 42.7868 76.3984 43.2692C76.2405 46.5435 76.0825 49.8178 75.9244 53.0922Z" fill="#00160A"/>
<path fill-rule="evenodd" clip-rule="evenodd" d="M105.507 58.0096C106.188 56.9043 106.142 55.5134 106.027 54.2203C105.826 51.9554 105.482 49.7032 104.996 47.4819C104.949 47.2689 104.921 47.0006 105.101 46.8769C105.249 46.7743 105.466 46.845 105.582 46.9829C105.698 47.1206 105.738 47.3049 105.774 47.4815C106.331 50.2429 106.585 53.0657 106.529 55.8822C106.508 56.9297 106.337 58.1584 105.418 58.6605C105.241 58.4995 105.382 58.2133 105.507 58.0096Z" fill="#00160A"/>
<path fill-rule="evenodd" clip-rule="evenodd" d="M94.7238 50.5661C94.9549 51.5932 94.8569 52.6916 94.4476 53.6615C94.1664 53.3595 94.2454 52.8857 94.2941 52.4761C94.4832 50.8845 93.9259 49.2996 93.2406 47.8508C92.5552 46.4019 91.7272 45.0029 91.3153 43.4541C91.2533 43.2212 91.2629 42.8836 91.5004 42.8424C91.7012 42.8077 91.8378 43.0346 91.9127 43.2241C92.6827 45.1751 93.4529 47.1262 94.223 49.0772C94.4156 49.5648 94.6088 50.0548 94.7238 50.5661Z" fill="#00160A"/>
<path fill-rule="evenodd" clip-rule="evenodd" d="M115.58 44.7614C115.699 43.6284 116.674 42.7792 117.675 42.234C119.484 41.2481 121.614 40.8635 123.655 41.1543C124.578 41.286 125.283 40.4057 125.943 39.7461C127.655 38.0345 130.273 37.4095 132.662 37.8049C135.052 38.2003 137.216 39.52 138.96 41.2007C140.704 42.8811 142.065 44.9145 143.324 46.9829C143.588 47.4168 144.201 47.4282 144.709 47.4034C145.804 47.3498 146.956 47.3799 147.912 47.9155C148.869 48.4509 149.541 49.6396 149.154 50.6653C148.972 51.1456 148.588 51.5283 148.148 51.7933C147.271 52.322 146.208 52.4129 145.187 52.4909C138.378 53.0109 131.569 53.5307 124.76 54.0507C122.897 54.193 121.005 54.3336 119.175 53.9546C117.345 53.5754 115.554 52.6005 114.618 50.9837C113.681 49.367 113.838 47.0642 115.275 45.8699C115.578 45.6173 115.538 45.1541 115.58 44.7614ZM118.159 42.5855C117.344 42.9739 116.53 43.5459 116.262 44.408C116.166 44.715 116.147 45.0412 116.058 45.3505C115.828 46.1521 115.164 46.7541 114.814 47.5112C114.085 49.0897 114.916 51.0528 116.307 52.0963C117.698 53.1399 119.5 53.45 121.234 53.5723C127.478 54.0118 133.686 52.4277 139.942 52.2702C142.4 52.2084 144.936 52.3547 147.235 51.4842C148.105 51.1545 149.061 50.3208 148.688 49.4687C148.593 49.2534 148.423 49.0805 148.245 48.9272C147.144 47.9808 145.568 47.6187 144.165 47.99C143.449 48.1793 142.851 47.4534 142.459 46.8252C140.754 44.0925 138.824 41.3685 136.069 39.6989C133.314 38.0295 129.537 37.6643 126.975 39.6161C125.823 40.4933 124.752 41.8561 123.313 41.7034C121.558 41.5172 119.752 41.8261 118.159 42.5855Z" fill="#00160A"/>
<path fill-rule="evenodd" clip-rule="evenodd" d="M22.808 34.5772C22.5782 35.2943 22.8679 36.0662 23.1818 36.7506C23.5466 37.5462 24.1465 38.4435 25.0199 38.3883C27.7173 38.218 30.4144 38.0476 33.1117 37.8773C33.5024 37.8525 34.04 37.9545 34.0423 38.3461C30.66 38.6167 27.2778 38.8875 23.8955 39.1582C21.6202 39.3404 19.2412 39.5561 17.3201 40.7887C15.3991 42.0211 14.1468 44.6198 15.1831 46.6534C15.5757 47.4239 16.3463 48.068 17.2107 48.0423C19.5405 47.973 21.8702 47.9035 24.1998 47.8343C24.7427 47.818 25.4854 47.9894 25.4611 48.5319C21.7589 48.3106 18.0346 48.457 14.3611 48.9683C13.0422 49.1517 11.6856 49.3992 10.5795 50.1408C9.47354 50.8823 8.67883 52.2439 8.98852 53.5389C9.20226 54.4328 9.90245 55.1507 10.7122 55.5856C11.5219 56.0203 12.4384 56.2087 13.3448 56.3608C22.9566 57.9749 32.8172 56.0873 42.5381 56.7922C43.6257 56.871 44.8032 57.0237 45.5778 57.7912C37.1912 56.1815 28.5426 57.978 20.0125 57.5743C18.1138 57.4846 16.2222 57.2856 14.3319 57.0867C12.7846 56.9239 11.1635 56.7346 9.8871 55.845C9.27296 55.4169 8.75816 54.8255 8.50124 54.1225C7.8648 52.3807 8.98794 50.3908 10.5705 49.4242C12.1532 48.4576 14.0736 48.2663 15.9204 48.0982C14.411 47.0655 13.9622 44.8898 14.6153 43.1815C15.2683 41.473 16.8216 40.2275 18.524 39.5588C20.2264 38.8903 22.0813 38.7288 23.9082 38.6427C23.3694 37.9372 22.8226 37.2169 22.5214 36.3818C22.2202 35.5464 22.198 34.5628 22.6787 33.8161C23.0127 33.2969 23.5487 32.9456 24.0835 32.6369C29.1993 29.6852 35.3833 29.3424 41.2878 29.4889C42.8921 29.5286 44.5488 29.6118 45.9917 30.3144C48.2302 31.4045 49.5907 33.9251 49.6043 36.4146C49.6178 38.9044 48.4133 41.3068 46.6426 43.0571C46.3582 42.6632 46.7137 42.1392 47.0253 41.7665C48.4678 40.0397 49.2873 37.7375 48.9803 35.5088C48.6735 33.2799 47.1443 31.1951 45.0125 30.4756C44.1216 30.1751 43.1706 30.1116 42.2317 30.0638C36.1261 29.7526 29.7274 30.0723 24.3801 33.0355C23.7218 33.4001 23.0375 33.8606 22.808 34.5772Z" fill="#00160A"/>
<path fill-rule="evenodd" clip-rule="evenodd" d="M64.1256 77.519C59.9119 73.5142 55.0472 69.46 53.9124 63.7585C55.9951 69.1073 60.6198 72.9578 64.6758 77.0192C68.7318 81.0806 72.5737 86.1466 72.3231 91.8812C78.955 90.4333 85.8275 90.094 92.5698 90.8813C93.261 87.7688 95.2728 85.1484 96.8515 82.3783C100.765 75.511 102.088 67.5165 103.345 59.7132C103.663 57.7403 101.248 56.5709 99.3111 56.0775C97.3771 55.5846 95.4429 55.0918 93.5089 54.5991C89.8741 53.6728 86.1085 52.7402 82.4113 53.3735C79.9113 53.8016 77.4426 54.9408 74.9422 54.5144C70.9623 53.8355 66.7399 54.6952 63.3425 56.8762C61.6344 57.9728 60.1322 59.4627 58.2521 60.1963C54.1811 61.7844 51.8432 63.708 48.3579 68.0991C47.0446 61.3056 49.2573 54.3532 51.8444 47.9358C54.7363 40.7616 58.3665 33.5033 64.5884 28.9081C73.7109 22.1712 87.0607 22.8585 96.5501 29.0677C106.04 35.2769 111.838 46.1401 113.712 57.3247C113.93 58.6257 114.084 60.0337 113.472 61.2018C112.86 62.3701 111.172 63.0459 110.174 62.1842C109.323 61.4495 108.417 60.6876 107.312 60.4761C106.208 60.2646 104.868 60.8384 104.654 61.9423C103.086 70.0266 101.439 78.3163 97.0824 85.3042C95.9477 87.124 94.6267 88.8616 93.9052 90.8811C93.3531 92.4263 93.1751 94.076 93.0012 95.7078C92.6386 99.1077 92.2761 102.508 91.9136 105.908C91.7609 107.341 91.5479 108.901 90.5039 109.895C89.507 110.844 88.0233 111.014 86.6524 111.136C82.2006 111.532 77.7486 111.927 73.2967 112.322C72.5005 112.393 71.5978 112.429 71.0162 111.881C70.5682 111.458 70.444 110.804 70.356 110.194C69.7306 105.869 69.7308 101.453 70.3564 97.128C71.2542 90.9221 68.477 84.5727 64.1025 80.0801C61.8228 77.7386 59.1344 75.8248 56.8585 73.4798C54.5826 71.1351 52.6777 68.1877 52.541 64.9229C54.0898 69.214 56.9438 73.0243 60.626 75.7173C66.129 79.7417 70.0498 85.8731 71.3944 92.5566C72.4512 86.8401 68.3393 81.524 64.1256 77.519ZM73.5767 53.7257C75.3672 53.9004 77.2423 54.3455 78.9131 53.6791C83.4128 51.8844 88.6326 51.9793 93.064 53.9364C94.9553 54.7717 97.0844 54.8177 99.121 55.1742C101.158 55.5305 103.308 56.3431 104.345 58.1319C105.509 60.1406 108.931 59.5854 110.257 61.4911C110.807 62.2815 112.16 61.9803 112.68 61.1704C113.201 60.3604 113.131 59.318 113.015 58.3622C112.067 50.5824 109.218 42.9544 104.301 36.8512C99.3841 30.7481 92.3306 26.2601 84.5922 25.0192C76.8535 23.7784 68.5036 25.9718 62.7761 31.3216C59.3094 34.5595 56.9049 38.7601 54.7922 43.0074C51.1125 50.4045 48.1004 58.4803 48.6947 66.7207C51.1645 63.7323 53.8473 60.5967 57.5513 59.4525C58.436 59.1792 59.405 59.0037 60.0765 58.3661C63.6349 54.9872 68.6926 53.2485 73.5767 53.7257ZM77.5345 104.712C77.521 106.698 77.8186 108.687 78.4133 110.583C78.4641 110.744 78.5269 110.919 78.6708 111.008C78.8106 111.096 78.9888 111.079 79.1525 111.059C81.1433 110.821 83.1341 110.583 85.1249 110.345C85.1979 110.336 85.2794 110.323 85.3231 110.264C85.3684 110.202 85.3547 110.117 85.3387 110.043C84.9803 108.359 84.6221 106.675 84.2637 104.991C84.2436 104.896 84.2207 104.796 84.1537 104.726C84.0715 104.639 83.9438 104.619 83.8259 104.604C81.8703 104.357 79.8951 104.265 77.9249 104.329C77.8097 104.333 77.6805 104.343 77.6048 104.43C77.5399 104.505 77.5353 104.613 77.5345 104.712ZM83.8525 97.6921C83.7872 97.6026 83.663 97.5847 83.5526 97.575C81.5454 97.3973 79.5201 97.4265 77.5189 97.6617C77.4029 97.6752 77.2801 97.6925 77.1905 97.7672C77.0434 97.8895 77.0422 98.1106 77.0536 98.3015C77.1204 99.4353 77.1872 100.569 77.2539 101.703C77.2701 101.979 77.3779 102.345 77.655 102.331C79.6176 102.232 81.5889 102.304 83.5391 102.546C83.8074 102.579 83.911 102.208 83.9105 101.938C83.9083 100.602 83.906 99.2662 83.9037 97.9302C83.9035 97.8477 83.9014 97.7589 83.8525 97.6921ZM71.4104 105.394C71.259 105.463 71.1038 105.54 71.0012 105.671C70.8377 105.879 70.8446 106.17 70.8594 106.434C70.9108 107.362 70.9621 108.29 71.0135 109.218C71.0395 109.687 71.0672 110.164 71.2263 110.607C71.3854 111.049 71.698 111.46 72.1388 111.624C72.502 111.759 72.904 111.714 73.2886 111.666C74.0164 111.577 74.7442 111.487 75.472 111.398C75.7709 111.361 76.0804 111.321 76.336 111.162C75.6538 109.09 75.2006 106.944 74.9869 104.773C74.972 104.621 74.7677 104.585 74.6152 104.595C73.5103 104.664 72.4186 104.937 71.4104 105.394ZM90.9923 102.91C91.2078 101.578 91.4233 100.246 91.6388 98.9143C91.6577 98.7976 91.6737 98.6672 91.6051 98.5709C91.5354 98.4731 91.4044 98.4465 91.2858 98.4274C89.7081 98.174 88.1263 97.9452 86.5415 97.7414C86.4226 97.726 86.2782 97.7214 86.2096 97.8198C86.1686 97.8784 86.1701 97.9556 86.173 98.0272C86.2304 99.4156 86.2876 100.804 86.345 102.192C86.3502 102.319 86.362 102.461 86.4569 102.545C86.5239 102.605 86.6175 102.621 86.7059 102.636C88.0364 102.85 89.3668 103.065 90.6974 103.28C90.8715 103.308 90.964 103.084 90.9923 102.91ZM77.1609 95.0532C77.1325 95.2067 77.1227 95.403 77.2593 95.4783C77.3249 95.5145 77.4045 95.5083 77.479 95.5012C79.5654 95.3007 81.6517 95.1004 83.7381 94.8999C83.8457 94.8897 83.9592 94.877 84.0462 94.8125C84.1643 94.7247 84.2005 94.5665 84.2284 94.4219C84.3985 93.5421 84.5685 92.662 84.7386 91.7822C84.7627 91.657 84.7775 91.5043 84.6781 91.4246C84.6086 91.3691 84.5102 91.3737 84.4216 91.3812C82.4217 91.5486 80.4216 91.716 78.4214 91.8835C78.2582 91.897 78.0876 91.913 77.9495 92.0012C77.7155 92.1503 77.645 92.4538 77.5942 92.7265C77.4499 93.5021 77.3053 94.2775 77.1609 95.0532ZM86.5609 92.1591C86.4829 92.9218 86.4047 93.6848 86.3265 94.4475C86.3136 94.5733 86.3025 94.7079 86.3637 94.8184C86.4542 94.9816 86.6624 95.0291 86.8465 95.06C88.5205 95.3421 90.1946 95.6239 91.8686 95.906C91.9381 95.9176 92.0121 95.9289 92.0768 95.9012C92.2002 95.8482 92.2276 95.6886 92.2366 95.5547C92.3031 94.5702 92.3181 93.5822 92.2813 92.5961C92.2751 92.4261 92.2661 92.2518 92.1968 92.0965C91.987 91.6251 91.3628 91.5469 90.8467 91.5365C89.6382 91.5118 88.4298 91.4872 87.2213 91.4627C87.0961 91.4602 86.9648 91.4589 86.8538 91.5172C86.6362 91.6312 86.5861 91.9147 86.5609 92.1591ZM104.383 59.7094C103.519 60.8355 103.282 62.3057 103.063 63.708C101.953 70.8014 100.514 78.059 96.6108 84.0849C95.2736 86.1493 93.6071 88.1875 93.418 90.6398C94.1543 88.0871 96.1934 86.1549 97.5932 83.8965C98.6201 82.2396 99.3055 80.3965 99.9332 78.5509C101.448 74.0957 102.668 69.5403 103.582 64.9242C103.91 63.2645 104.234 61.5188 105.303 60.2072C104.94 60.2036 104.584 60.011 104.383 59.7094ZM74.4318 102.595C74.5478 102.565 74.6722 102.53 74.7477 102.437C74.8284 102.337 74.8322 102.197 74.832 102.068C74.8305 100.844 74.8289 99.62 74.8274 98.396C74.8274 98.3078 74.8245 98.2121 74.7687 98.1439C74.6887 98.0459 74.5404 98.0494 74.4145 98.0632C73.4432 98.1694 72.4812 98.3606 71.5431 98.6339C71.433 98.6659 71.3178 98.7025 71.2396 98.7864C71.1497 98.8827 71.1267 99.0218 71.1088 99.1522C70.9264 100.474 70.8536 101.811 70.8912 103.144C70.8943 103.253 70.9101 103.382 71.0069 103.432C71.0736 103.467 71.1543 103.448 71.2271 103.43C72.2954 103.151 73.3635 102.873 74.4318 102.595ZM90.0771 109.19C90.7845 108.339 90.7908 107.126 90.7617 106.02C90.756 105.805 90.5027 105.698 90.2937 105.647C89.1759 105.371 88.0402 105.167 86.8962 105.038C86.7961 105.026 86.6863 105.018 86.6029 105.074C86.4754 105.16 86.4766 105.345 86.4933 105.498C86.6482 106.926 86.9446 108.338 87.3769 109.708C87.427 109.867 87.4929 110.042 87.6435 110.113C87.7249 110.152 87.8182 110.153 87.9079 110.15C88.7226 110.127 89.5559 109.816 90.0771 109.19ZM72.9843 92.7238C72.7064 92.8037 72.4229 92.8975 72.2041 93.0865C71.9963 93.2658 71.8642 93.5169 71.7615 93.7715C71.4349 94.5798 71.3607 95.4644 71.2899 96.3334C71.2845 96.3998 71.281 96.473 71.3216 96.5258C71.3823 96.6051 71.5027 96.5945 71.6009 96.5762C72.4477 96.4175 73.2942 96.2588 74.141 96.0998C74.3821 96.0547 74.6489 95.9933 74.7858 95.7897C74.8788 95.6512 74.8904 95.4754 74.899 95.3088C74.951 94.3085 75.0027 93.3081 75.0545 92.3078C74.3546 92.3897 73.6616 92.5289 72.9843 92.7238ZM77.7375 97.0071C79.5866 96.807 81.4547 96.7823 83.3084 96.9337C83.5187 96.951 83.7496 96.9649 83.9199 96.8405C84.1866 96.6454 84.1506 96.2438 84.0869 95.9195C84.0701 95.8348 84.0512 95.7454 83.9919 95.6828C83.8974 95.5828 83.74 95.5869 83.6029 95.5986C81.7523 95.7537 79.9018 95.9089 78.0514 96.0641C77.796 96.0855 77.5235 96.1136 77.3253 96.2758C77.127 96.4383 77.0628 96.7862 77.267 96.9408C77.3966 97.039 77.5761 97.0246 77.7375 97.0071ZM91.8262 96.8601C91.6038 96.6327 91.2692 96.5662 90.9559 96.5104C89.5713 96.2644 88.1864 96.0183 86.8015 95.7722C86.6208 95.7402 86.3988 95.7234 86.2901 95.8713C86.2426 95.9357 86.2295 96.0183 86.2177 96.0975C86.1588 96.4915 86.2073 97.0402 86.6023 97.0922C88.1764 97.2996 89.7506 97.507 91.3249 97.7143C91.4809 97.7349 91.6486 97.7536 91.7879 97.6804C92.0696 97.5328 92.0485 97.0874 91.8262 96.8601ZM75.8726 104.673C75.7788 104.931 75.8256 105.216 75.8745 105.485C76.1727 107.135 76.497 108.781 76.8681 110.416C76.9182 110.636 76.9735 110.866 77.12 111.038C77.2664 111.21 77.5335 111.302 77.7242 111.181C78.011 110.999 77.9052 110.565 77.7818 110.248C77.1449 108.615 76.964 106.842 76.876 105.091C76.8606 104.783 76.8013 104.408 76.5124 104.302C76.2551 104.207 75.9664 104.415 75.8726 104.673ZM90.6254 104.977C90.9607 104.849 90.729 104.277 90.9688 104.01C89.5767 103.663 88.1573 103.425 86.7281 103.299C86.3909 103.269 86.2347 103.777 86.4355 104.05C86.6362 104.322 87.0031 104.399 87.3365 104.457C87.6371 104.509 87.9376 104.561 88.2382 104.613C88.9437 104.735 89.6495 104.857 90.355 104.979C90.4451 104.995 90.5401 105.01 90.6254 104.977ZM78.0655 103.726C79.7932 103.624 81.5308 103.689 83.246 103.92C83.5886 103.966 84.0641 103.925 84.11 103.583C84.1574 103.228 83.6795 103.072 83.3223 103.055C81.5864 102.968 79.8469 102.956 78.1101 103.018C77.8024 103.029 77.3806 103.185 77.4617 103.482C77.5239 103.71 77.8301 103.74 78.0655 103.726ZM84.6989 97.9015C84.6177 98.0706 84.6155 98.2655 84.6148 98.4529C84.6111 99.5112 84.6073 100.569 84.6036 101.627C84.6028 101.862 84.6038 102.106 84.7024 102.319C84.801 102.532 85.0269 102.705 85.258 102.664C85.6415 102.596 85.7125 102.083 85.691 101.694C85.6297 100.568 85.5681 99.4424 85.5067 98.3167C85.4916 98.0399 85.4192 97.6919 85.1477 97.6353C84.9641 97.597 84.78 97.7322 84.6989 97.9015ZM85.8795 105.223C85.8027 105.002 85.6251 104.798 85.393 104.766C85.1608 104.734 84.9048 104.942 84.9493 105.172C85.2214 106.573 85.4934 107.975 85.7655 109.376C85.8294 109.704 85.9171 110.069 86.2002 110.247C86.4833 110.425 86.9754 110.186 86.8696 109.869C86.4398 108.583 86.0068 107.274 85.9612 105.918C85.9533 105.684 85.9562 105.444 85.8795 105.223ZM76.4097 102.234C76.5359 102.008 76.5259 101.734 76.5124 101.476C76.4654 100.574 76.4184 99.6729 76.3714 98.7716C76.3568 98.4916 76.3325 98.1871 76.1432 97.9804C75.9537 97.7736 75.5383 97.7719 75.4472 98.0372C75.4231 98.1077 75.4256 98.184 75.4281 98.2585C75.4712 99.4644 75.5142 100.67 75.5571 101.876C75.5646 102.085 75.5872 102.325 75.7567 102.447C75.9664 102.599 76.2832 102.459 76.4097 102.234ZM75.7613 92.37C75.5217 92.7011 75.5109 93.1396 75.5094 93.5481C75.5074 94.1112 75.5053 94.674 75.5032 95.2371C75.5021 95.5389 75.6126 95.9509 75.913 95.9216C76.148 95.8987 76.2418 95.6115 76.2809 95.3787C76.4565 94.3335 76.632 93.2883 76.8076 92.2431C76.5613 91.9172 76.0007 92.0391 75.7613 92.37ZM74.1133 104.112C74.3606 104.09 74.6362 104.069 74.8031 103.885C74.9701 103.702 74.8659 103.31 74.6198 103.344C73.8606 103.448 73.1016 103.552 72.3424 103.656C71.9487 103.71 71.5308 103.774 71.2309 104.035C70.9309 104.296 70.8317 104.825 71.1387 105.078C72.041 104.538 73.0661 104.206 74.1133 104.112ZM71.3459 97.315C71.119 97.5311 71.0784 97.9656 71.3467 98.1274C72.2158 97.8373 73.116 97.6403 74.0268 97.5409C74.2512 97.5163 74.4894 97.4928 74.6691 97.3564C74.849 97.2199 74.9283 96.925 74.7656 96.7686C74.6373 96.645 74.433 96.6631 74.2571 96.6895C73.5759 96.7916 72.8947 96.8938 72.2135 96.9959C71.9038 97.0423 71.5728 97.0987 71.3459 97.315ZM85.5452 91.498C85.4651 91.5835 85.4408 91.7056 85.4198 91.8211C85.2598 92.7009 85.0999 93.5807 84.9399 94.4606C84.911 94.6197 84.8931 94.8119 85.0171 94.9155C85.1438 95.0212 85.3505 94.9563 85.4506 94.8248C85.5506 94.6933 85.5725 94.5205 85.5908 94.3564C85.69 93.4745 85.7892 92.5923 85.8882 91.7104C85.8972 91.6312 85.9036 91.5426 85.8543 91.48C85.7815 91.388 85.6253 91.4126 85.5452 91.498ZM85.2461 103.151C84.9133 103.11 84.5905 103.536 84.7981 103.799C84.9433 103.983 85.1136 104.171 85.3426 104.221C85.5718 104.272 85.8568 104.105 85.8348 103.871C85.8033 103.537 85.5789 103.192 85.2461 103.151ZM85.3778 96.3967C85.4901 96.1271 85.5169 95.6959 85.227 95.6622C85.1136 95.6489 85.0063 95.7186 84.9285 95.8022C84.5672 96.1901 84.7538 96.9308 85.2559 97.1014C85.4169 96.9156 85.4737 96.645 85.4007 96.4104C85.3208 96.1535 85.2746 96.645 85.3778 96.3967ZM76.3913 96.8904C76.3237 96.6421 76.1176 96.4085 75.8601 96.406C75.5267 96.4027 75.3083 96.8763 75.5275 97.1278C75.7468 97.3792 76.2458 97.2278 76.288 96.8969C76.3254 96.6036 76.4689 97.1756 76.3913 96.8904ZM76.5948 103.716C76.674 103.649 76.7308 103.556 76.7545 103.455C76.5349 103.209 76.1501 103.13 75.8512 103.268C75.785 103.299 75.721 103.341 75.6833 103.403C75.5756 103.582 75.7542 103.823 75.9602 103.857C76.1661 103.891 76.3678 103.79 76.5525 103.693L76.5948 103.716Z" fill="#00160A"/>
</g>
<defs>
<clipPath id="clip0_338_5674">
<rect width="156" height="156" fill="white"/>
</clipPath>
</defs>
</svg>
