<svg width="8" height="10" viewBox="0 0 8 10" fill="none" xmlns="http://www.w3.org/2000/svg">
<path d="M7.61673 7.64272C7.61673 8.04822 7.49955 8.39607 7.26517 8.68624C7.03452 8.97642 6.7555 9.12151 6.42812 9.12151H1.66249C1.33511 9.12151 1.05423 8.97642 0.819859 8.68624C0.589204 8.39607 0.473877 8.04822 0.473877 7.64272C0.473877 7.3265 0.488758 7.02888 0.51852 6.74986C0.552002 6.46712 0.611526 6.18438 0.697091 5.90165C0.782657 5.61519 0.890544 5.37151 1.02075 5.17062C1.15468 4.96601 1.32953 4.80046 1.54531 4.67397C1.7648 4.54376 2.01592 4.47865 2.29865 4.47865C2.78601 4.95485 3.36822 5.19294 4.04531 5.19294C4.72239 5.19294 5.30461 4.95485 5.79196 4.47865C6.0747 4.47865 6.32395 4.54376 6.53973 4.67397C6.75922 4.80046 6.93407 4.96601 7.06428 5.17062C7.19821 5.37151 7.30795 5.61519 7.39352 5.90165C7.47909 6.18438 7.53675 6.46712 7.56651 6.74986C7.59999 7.02888 7.61673 7.3265 7.61673 7.64272ZM5.55758 1.18066C5.97797 1.59733 6.18816 2.10142 6.18816 2.69294C6.18816 3.28446 5.97797 3.79041 5.55758 4.2108C5.14092 4.62746 4.63682 4.8358 4.04531 4.8358C3.45379 4.8358 2.94784 4.62746 2.52745 4.2108C2.11078 3.79041 1.90245 3.28446 1.90245 2.69294C1.90245 2.10142 2.11078 1.59733 2.52745 1.18066C2.94784 0.760277 3.45379 0.550083 4.04531 0.550083C4.63682 0.550083 5.14092 0.760277 5.55758 1.18066Z" fill="white"/>
</svg>
