<svg width="23" height="23" viewBox="0 0 23 23" fill="none" xmlns="http://www.w3.org/2000/svg">
<path d="M8.17656 0.390869L7.18633 8.29294H9.35977L11.8531 0.849932L8.17656 0.390869ZM12.8332 0.797119L10.3246 8.29294L17.9266 8.29802L19.6684 3.08735L12.8332 0.797119ZM7.14062 1.33743L3.48945 1.73556L4.20547 8.29294H6.27227L7.14062 1.33743ZM1.25 6.7695C0.666016 6.7695 0.276016 7.21638 0.169883 7.64294C0.11707 7.85622 0.147031 8.02888 0.206953 8.12536C0.266367 8.21677 0.348633 8.29294 0.640625 8.29294H3.28633L3.11875 6.7695H1.25ZM19.3992 6.7695L18.8914 8.29294H21.3035C21.1715 8.03903 21.1156 7.76989 21.1512 7.50075C21.1867 7.23669 21.2883 6.99802 21.4203 6.7695H19.3992ZM0.0820312 9.207V21.7449C0.0820312 22.0039 0.223711 22.3086 0.456289 22.5422C0.689375 22.7758 0.996094 22.9179 1.25 22.9179L20.75 22.923C21.0039 22.923 21.3086 22.7808 21.5422 22.5472C21.7758 22.3136 21.918 22.009 21.918 21.75V18.1445H17.5C15.2656 18.1445 15.2656 13.9804 17.5 13.9804H21.918V9.21208L0.0820312 9.207ZM17.5 14.8945C16.4844 14.8945 16.4844 17.2304 17.5 17.2304H18.6324C18.1754 17.0375 17.8555 16.5855 17.8555 16.0625C17.8555 15.5394 18.1754 15.0875 18.6324 14.8945H17.5ZM19.6176 14.8945C20.0746 15.0875 20.3945 15.5394 20.3945 16.0625C20.3945 16.5855 20.0746 17.0375 19.6176 17.2304H22.7305V14.8945H19.6176ZM19.125 15.707C18.9219 15.707 18.7695 15.8593 18.7695 16.0625C18.7695 16.2656 18.9219 16.4179 19.125 16.4179C19.3281 16.4179 19.4805 16.2656 19.4805 16.0625C19.4805 15.8593 19.3281 15.707 19.125 15.707Z" fill="white"/>
</svg>
