<svg width="53" height="53" viewBox="0 0 53 53" fill="none" xmlns="http://www.w3.org/2000/svg">
<path fill-rule="evenodd" clip-rule="evenodd" d="M26.2833 52.0312C40.7993 52.0312 52.5667 40.3837 52.5667 26.0156C52.5667 11.6476 40.7993 0 26.2833 0C11.7674 0 0 11.6476 0 26.0156C0 40.3837 11.7674 52.0312 26.2833 52.0312ZM30.3401 20.1004C32.5805 17.8827 32.5805 14.2872 30.3401 12.0695C28.0996 9.85184 24.4671 9.85184 22.2266 12.0695C19.9862 14.2872 19.9862 17.8827 22.2266 20.1004L26.2833 24.1158L30.3401 20.1004ZM32.2595 30.0311C34.5 32.2488 38.1325 32.2488 40.373 30.0311C42.6134 27.8134 42.6134 24.2179 40.373 22.0002C38.1325 19.7826 34.5 19.7826 32.2595 22.0002L28.2028 26.0157L32.2595 30.0311ZM30.3401 39.9618C32.5805 37.7441 32.5805 34.1486 30.3401 31.9309L26.2833 27.9155L22.2266 31.9309C19.9862 34.1486 19.9862 37.7441 22.2266 39.9618C24.4671 42.1795 28.0996 42.1795 30.3401 39.9618ZM12.1937 30.0311C9.95323 27.8134 9.95323 24.2179 12.1937 22.0002C14.4342 19.7826 18.0667 19.7826 20.3073 22.0002L24.364 26.0157L20.3073 30.0311C18.0667 32.2488 14.4342 32.2488 12.1937 30.0311Z" fill="#0E132F"/>
</svg>
